<svg xmlns="http://www.w3.org/2000/svg" xmlns:xlink="http://www.w3.org/1999/xlink" viewBox="0 0 210.37 561.4"><defs><style>.cls-1{fill:none;}.cls-2{opacity:0.49;}.cls-3{clip-path:url(#clip-path);}.cls-4{fill:#fff;}.cls-5{fill:#d6cbba;}.cls-6{fill:url(#linear-gradient);}</style><clipPath id="clip-path"><rect class="cls-1" x="-560.8" y="91.55" width="335.67" height="460.22"/></clipPath><linearGradient id="linear-gradient" x1="104.25" y1="310.39" x2="104.25" y2="538.17" gradientUnits="userSpaceOnUse"><stop offset="0" stop-color="#ffe26a" stop-opacity="0.7"/><stop offset="1" stop-color="#ffe26a" stop-opacity="0"/></linearGradient></defs><g id="h._bottom" data-name="h. bottom"><g class="cls-2"><g class="cls-3"><path class="cls-4" d="M311.54-67.34c2.73,2.63,5.63,8.69,4.85,10l-4.75-6.81c1.69,5,3,1.82,4.36,8.33-2.23.23-6-7.41-6.3-10.35l-.7,3.79a29.48,29.48,0,0,1-2.36-5c-.19-.41-.4-.84-.65-1.32.25.71.26,1.12.11,1.32s-.58.17-1.1,0c-1.73-.61-4.73-2.66-4.37,0a10.32,10.32,0,0,0,.65,2.25l-1.39-2c-4.82,2.84-5.5,6.59-9.15,9.29,3.69,6.12,1.33,5.68,3.25,11.28-4-.16-10.05-2.92-13.09-.25-.43,4.51,2.59,5.55,3.83,9.78-3.7-5.36-6.71-2.7-7.52-7.75a22.71,22.71,0,0,0-3.79,4.47,29.91,29.91,0,0,0-2.75,7.68c2,1.85,3.27,2.41,4.19,4.47-.3,1.5-3.56-.89-5.16-3.57l-.15-.72c-.07,5.95-5.91,4.18-11.42,2.77-5.29-1.36-10.29-2.43-9.11,3.88l-.46,9c-2.74.58-1.59-4.88-5.46-7.07,1.41,12.36-8.69,4.29-8.47,13.06-7.26-6.66-9.81-4.3-12-1.17S218.79-4.91,213-8.22l3,3.41c1.62,4.35-2.86-1.07-4.29-1.3,2.25,2.71,3.64,2.36,4.46,4.82C213.22,4.25,207.7,6.59,201.3,8s-13.63,1.92-19.4,4.1c-4.08,1.78,13,19.65,2,14.69l-4.17-7.45c-.12,6.63-3.55,9.33-7.08,11.9s-7.09,5.09-7.48,11.05c-.88-1.79-2.51-3.72-1.87-4.23-5.32-3.47-5.17,4-1.93,7.83-1.35.42-3.17-3.21-5.44-4.6-3.72-1.56,1.72,8.76-3,4.83a3,3,0,0,1-.86-1.57c-.07,2.22-4.11,2.65.82,6.75-4.57-.44-2.41,6.32-7,4.86,4,7-6.53.73.51,9.37-7.51-8.72-10.33-3.26-8.13,2.1-1.85-3-3.69-1.5-6.35-5.59a1.79,1.79,0,0,1,.25-.23l-.33.13.08.1c-1.56,1.65-1.65,4.64,2.62,8.73-12.36-7.32,1.36,13.8-12.32,2.41-.78,9-2.33,16.39-4.85,22.45-.47-.52-.87-1-1.21-1.43l1.38-3.07a10.63,10.63,0,0,0-1.5-3.54c.41-1.17.06-2.74-3.08-5.94-.92,7.39,3.49,16.77-2.52,18.64-2.15-.13-2.85-4.17-3.83-5.92a8.51,8.51,0,0,1-1.42,3.85c-.85-5,.37-3.93-1.67-12.3,1.14-1.68,4,1,5.08,3.93-.4-2.21,3.28.43,1.77-4.74-5-4.8-7.7-3.71-8,2.47-1.43-1.36-1.85-3.61-2.41-5.07A31.7,31.7,0,0,0,104.5,99.1a15,15,0,0,1-1.22,1.29h0c-2.38,2.26-5.06,4-4.63,8.87,5.44,4.3,7.31,12.59,9.66,15.91-8.73-10.94-5.94,1.06-17.06-14.05.21,1.17,1.36,3.51,3.9,5.88-1.4-.05-3-1.28-5.12-4.8-.57,4.52,4.23,7.58,1.86,9.77-1.77-1.81-2-3-3.84-5.31,2.3,4.66,4.61,9.31,1.18,9.71-.87-1.08-2.29-2.15-2.08-2.75-2.51,4,3.63,14.74-3.26,15-6.7-8.8-3.78-1.32-10.72-7.81l.07,4,4,2.46c-1.81,1.61,1.62,8-2,7.28l-1.52-4-1.88,4.49,4.35.71c1.78,5.16,8.74,8.24,4.62,8.66-.23-1.14-1.76,1.64-6.63-1.4,1.32,3,2.72,6-.2,5.66-2.49-1.79-7.25-7.6-8.9-8.81,4.73,6.22-2,5.61,2.28,12a36.87,36.87,0,0,0-5.11-5.28l3.95,5.21c-2.25-.64-3.09-1.22-5.81-4.12-3.17,1.59,9.39,7.62,2.9,6.87-.16-.59-1-1.16-1.2-2.3-4.72,1-2.4,8.39-7.23,8.83-7.65-5.84.54-3.93-6.14-8.63-1.22,2.52-1.05,6.48-1.23,10.07s-.65,6.85-3.23,7.92l1.42,0c9.15,9.65-6.94-1.48-4.74,4.15-.76-1.46-4.68-5.4-3.77-4.31-4,1.05-2.53,7.47-3.07,14.24L32,191.58c-3.67-.6-5,2.75-7.69,3.3,2.07,2.85.79,3.39,5,6.27-19.11-8.44-1.21,16.77-17.37,10,.47-.56-1-3.34-1.45-2.93l-1.18,6c4.59,3.69,3.07,1.92,7.17,4.22,2.11,2.85,3.1,5.76,2.23,6.71-1.28-4.36-6.93-6.4-10-7.89,1.43,1.1,2.66,2.7,4.06,3.88-9.51-5.11,8.38,8.36.7,6.29l-2.13-2.24c.21,2.09,2.35,5.79.69,6.28-5.42-4.15-1.33-3.22-5.38-7.09-1.13,1.81,6.66,11.76.4,8.56-.79-1.94,0-2.89-.73-4.82-7.28-3.89-5.94-2.34-7.92-2.07h.24l-.48,0h-.38l-4.2.14,2.2.8c11.09,13.68-.78,6.4,4.64,16-5.42-9.23-4.09-4.28-9.48-9.58h0l-1.08-1.12-1.09-1.12h0l.6.66c.38.41.72.77,1,1.09l.47.47c-2.18-.77-4.88-1.39-6.21-3.14,3.45,5.43-5.5-1.25-.39,6.62-1.9-1.59-1.39,1.16-5.72-3.32,0,2.92,3.53,2.53,5.7,4.77,4,8.18-12.89-1.13-7.55,10.26a23.26,23.26,0,0,0,2.66,7.57c-.36.5-.47,1.52-.3,3.24.56,1.71,1.44,3.77,2.22,5.74A17.32,17.32,0,0,1-22.31,260c-4.12-.91-4.68.7-3.92,4.08-1.33-1.75-2.95-2.68-5.42-4.11-.58,1.61,6,6.86,1.86,5.94A82.77,82.77,0,0,1-36.1,258c.43,2.92,2.62,7.4,3,10.33-3.55-2.52-4.07-5.27-5.7-7.67,0,2.72-.78,6.3,2.91,10.93-.36.53-.71,1.07-1,1.65a46.92,46.92,0,0,0-7.69-7.18c4.43,5.51,3,4.74,6.57,9.24-.33.64-.66,1.28-1,1.94a17,17,0,0,1-2.37-2c1.34,1.73-2.5,0,1,4l.28.16a31.79,31.79,0,0,1-5,7.84c-1.06-2.36-1.56-5.26-4.25-6.68-4.68,8-15.49,8.37-24.89,8.17l1.33,7.94c-.65.3-2.88-2.19-3-3.82-4.13-.8,2.33,4.12,2.59,7.39-1.23,1.36-4.22-2.45-4.44-4.94-1.35,8.23-6.23,19.75-15.28,15.89l-.19-2.48c-5.4-.29,3.54,15.72-3.62,11.89v-1.54c-10,2.22-15.79,13.64-28,7.69,4.23,10-10.74.77-3.69,14-8.57-3.59-8.53-6.69-17.83-7.07-2.17.46,2,9.66.54,12.32l-4-6.74,1.09,8.87L-155,341l-1.1,2.95c1.07-.09,3.55,2,4.55,4-1.5,5-10.74-.07-12.83-3.5l-4.48,10.22a8.14,8.14,0,0,1-.73-5.12c-.76,5.23-4.77-7.79-4.91.08,1.4,1.26,2.05,4.21,2.75,5.64-4.26-3-8.61-.57-10.81,3l-2.07-5.05c-6.46,2.14-10.94,9.23-17.49,12.87,3.58.85,7.69,9.29,6.22,11.17l-4.86-6.77c1.3,5.16,3.54,1.58,4.12,8.47-2.92.56-6.3-7.25-6.24-10.4l-1.54,4.19c-1.4-2-1.35-3.58-2.73-6.42,1.34,5.17-9.21-4.32-6.55,4.44l-1.38-2c-6.56,3.64-8.11,7.8-13.22,11.17,3.43,6.28.56,6.09,1.83,12-5,.23-12.16-2.21-16.57,1-1.57,5,2,5.82,2.61,10.36-3.44-5.53-7.85-2.33-7.72-7.79-5.13,4.13-6.59,5.23-11.15,13.89,2.09,1.87,3.54,2.39,4.18,4.58-.77,1.67-4.3-.7-5.66-3.53v-.79c-3.17,12.82-27-5.32-27.59,8.64l-3.16,9.91c-3.61.74-.58-5.31-4.82-7.54-1.81,13.52-12.09,5-14.42,14.68a18.43,18.43,0,0,0-4.76-3.65c-2.84-4.69-5.41-9,2.15-8.08l4.19,7.67c1.29-8.4,6.33-13.22,11.47-17.87s10.37-9.15,12.18-16.84c.78,1.95,2.52,3.77,1.56,4.65,6.27,2.42,7.67-7,4.25-10.64,1.87-1,3.47,2.91,6.14,3.85,4.52.63-.32-10.55,5-7.19a2.06,2.06,0,0,1,.76,1.68c.64-2.82,6.07-4.74.55-8.24,5.93-1,4.75-8.85,10.5-8.57-3.54-7.54,8.81-3.08,1.78-11.76,7.62,8.62,12.71.82,11.33-5.3,1.61,3.27,4.46.78,6.83,5.15a4.51,4.51,0,0,1-.39.37l.47-.27a.58.58,0,0,0-.08-.1c2.51-2.57,3.46-6.37-1-10.29,7.12,2.84,7.67-1.43,8.32-5.12s1.37-6.77,8.67-1.48c.93-2.94,1.88-5.77,2.93-8.45s2.14-5.23,3.3-7.69a115.24,115.24,0,0,1,7.5-13.65c7.31,8.84-7.18,7.9,1.12,16.64,1.81-4.78,2.08-9.88,3-14.29s2.46-8,6.79-9.94c2.79-.33,2.25,4.63,2.93,6.63,1.88-4.74,5.37-7.41,8.64-10.13s6.39-5.42,7.47-10.4c-5.58-4.38-4.64-14.68-6.45-18.37,7.19,12.31,8.38-2.55,17,14.56a9.05,9.05,0,0,0-2.79-6.72c1.85-.19,3.52,1.07,4.82,5.13,2.63-5.77-2.45-8.8,1.65-12,1.57,2,1.38,3.39,2.83,6-1.07-5.45-2.12-11,2.63-12,.67,1.21,2.05,2.33,1.57,3.11,5-5.47,1.8-18,11.11-19.38,4.84,10.14,4.44,1.12,10.61,8.33l1.74-5-4.23-2.55c3.14-2.28,1.71-9.8,6.25-9.37l.08,4.85,4.71-5.83-5.47-.37c.18-6.28-7.62-9.3-1.87-10.35-.25,1.42,3.2-2.29,8.19,1-.28-3.57-.59-7.33,3.15-7.15,2.41,2,5.79,8.78,7.38,10.11-3.11-7.28,5.52-7.18,3.18-14.75a23.54,23.54,0,0,0,4,6.14l-2.52-6.16c2.67.59,3.47,1.24,5.58,4.63,5.06-2.27-8.49-8.72-.23-8.35-.11.73.66,1.36.38,2.78,6.81-1.63,7.8-10.61,14.49-11.5,7,6.78-2.88,4.92,3.43,10.33,3-3.17,4.89-8.12,7.17-12.55s4.82-8.46,8.87-9.89h-1.87c-6.57-11.59,8.36,1.53,8.72-5.28.17,1.79,3.06,6.49,2.48,5.19,5.93-1.35,7.78-9.18,12.63-17.51l1,3.48c4.48.7,8.36-3.33,12.25-4-1-3.48,1.07-4.14-2.73-7.69,10.07,5.28,13,.13,15.79-5.17s5.2-10.93,13.73-6.57c-1,.67-.81,4.07,0,3.59,1.82-2.37,3.62-4.81,5.47-7.15-3.64-4.66-2.8-2.47-6.71-5.44-.92-3.54-.26-7.07,1.54-8.15-1.24,5.29,5,8,8.05,10-1.17-1.4-1.72-3.38-2.79-4.88,9.2,6.66-5.5-10.49,3.34-7.6l1.31,2.81c1.12-2.52.82-7.09,3.37-7.6,4.35,5.31-.44,4,2.3,8.85,2.71-2.1-.79-14.58,5.35-10.29-.29,2.37-2.1,3.43-2.37,5.81,7,5.15,6.27,3.23,9.06,3.05l-.3,0,.63,0h.37l5.81.19-2.36-1.13c-5.14-17.16,5.5-7.52,5.12-19.49.62,11.48,2.38,5.47,5.77,12.23l0,0,1.29,2.85A26.73,26.73,0,0,0,35,134c2.33,1.11,5.46,2.12,6,4.31-.72-6.73,6.34,2,5.19-7.73,1.37,2.07,2.64-1.21,5.16,4.52,2.11-3.42-2.83-3.36-4.1-6.21.3-5,4.35-4.35,8.44-4.16s8.28,0,8.93-7c3.65-7.41.78-15.4,4.4-22.07A7.11,7.11,0,0,1,71.77,101a14.28,14.28,0,0,1-.06,3.45c4.75,1.63,6.71-.14,8.25-4.16.43,2.22,1.88,3.54,4,5.54,2-1.76-2.65-8.8,2.06-7.14.76,2.73,2.14,7,2.32,10,1.63-3.44,2.15-8.93,3.93-12.39,2.71,3.47,1.31,6.71,1.64,9.74,2.21-3.4,6.34-7.66,4.21-14.26L95.84,91c1.07,1.2,2.38,5,2.17,6.18-.28,6.13-5-.12-6.28-2.26L93,92.48c-8.72-11.89-7,6.27-11.35,7.6L78.43,89.83l-.06,9.94c-2.15-2-5.51-6.9-4.25-9.34-5.34-3.11-.81,4.67-6,.82a1.83,1.83,0,0,1-.75-1.68L66,93.85c-.49-2.26-4-6.35-1.53-5.93-8-2.64-4.41,11.42-10.12,5.39l.12-.8c-5.32,6.94,3,7.2,2.14,18L43.84,95.67l3,7.17c-.86.15-2.56.42-3.8-2.44-.1,6.16,2.09,2.7,3,8-6.88-4.25-7.87,8.21-14.71-2.13,1.65,5.83,5.53,2.12,3.86,7.76-7.6-11-3.13,4.37-9.29.83-2.43-6.5,2.37-5-3.83-8.58,3.84,11.13-7.39,1.34-8.95,4.81,4.51,8.07-3.82,6.69-6.69,11.93-.65-1.41-3.4-1.33-6.68-.85s-7.14,1.22-10,1l-.68-1.4c4,8.48-1.1,9.51-3.17,13-2.78-4.84-3.38-7.06-3-10.21L-20,126.37c.88,3,.8,4.85-.5,6.92l-2.93-6.4c-3.65,2.73-3.37,11.8-10.76,10.91,3.2,5.68,13.5,12.95,10.68,19.84-2-2.75-5.2-7.46-4.93-9.65-.12.93-.13,3.14-1.66,2.49l-1.1-6.3c-3.61-.81,1.48,4.92-.59,5.55-2.65-4.26-3.24-2.2-5.11-5.73.2-.69,2.66.78,2.3-1.31-2.5.5-6.54-.5-9.37-3.18,1.71,2.29,3.63,5.71,2.51,7.2-3.58,2.75-4.54-4.25-8.15-5,1,3.52-3.41,2,.6,8.4-1.12.68-3.24-2.13-4.76-3.55-.17,4.05-8.66,6.71-2.08,12l.79.12c0,.19-.11.27-.13.48-1.17,5.18-5,6.51-9.17,7.36s-8.63,1.29-10.88,4.73l-1.39-2.1c-2.15,4.88-7.34,7.11-6.93,13.37-1.1.75-5.2-2-6.43-4.78-1.77,3.52-.47,6.05-7,5.48.35-5.57-3.21-2.49,1.09-4.65-4.94.77-8.1-1.92-8.07,6.5-2.36-6.21-7.45-4.65-8.08-1.83l5.24,1.92c-1.42,2.16-3.47,2.91-5.52,3.7l-4-7.55c-6.76-1.48-7.65,4.46-8.71,9.63s-2.4,9.4-10.35,4.56c1.56,6.21,6.52.38,8.85,7.25-4.07,1.58-14.86-5.55-16-4.78-7.51-.28,3.06,13.18-3.71,14.27,2.44,1.93,7.87,7.93,6,12.92-4,1.65-11.82-6.93-11.15-10.48.66-.81,1.63-.35,2.22.49.42-1.7,1.07-3.83-2.24-5.41l1.38,2.74c-3.54-1.19-8,2.62-9.93-2.14-.7,3.64,1.22,4.54,3.57,4.59A8.68,8.68,0,0,0-162,217.5c-1.6,1.43-3.11,3-6.23,3.62,1.73.75,4.56,3,3.84,3.57-8.78,2.13.68,6.74-2.87,11.2-5.33-1.67-5.92-9.32-7.93-2.83-4.64-.32-5.57-5.82-6-8.6-.44,7.7-9.88,3-12.86,4l.58-3.6a5.42,5.42,0,0,1-2.48,3.8l5,3.72c-1.9.18-3,1-4.52-1,1.21,4.1,7.29,7,8.18,13.26-3.58-1.06-2.91,6.57-8.54.84,6.19-1.87-3.35-5.05-2.72-9a3.87,3.87,0,0,1-2.59,1.08,2.26,2.26,0,0,1-.84-2.06c-9.51-1.5,3.46,8.86-1.73,12.93-2.23-4-6.64-5.62-6.85-4.18,2.11-1.64,5.78,5,6.13,9.2-5.5,0-1.85,4.95-3.81,6.05l3-.34c2.24,4,.25,4.89-1.08,7.85a3.05,3.05,0,0,1-1-1.89c-.29,1.71-2.43,1.38-4.79,1-3-.52-6.45-1.14-6.44,2.37-3.58-.95-5.66-6.32-8.42-6.67,0,3.6-1.79,3.64-3.78,3.35,1.19-.78,2.38-1.54,3.56-2.3l1.34-11.81c1.6-1.46,5.22-.42,4.57,2.25,8.72-4.64-3-3.71-1.79-9,3.49-4.18,8.07-2,7.21,2a124.85,124.85,0,0,1,7.35-13.61,145.66,145.66,0,0,1,10.23-14.68,86.53,86.53,0,0,1,6-6.77,81.68,81.68,0,0,1,6.41-5.91,43.3,43.3,0,0,1,13.51-7.87l-1,4a12.79,12.79,0,0,0,3.54-3,12.16,12.16,0,0,0,2-3.42,30.58,30.58,0,0,0,1.41-7.48c.57-5,1.41-9.52,8.48-11.15l-.95,2.62c3.06-2.16,6-4.52,9-6.89s5.91-4.79,8.8-7.27,5.74-5,8.6-7.47c1.43-1.24,2.85-2.47,4.25-3.71s2.88-2.36,4.31-3.53a155.24,155.24,0,0,1,17.32-12.38c1.47-.86,2.93-1.69,4.41-2.44s3-1.39,4.5-2a51.27,51.27,0,0,1,9.15-2.75c-1.61-5.56,4.93-9.11,10.88-12.89,6-3.61,11.53-7.47,7.85-14.08,9-2,12.94-1.75,17.35-2.24S-43.09,100-32,95.23c5.53-3.07,2.5-13.07,8.19-18.79l4.54,6.39.76-2.24h0l.85-2.52a10.77,10.77,0,0,1,2.5,2.17l-1,3.48c7,9.55,12.89,20.4,23.71,22.3L6.94,97.2l4.88,3.46L8.74,103.6c5.28,2.69,3.46-2,2.71-5.6,2.24,2.11,4.13,3.33,5.63,3.59L13.81,89.68c3.38,3.23,4,8.54,8.24,8.45-1.5-5.54-8.26-6.68-7.45-11.77,5.27,2.67,7.48,6.52,6.78,1.17,2,1.92,2.83,3.65,2.94,5.24,0-4,4.11-5.1,1.27-10.59,6.13,3.58,5.53-6.69,12.38,2.18.29.69.56,1.13.8,1-.29-.41-.53-.63-.8-1-1.07-2.59-2.09-9.64-.58-11.45C42.55,86,44.62,68.08,52.8,80c-5.16-11.35,5.4-11.29,5.49-20,.3.79.87,2.23.6,2.58,3-1,5.88,1.16,8.79,1.65-6-8-3.64-12.82-5.48-19.23,9,5,5.58,10.54,12.34,17-5.24-6.14.07-10.46-5.19-14.85,6,2.77,3.78.65,10.17,6.1-7.47-10,.77-3.36-2.18-10.83,7.16,2.09,8.22,8.36,9.44,2.49,4.13,1.55,3.7,7.59,3.7,7.59,3.81-2.84-4.08-8.53-6.72-13.34,2.7-5.64,6.41,3.71,10.94,6.21,1.16-4.16-2.2-12.56.07-13.94,1.13,1.07,1.89,1.18,2.65,3.06-1.84-8.15,8.34-7.31,5.76-17.31a8.94,8.94,0,0,1,1.51,1.06A72.24,72.24,0,0,1,99.63,13q2.19-1.57,4.38-3.19c2,2.76-2.29,2.72,1.07,6.8.75-2.45,1-5.82,1.47-8.66h0c1.6-1.18,3.22-2.39,4.84-3.6,2.76,4.7-4.68,5.76,2.78,8.55l-6.07.73c11.69,8-3,1.26,9,10.22C124,21.4,120.18,15.56,127,13.2c-1.88-4.67-4.9-5.16-6.78-9.83C121.71-6.56,132.79,6.2,136.75,6c-1.52,1.43-2.05,3.55,0,7.27,1.1,7.46,7.71,12.7,8.5,19.47-4.34-.48-7-5.94-7-5.94-4.65.65-5.21,2.89-4.22,6.72-1.55-1.59-3.42-2-6.25-2.75-.58,2.24,7,5.93,2.33,6.56-2.11-1.86-5.56-4.69-7.39-7a7.49,7.49,0,0,1-.12-1.53L121.53,28a5.24,5.24,0,0,0,1.21,2.28c.6,3.43,3.23,8,3.75,11.52-4.08-1.62-4.77-4.79-6.7-7.07.1,3.62-.72,8.8,4.66,13.13l2.3-.3c-1.52-.51-4.67-3-5.18-4-3.25-5,4-2,6.19-.85l.37,2.47c13.49,5.8,2-7.85,4.73-10.75l8.23,6.85-5.47-8c2.8.69,8.17,3.24,8.53,5.7,5.91.3-2-4.05,4.27-3.1A2.12,2.12,0,0,1,150,37l.27.87A4.34,4.34,0,0,0,150,37h0l-1.29-4c1.62,1.61,6.63,3.47,4.46,4.11,7.75-1-2.73-10.85,5.09-8.29l.34.68c.44-7.66-6.32-4.57-11.49-13.63l18.17,6.94-6.31-4.57c.61-.46,1.82-1.35,4.34.48-3.2-5-3.12-1.37-6.64-5.25,7.8.76,2-9.67,12.95-3.95-4.43-4.06-5.56.43-7.22-4.78,11.93,6,.19-4.73,7-4.22,5.4,4.35.78,5,7.61,5.49-9-7.58,5.27-3.82,4.71-7.2a40.73,40.73,0,0,0,4.5,2.34c.63-.44-5.37-4.34-7.9-6.18,2.31,1.86,3.24,3,3.4,3.84C173.83-6,181.29-8,180.9-13.31c2.52,1.84,8.58-4.41,13.54-6.15l1.26.9c-7.6-5.49-3.93-8.17-4-11.78,4.73,3,6.34,4.6,7.63,7.3l1.44-2.47c-2.21-2.13-3.11-3.7-3.06-5.84l5.6,4.21c1.64-3.46-3.08-10.81,3.44-12.61-2.89-1.91-7.66-3.48-11.65-5.54l-.94-3.59a10,10,0,0,1,2.74,2.53c-.3-.63-.81-1.61-.53-2.12a4,4,0,0,1,1.19,2,2.76,2.76,0,0,0,1.28-.27L201.11-44c3.38-.57-3.64-3.55-2.25-4.8,4.29,2.61,3.75.72,7,3,.18.64-2.59.26-1.25,1.87,1.81-1.27,5.61-1.81,9.29-.54-2.54-1.32-5.79-3.49-5.59-5.09,1.64-3.45,5.84,2,9.21,1.43C215-50.7,219.4-50.92,213-54.85c.61-.93,3.72.69,5.68,1.37-1.82-3.4,3.93-8.38-4-10.59l-.71.16c-.09-.16,0-.25-.12-.44a8.63,8.63,0,0,1-.41-2,6.33,6.33,0,0,1,0-1h-88.7a2.76,2.76,0,0,0-3.52,0H69.69C62-64.95,54.44-59.16,46.86-52.9,41-48.07,35.14-43,29.2-38.93a58.34,58.34,0,0,1-7.59,4.57c-.33.17-.66.33-1,.47-.78.37-1.57.71-2.35,1q-.54.21-1.08.39a6.55,6.55,0,0,1-.82.27l-.49.16c-.21.06-.42.13-.63.18l-.48.13-.68.17-.4.09a7.92,7.92,0,0,1-1,.19,11.06,11.06,0,0,1-1.13.18C7.37-34.16,1.76-33.33-.34-37c5.62.43,9.49,2.55,6-1a11.11,11.11,0,0,1,5.29,3c-2.31-2.85.36-4.71-4.91-7.88,6.82,1,.78-6.19,11-1.61-2.25-1.56-6.88-6.34-6.64-8,11.07,8.1,3.22-5.25,16,1.34-5.07-3.46-5.48-5.81-5.19-8.09.28-2.12,1.21-4.17-.51-7.06-.11-.18-.23-.37-.36-.56.11.09.26.19.4.31l.29.24h0l.21.17.23.21.15.13c.31.29.52.53.5.68l-.15.11c.11,0,.15-.05.16-.11h0c1.87-1.39,5.31-.49,7.89-.76l-.81-.43c-.61-.32-1.19-.65-1.71-1H-50.88l-.78,1q-1.4,1.74-2.88,3.52l0-3.52v-1c-.73.27-1.46.59-2.22,1-8.29,4-17.6,13.1-25.29,17.64,0,4.48-4.55,7.58,1.24,9.3-17.69,2-26.85,13.05-35.36,24.25S-132.66,7.22-148,9.49c2.38-2.07,3.76-7.17,1.84-5.56l-15,17c5.15,3.32,4.55.8,11.1,1.24.09,4.48-3,10.63-7.17,14.25,5.11-9.52-6.19-7.11-11.64-6.76,1.72.89,1.89,3.36,3.35,4.52-15.69-.32,6.22,10.25-10.49,15.31l-1.37-2.89c-3.51,5.09-5,11.8-10.44,15.35-6.48-3.38,2.73-6.56-.63-11.06-6.59,6.25-5,21.44-15.68,21.7,1.65-4,5.81-7.6,7.49-11.54-12-.16-11.47,2-17.28,5.47l.61-.3-1.18.62.57-.32L-221.81,70a46.56,46.56,0,0,0,6.36-2.7l-11.81,6.32,4.37-1c1.58,10.41-2.21,14.83-6.89,19s-10.16,8.19-12,17.6c3.75-18.09-2.41-6.38-6.7-12.88-4.33,1-10.38,3.19-10.57.45-1.25,9.43-12.28,4.45-13.76,18.08-2-1.53-5.9,5-8.88-.67-5.67,7.79,4.56,1.69,6.06,4.52-2.52,8-10.56,11.84-18.87,16.61a64,64,0,0,0-12.07,8.37,33,33,0,0,0-5,5.81,30.59,30.59,0,0,0-3.56,7.57c-9.78,15.89-6.5,24.13-15.53,38.73-6.79,1.05-3-9.71-3-9.71-9.05,3.69-13.52,9-17.67,16.93-.27-2.74-2.85-2.83-6.64-3-4.45,5.32,3.07,9.68-5.94,13.46-.85-3.06-2.55-7.61-2.13-11.93-4.17,7.36-6.59,16.29-10.95,23.77-4.65-1.48-1.06-8.2-.95-12.29l-4.49,6.64c-1.55,2.38-3.09,4.88-4.38,7.33-2.59,4.9-4.16,9.65-2.73,13.08l4.43-1.93c-1.87-.32-3.69-4.12-3-6.22,1.84-9.54,9.85-6.67,11.94-5.23l-3.05,5.38c3.66,1.47,6.42,1,8.66-.57s4-4.32,5.58-7.5c3.14-6.35,5.62-14.46,10.18-18.39l3.88,11.05c.85-5,1.69-10,2.61-14.89,3.81.14,9.2,3.14,6.07,8.38,9.81-2.22,2.83-8,12.18-8.92,1.22.08,1.31.71,1.06,1.53l3.82-8.09c.37,2.74,6.19,4.41,1.43,6.89a20.62,20.62,0,0,0,8.35-6.05,37.09,37.09,0,0,0,4.49-7.21c2.35-4.61,4-8.26,8.81-7.29l-.46,1.33c12.69-16.92-3.9-7.05,1.28-24.44l20.8,6.86-3.79-7.08c1.77-1.27,5.3-3.73,6.82-.91,2.27-9.35-3.29-1.55-3.28-8.4a17.52,17.52,0,0,0,8.31-4.08c2.5-2,4.8-4.41,7-6.54,4.44-4.26,8.57-7.35,13.59-3.54-1.2-6.88-10.39,3.29-5-7.19,5.64,3.86,7.61,1.3,9.58-2.48s4-8.69,9.53-9.58c2.41,7-6.68,10.31,4.45,8.57-3.47-12.45,15.4-10.38,19.88-17.31a14.63,14.63,0,0,0,4.09,3.15c1.82-1.19-2.35-7-3.79-9.93,1,3,.76,5.12-.29,6.78-5.84-7.16,10.45-14.35,18.48-25.5,1.42,2.9,22.35-12.71,34-18.28l.73,1.4c-4.26-8.63,6.64-15.68,12.48-23.24,3.36,4.49,3.52,7.27,1.29,12.46l6.65-5.75c-.37-3.63.7-6.6,4.35-11.11l2.84,6.74c8.67-7.85,12.62-21.55,27.16-27.68-3.55-5.53-20.87-6.13-11.47-19.73,2.58,2.19,6.63,6.12,5.07,9.76.76-1.62,1.92-4.89,4.63-5.45l-1,8.64c6.92-2.44-.45-6.1,4.1-9.22,3.15,3.91,5.41.12,7.38,3.68-.75,1.27-5,1.5-5.33,4.36C-96.65,4.1-89,1.54-84.68,2.87-86.93,1-89-2.3-86-5.72c8.74-7.8,7,2.06,13.84-.36-.05-4.49,8-6.52,3.32-12.4,2.65-2.17,5.38.11,7.7.81C-58.58-24.1-40-36.55-50.33-38.3l-1.54.6c.13-.32.38-.54.55-.89,4.94-8.7,12.85-14.34,21.23-19.47v0l5.1,1.23c-1.83,1.75.05,8-5.33,5.34.79.58,4.7,2.73,1.86,2.56l-3.75-1.44,4.25,7.83c-4.28,3.08-14.58-6.5-17.68-.63a6.27,6.27,0,0,0,1,2c-.73.53-1.5,1.08-2.29,1.55l2.67-1c2.51,3.44,7.75,8.09,10,8.15.53-.83,3.23-1.42,7-.07l1.18,2.76c11,4.53,21.77,10.17,31.3,8.39L-.29-27.27l5.76,1-.33,1.3-.39,0-.38.06L4-24.76l-.38.13a4,4,0,0,0,.31.27c.09.08.19.14.27.2l.33.18.32.15h0l-.12.46a8.35,8.35,0,0,0,2-.05h0l.56.05.64.05.43,0h0a2.33,2.33,0,0,1,.55.12.34.34,0,0,1,.15.06,1,1,0,0,1,.53.46.31.31,0,0,1,.06.13,1.33,1.33,0,0,1,0,.19,1.94,1.94,0,0,1,0,.24,4.11,4.11,0,0,1-.26,1.22A246.33,246.33,0,0,1-19.36,1.36c-10.23,6.8-21,13.08-31.81,19.33-21.73,12.42-44.32,24-65.34,36.89-15.11,9.81,5.82,24.89-18.74,29.8l.11-10.58c-11.49,14.91-26.36,25.94-41.27,36.77s-29.67,21.71-41.18,35.85c.51-2.83-1-4.86,1.79-6.94-9.65-.3-22.19,16.59-19.25,20.61-4.73,2.9-3.77-2.79-8-2.73-4.08.86-6.65,5.25-9,9.16s-4.59,7.33-8,6.15c-.73-.24-.35-1.31.21-2.38-4.1,5.22-16.62,12-9.42,14.4-12.56,5.51-18.16,18.09-29.1,21.32-.61,10.44-20.31,11-15.18,21.11-6.35-9.67-24,7.14-27.28,16.6.05-4.47-8,1.7-8.36-4.12-7.43,6.07-13,13.19-8,16.79-22.41.19-21,30.66-39.73,23.1A745.94,745.94,0,0,1-451.68,343c-6.49-9.52,21.39-18.59,13-27.3-16.06,18.86-20.74,35.36-41.21,48.37-5.84,2.7-.38-6.1,0-8.95-7.95,9.48-17.24,16.66-26.15,23.78S-523.45,393-529.83,402.3h0a0,0,0,0,1,0,0v0c7.36,2.93-3,20.8-2.48,25.54-4.12-14.74-18.77,10.93-21.79-10.65-1.54,2.54-2.7,6.68,0,9-3.85,1.85-6.17,1.11-5.42-4.64-10,11.85-2.3,12.71-13.07,21.36-1.56-2,0-4.5-.79-7.7-2.3,8.24-4.63,16.47-15,22.23-.39-1.46-2.28-2.16-.66-3.88-14.43,13.28-17.69,31.39-37.39,41.54-2-12.58-8.06,2-15-4.62l-7.33,9.7,6.6.54c-8.11,6.45-10.75,17.61-19.58,20.9l3.43-7.93-13.79,13.77,10.75-4.23c-4.95,10.45,8.52,8.54-3.78,15.29,1.54-2.53-8,6.52-15.77,5.65,0,0,0,0,0,0-2,5.59-4,11.4-11.43,14.47-3.47-1.07-5.47-9.1-7.76-9.84,1.15,9.08-16.28,16.73-16.78,26.9-.21-2.74-2.84-6-3.92-6.28l.86,7.67c-5,1.48-6.18,1.17-8.12-2.39-11.62,8.15,10.32,6.41-4.35,12.89-.2-.69-.38-1.4-.54-2.1a6.84,6.84,0,0,1,.75-1.64c-.33.2-.63.41-1,.61-1.11-6-.07-12,6.8-11.92l1.36,2c4.6-1.61-10.64-11.8-2.84-11.1l.75,1.28c7.18-5.29,6.35-16.77,19.21-16-8.39-6.86,8.54-4.26-3.74-12.88,8.84.08,10.34,2.68,18.18-.15,1.56-1.11-6.37-7.36-6.45-10.07l6.57,4.27-5.22-7,8.7,3.84-.55-2.84c-.83.43-3.89-.48-5.7-1.83-1.18-4.67,8.88-3.57,12.26-1.41l-1.31-10.06a9.21,9.21,0,0,1,3.11,4.08c-2-4.7,7.67,4.88,4-1.75-1.76-.57-3.72-2.82-5-3.78,5,1.1,7.41-2.36,7.52-6.07l4.14,3.52c4.33-3.88,4.59-11.28,8.26-16.48-3.36.46-10.79-5.28-10.47-7.33l7.24,4.07c-3.53-3.9-3.67-.15-7.43-5.76,2.13-1.43,8.65,4,10.11,6.68l-.74-4c2.13,1.27,2.81,2.57,5.32,4.5-3.57-3.9,9.63.64,3.26-5.87l2.11,1.29a22.92,22.92,0,0,0,3.21-7.08,24.82,24.82,0,0,1,2.45-6.52c-5.8-4.21-3.32-4.94-7.15-9.53,4.08-1.8,11.11-2,13.27-6.07-1-4.7-4.39-4.3-7-7.95,5.43,3.59,7.59-.5,10,4.17,2.35-5.1,3-6.51,2.8-15.25-2.61-1-4-1-5.6-2.61-.11-1.65,3.93-.72,6.36,1.27l.34.66c-1.62-6,4.9-6.87,10.91-7.81,5.78-.91,11.05-1.92,8.2-7.85l-1.84-9.41c2.67-1.72,2.86,4.35,7.4,5-2.29-6.05-.33-8,1.88-9.62s4.78-2.71,3.63-7.17c9,4,11.12.72,12.67-3.28s2.53-8.71,9.2-7.33l-3.79-2.49c-2.57-3.94,3.19.09,4.69-.17-2.87-2-4.23-1.15-5.59-3.42,3.58-13.84,21.89-17.25,33.36-25.18,4-3.07-16.55-16.81-4.26-14.9l5.46,6.63a15,15,0,0,1,1.28-8.58,25.57,25.57,0,0,1,4.53-6.07c3.42-3.72,7-7.28,6.75-13.75,1.13,1.68,3.06,3.3,2.45,4,6,2.3,5-5.64,1.22-8.85,1.4-.81,3.7,2.59,6.24,3.49,4.07.73-2.72-9,2.64-5.92a2.58,2.58,0,0,1,1.06,1.46c-.11-2.38,4.13-3.83-1.46-7,2.45-.33,3-2.18,3.49-3.89s1.12-3.25,3.66-3c-4.78-6.51,7-2.29-1.16-10,8.6,7.63,11.22,1.16,8.6-4.12,2.15,2.85,4,.83,7.12,4.64a1.87,1.87,0,0,1-.26.3l.35-.22-.09-.08c1.58-2.11,1.52-5.32-3.26-8.82,13.58,5.3-2.06-14.66,13.06-5.2.11-2.48.26-4.89.53-7.16s.59-4.44,1-6.52a72.42,72.42,0,0,1,3.21-11.51c8.44,7.78-4.3,6.59,5,14.31.85-8.09-4-17.51,2.52-20.64,2.3-.25,3.07,4,4.14,5.77.9-8.14,9.32-8.95,8.61-17.57-5.84-3.83-7.65-12.6-10.09-15.84,9.2,10.59,6.5-2.1,18.18,12.7-.21-1.23-1.39-3.6-4.09-5.82,1.53-.16,3.28.95,5.43,4.47.74-5-4.37-7.64-1.71-10.36,1.86,1.71,2.05,2.93,4,5.22-2.33-4.72-4.65-9.49-.9-10.42.89,1.06,2.37,2,2.15,2.71,2.84-4.69-3.28-15.64,4.21-16.86,6.82,8.78,4,.93,11.2,7.16l.13-4.32-4.25-2.19c2-2-1.25-8.53,2.7-8.19l1.4,4.21,2.37-5.11-4.72-.27c-1.56-5.45-9-8-4.41-9,.18,1.23,2.07-2,7.17.77-1.22-3.1-2.5-6.33.66-6.26,2.58,1.7,7.31,7.56,9,8.69-4.67-6.3,2.59-6.37-1.52-12.92a31.09,31.09,0,0,0,5.12,5.26l-3.86-5.31c2.41.47,3.26,1,6,3.92,3.6-2.07-9.58-7.41-2.56-7.26.11.64.94,1.18,1.1,2.41,5.23-1.55,3.38-9.51,8.7-10.45,7.76,5.73-1,4.38,5.85,8.92,3.12-5.7.92-17.26,6.81-20.05l-1.56.08c-8.88-9.89,7.39,1.07,5.67-4.9.69,1.56,4.47,5.55,3.61,4.44,4.46-1.44,3.61-8.39,5.06-15.9l1.9,3c3.92.44,5.79-3.37,8.81-4.09-1.88-3-.39-3.67-4.59-6.6,9.88,4.13,10.79-.46,11.35-5.29s.79-9.9,9.12-6.55c-.6.63.64,3.62,1.14,3.14l2.2-6.61c-.13-.1-.23-.19-.34-.29l1.32-.15.9,1.32c4.89-2.72,6.19-8.4,7.36-14.36,3.18,1.43,2.86.39,4.57.12h-.26l.43,0h.14l-.31,0,3.41.29a12.15,12.15,0,0,0-2.64-.34h0l4.52-.24-2.28-.83c-3.89-5.87-4.36-8.17-3.8-9.48a11.4,11.4,0,0,0,8.74.77,17.63,17.63,0,0,1,1.49,1.55l0,0,2,2.41c-.75-1-1.37-1.73-1.93-2.38,2.25.81,5.08,1.43,6.23,3.32-2.82-5.89,5.77,1.29,1.58-7.26,1.79,1.73,1.71-1.28,5.65,3.56.55-3.18-3.4-2.72-5.37-5.14a6.55,6.55,0,0,1-.26-1.09,16.65,16.65,0,0,1,8.85-2.63,3.39,3.39,0,0,1-1.19-.86c2.44-.46,4.16-1.86,2.68-6.78,0-.31,0-.61,0-.92,6.2,5.39,7.69,1.21,10.22-.32l-.45-.66c1.77.44,3.86,1,3.94-.51l-1.28-1.63c1.33,2.19-2,.63-3.9.37l-5.84-8.37h.27c6.05,3.37,9.46,2.34,11.86-.1.4.71.77,1.39,1.05,2a18.16,18.16,0,0,0-.22-3,26.43,26.43,0,0,0,2-3c.11-.17.2-.35.31-.52a38.08,38.08,0,0,0,1.38,3.67c.36-1.93,1.13-4.24.8-7a5.17,5.17,0,0,1,3.27-2.15,34.85,34.85,0,0,0,3.36,3.28c-.87-1.39-1.45-2.41-1.88-3.24A11.35,11.35,0,0,1-294,51.25c-.39-3.72,1.43-5.2,1.21-8.74L-291,45v-.41l2.35,3.29c5.51-1.8,8.24-2.7,12.67-8.13l1.94,5c3.33-1.9-8.39-19.63-5.78-22.09l7.19,8c5.24-4.17,16.33-.36,16-12.11.83,1.34,2.48,4,1.86,5,2.64-1.53,13.34-1.15,5.56-11.32,4.78,5.38,5.27-4.69,5.75-9.92l3.64,6.1c-2.75-9.16-4.1-11.23-2.07-15.75,1.25.15,3.56,3.48,2.29,3.48,4,.51-2-7,3.36-6.37l1.36,4.59c3.14-1.55,1.51-3.38,0-8.81.14-3.6,6.39-2.36,10.48,2.6-1.86-3.47-3.29-8.85-.57-8.53a7.76,7.76,0,0,1,2,4.31c3.73.29,4.34-2.6,4.92-5.16s1.12-4.77,4.75-3a11.09,11.09,0,0,0,3,3.1c-3.59,2.25-6.65,3.92-7.13,3.7,3.71,5.24,7.39,4.17,10.07,13.19-.35-5.71-2.21-17.39,2.53-16.89a14.36,14.36,0,0,1,1.68,1.59l.11.81c1.05.07,1.33-.85,1.29-2.15,1.56.24,2.62.48,3.59-.07,3.4,4.22,5.16,0,6.85-.8-4.12-5.75-1.58-6.23-6.56-9.72.28.31-.08.91-.82,1.73a1.81,1.81,0,0,0-.23,1.06c-.08-.17-.16-.38-.26-.6a43,43,0,0,1-3.54,3c-.84-3.82-1.29-7.21,2.64-5.08-1.81-4.33-3.6-8.83-4.35-11,7.73,6.81,14.8,8.52,18.81,13.23,2.43-6.51,9.52-9.68,5-22.84.38-2.34,3.68,2.16,5.35,3.58,0,1.64-1.05,2.09-.39,4,.75-4.68,7.15-6.48,2.58-14.73,5.72,1.26,2.89,8.46,6.68,4.08l1,2.81c8.75,3.26,9.16-4.15,10-11.23.16-1.32.34-2.63.58-3.85h-72a34.13,34.13,0,0,1-5.08,8.57c-1.16-2.33-1.76-5.2-4.54-6.51-2.21,4.12-6,6.39-10.48,7.67a60.8,60.8,0,0,1-14.22,1.94l1.79,7.88c-.63.34-3-2-3.22-3.63-4.16-.51,2.59,4,3.05,7.24-1.14,1.45-4.37-2.15-4.74-4.64-.87,8.38-4.9,20.2-14.26,17.05l-.37-2.46c-5.45.16,4.74,15.4-2.71,12.16l-.12-1.54c-4.93,1.52-8.61,5.24-12.63,8a25,25,0,0,1-3.11,1.82,14.76,14.76,0,0,1-3.36,1.2,14.35,14.35,0,0,1-8.18-.76c5.21,9.51-10.64,1.91-2.26,14.38-8.9-2.67-9.2-5.78-18.51-5.08-2.11.7,3.05,9.39,1.91,12.19l-4.74-6.25,2.08,8.7-7.13-6.39-.75,3.07c1.06-.21,3.77,1.58,5,3.48-.93,5.11-10.73,1.16-13.24-2l-3.25,10.69a8.08,8.08,0,0,1-1.34-5c-.14,5.23-5.71-7.14-4.9.68,1.54,1.06,2.56,3.91,3.44,5.23-4.62-2.44-8.61.61-10.33,4.47l-2.72-4.74c-6.13,3-9.6,10.72-15.6,15.25,3.66.34,8.91,8.14,7.71,10.19l-5.76-6c2,4.92,3.73,1.06,5.27,7.8-2.8,1-7.27-6.28-7.64-9.41l-.94,4.37c-1.68-1.83-1.84-3.35-3.61-6,2,4.92-9.79-2.94-5.89,5.35l-1.67-1.83c-6,4.56-6.94,8.89-11.53,13,4.34,5.7,1.47,5.91,3.61,11.57-4.9,1-12.29-.24-16.12,3.64-.74,5.18,2.92,5.44,4.24,9.83-4.29-4.91-8.11-1-8.86-6.45-4.39,4.92-5.65,6.24-8.71,15.52,2.37,1.51,3.88,1.78,4.88,3.84-.49,1.77-4.35,0-6.16-2.56l-.12-.77c-.51,6.68-7.63,6.34-14.3,6.24-6.41-.09-12.42,0-11.5,6.84l-1.31,10.35c-3.39,1.4-1.51-5.12-6.07-6.55.66,13.65-11,7.18-11.49,17.1-16.4-11.31-13.34,13-26.7,8.24l3.24,3.18c1.49,4.55-3.37-.54-5.07-.46,2.42,2.54,4.15,1.81,4.89,4.41-4.2,7-11.22,11.09-19.15,14.25s-16.65,5.49-24,9.23c-5.2,2.95,13,19.71.37,16.46l-4-7.66c-1.06,7.65-5.62,11.54-10.28,15.28s-9.27,7.51-10.63,14.55c-.81-1.9-2.48-3.77-1.64-4.51-5.89-2.88-6.82,5.85-3.49,9.55-1.69.79-3.34-3-5.86-4.17-4.23-1,.76,9.87-4.29,6.27a2.22,2.22,0,0,1-.8-1.64,2.11,2.11,0,0,0,0-.93,6.17,6.17,0,0,0,0,.93h0c-.46,2.59-5.4,3.94-.1,7.67-5.46.45-4,7.87-9.32,7.14,3.71,7.28-8,2.21-1,10.84-7.6-8.63-11.92-1.7-10.15,4.16-1.71-3.16-4.18-1-6.7-5.24h0a3.4,3.4,0,0,1,.34-.32l-.42.23,0,0,.05.06c-2.14,2.27-2.74,5.8,1.71,9.73-13.61-6-.69,16-15.17,5.41a106,106,0,0,1-9.81,27.44c-7.75-8.45,5.84-7.15-2.77-15.58-2.44,8.86,1.14,19.07-6.42,22.46-2.56.27-2.65-4.35-3.52-6.23-1.21,4.39-4.08,6.9-6.74,9.46s-5.13,5.17-5.41,9.86c5.74,4,6.44,13.64,8.66,17.06-8.45-11.37-7.3,2.46-17.83-13.33.05,1.34,1,3.9,3.59,6.22-1.67.23-3.41-.91-5.24-4.69-1.5,5.5,3.66,8.19.41,11.26-1.77-1.8-1.82-3.13-3.59-5.55,1.87,5.07,3.75,10.16-.43,11.31-.83-1.11-2.3-2.1-2-2.85-3.73,5.24,1.52,16.82-6.76,18.46-6.33-9.18-4.29-.84-11.32-7.22-.24,1.55-.45,3.13-.67,4.71l4.36,2.12c-2.44,2.31.46,9.28-3.77,9.17l-1.07-4.52-3.06,5.77,5,0c1.15,5.86,8.84,8.13,3.87,9.49-.06-1.33-2.38,2.32-7.62-.33,1,3.29,2.12,6.71-1.28,6.85-2.62-1.65-7.18-7.67-8.93-8.78,4.45,6.52-3.4,7.15.47,14a26.4,26.4,0,0,0-5.08-5.33l3.71,5.46c-2.56-.31-3.44-.84-6.13-3.78-4.08,2.55,9.72,7.28,2.14,7.66-.08-.67-.92-1.19-1-2.51-5.81,2.13-4.47,10.54-10.31,12-8-5.49,1.4-4.82-5.64-9.14-1.93,3.26-2.51,8-3.41,12.33s-2,8.42-5.26,10.26l1.66-.24c9,9.77-7.88-.33-6.36,6-.65-1.62-4.52-5.52-3.64-4.42-4.91,2.11-4.36,9.61-6.25,17.9l-1.92-3c-4.23,0-6.45,4.35-9.72,5.57,1.93,3,.31,3.94,4.76,6.55-10.53-3.15-11.68,2-12.43,7.31-.36,2.66-.65,5.33-1.91,7.1s-3.56,2.55-8,1.4c.64-.78-.65-3.85-1.2-3.25l-2.42,7.55c4.75,3.51,3.27,1.68,7.68,3.59,2,3,2.66,6.34,1.47,7.67-.75-5-7-6.27-10.43-7.4,1.5,1,2.66,2.71,4.11,3.84-10.3-4.15,8.4,8.35-.26,7.5l-2.12-2.24c-.1,2.48,1.77,6.52-.27,7.49-5.65-3.88-1-3.64-5.1-7.46-1.65,2.45,5.82,12.86-1,10.33-.6-2.18.56-3.53,0-5.71-7.88-3.14-6.59-1.54-9-.77l-3.67.3,1.25,0c.37,0,.7,0,1-.06l.42-.05.33-.06-.11,0-4.94,1.1,2.46.48c10.62,14.12-1.91,8,2.61,18.3-4.71-9.77-4-4.15-9.45-9.37h0l-2.17-2.24c.82,1,1.5,1.62,2.12,2.23-2.45-.46-5.53-.61-6.8-2.44,3.14,5.84-6.27-.3-1.6,8.14-2-1.51-1.84,1.72-6.19-2.76-.54,3.55,3.73,2.28,5.92,4.51.82,2.27.28,3.49-.89,4.26a16.45,16.45,0,0,1-4.79,1.54c-3.59.86-7,2.19-4.82,8.55-.12,7.53,5.55,13.78,5.25,20.56-4.18-1.2-5.92-7-5.92-7-4.66-.14-5.58,2-5.19,5.91-1.29-1.83-3.06-2.57-5.72-3.74-.94,2.12,5.93,7,1.25,6.83-1.79-2.17-4.75-5.51-6.17-8.13.05,3.48,1.91,8.43,1.88,11.93-3.77-2.24-4-5.47-5.5-8-.48,3.58-2.1,8.53,2.54,13.63l2.32.07c-1.42-.73-4.16-3.64-4.49-4.74-2.42-5.44,4.23-1.34,6.24.15l0,2.49c12.4,7.87,3.2-7.37,6.35-9.78l7,8.07-4.14-8.7c2.66,1.14,7.53,4.53,7.5,7,5.77,1.29-1.28-4.3,4.69-2.32a2.16,2.16,0,0,1,1.33,1.26l-.65-4.1c1.35,1.85,6,4.51,3.75,4.78,7.75.29-1-11.1,6.27-7.27l.23.73c1.62-7.44-5.48-5.55-9.13-15.34l16.71,9.93-5.45-5.58c.66-.35,2-1,4.17,1.22-2.36-5.44-2.84-1.87-5.66-6.3,7.46,2.06,3.53-9.11,13.36-1.56-3.66-4.76-5.55-.6-6.28-6,10.7,8,1-4.57,7.63-2.84,4.55,5.21-.1,5,6.52,6.73-7.51-9,5.84-2.75,5.86-6.13-6.85-6.19.81-6.72,1.34-12,2.16,2.26,9.18-2.7,14.32-3.46l1.08,1.12c-6.47-6.8-2.41-8.71-1.86-12.26,4.09,3.83,5.37,5.7,6.16,8.58l1.83-2.13c-1.79-2.49-2.37-4.2-2-6.3l4.72,5.2c2.2-3.05-1.12-11.19,5.59-11.63-4.64-4.57-16.06-9.33-15.8-16,2.56,2.09,6.76,5.65,7.4,7.69-.21-.92-.77-2.68.7-2.37l3,5.48c3.43.14-2.88-4.17-1.27-5.1,3.69,3.41,3.53,1.46,6.31,4.33.06.65-2.57-.28-1.57,1.54,2-.85,5.84-.61,9.19,1.37-2.23-1.8-5-4.55-4.5-6.05,2.28-3,5.34,3.12,8.73,3.26-2-3,2.33-2.34-3.16-7.46.77-.78,3.49,1.44,5.28,2.5-1.13-3.66,5.45-7.3-1.91-11.1h-.73c0-.17,0-.26,0-.46-1.16-9.75,12.11-6.84,14-13.68l1.84,1.72c.46-4.73,4.46-7.33,2.34-13,.77-.81,5.14,1.2,7,3.6.59-3.4-1.27-5.61,4.62-5.78,1.19,5.1,3.51,1.93.3,4.36,4.14-1.24,7.67.94,5.46-6.68,3.72,5.4,7.83,3.54,7.67.94l-5.16-1.28c.71-2.09,2.34-3,4-3.86l5.46,6.53c12.74,1.61-3.08-22.06,13.39-14.32-2.85-5.57-5.89.1-9.61-6,3.26-1.75,14.54,4,15.33,3.27,6.7-.2-5.77-11.84,0-13.25-2.6-1.63-8.8-6.81-8.21-11.53,3.26-1.77,12.07,5.72,12.26,9-.41.78-1.37.41-2.08-.34,0,1.59-.12,3.57,3.2,4.85l-1.85-2.44c3.42.89,6.55-2.82,9.29,1.46a5,5,0,0,0-.73-2.6c2.66,2.32,2.69,4.41.19,4.89l7.68,1.68c2.63,7.7-7.74.41-10.13,2.39a.8.8,0,0,0-.2.21c-.39.52-.42,1.46.1,3l-2.82-4.36c.55,4.09-6.56,8.71,1.8,18.43-1.76-.64-5.59-2.61-5.73-4.32-5.7,4.57,1.45,20.42-8,20.29l-2.77-2.66c.12,1.7,4.47,6,.41,5.13-1.22-1-2.76-2.65-3.3-2.29.66,1.34,3.39,6.73.58,6.85l-2.61-3.71c-8,2.7,2.38,14.66,1.2,20.81-9.12-6.5-15.22-4.2-18.26-3l-1.24-1c-5.77,5.73-.3,16.38-.81,25-12.58-3.13-12.94,9.92-22.75,12.17,2.32.22,7.12,5.06,7.3,6.77-2.84.16,3.75,8.29-4.61,2.32l.51-.4c-9.07-4.57-8.87-.12-10.67,2l10.9,7.87c-10.13-2.43-11.24,2.56-11.93,7.32s-.91,9.3-9.3,6.15c1.84,3.31.62,5.1,2.47,8.38l-6-4c-4.22,3-6.31,4.6-8.17,10.55l-3.65-3.83c-2.26,2.59,15.07,14.84,13.77,17.7l-9.53-5c-3,5.07-14.18,5.06-9.07,15.22-1.28-.93-3.82-2.74-3.67-3.77-1.66,2.11-11.2,5-.17,11.49-6.41-3.22-2.66,5.66-.87,10.3l-5.75-4.17c6.25,7.07,8.31,8.44,8.44,12.93-1.14.24-4.58-1.92-3.46-2.31-3.76.8,4.74,5.46-.19,6.49l-3.15-3.52c-2.07,2.31.12,3.38,3.74,7.56,1.41,3.11-4.54,4-10.24,1,3.12,2.4,6.71,6.53,4.21,7.1a8.65,8.65,0,0,1-3.6-3.05c-6.78,1.86,3.13,10.74-4.64,10.15a12.61,12.61,0,0,0-3.93-1.66c2-3.1,3.89-5.53,4.42-5.53-5.51-3.29-8.2-1.13-14.53-8l.92,1.52c.26.4.52.83.79,1.26l.28.44c.37.59.75,1.2,1.12,1.82.1.16.2.31.29.47l.82,1.4c.18.31.35.61.52.93.34.61.64,1.22.92,1.8h0c.14.29.26.57.38.85,1,2.44,1.18,4.39-.62,4.88a19.91,19.91,0,0,1-2.16-.79l-.45-.67c-.94.3-.76,1.19-.14,2.29-1.45.33-2.45.49-3,1.29-4.84-2.42-4.44,1.78-5.51,3.07,6.18,3.47,4.22,4.75,10.09,6-.38-.17-.35-.8-.1-1.75a1.73,1.73,0,0,0-.28-1c.13.12.31.26.48.42-.06.19-.15.38-.2.56s.18.33.22.49a.29.29,0,0,1,0,.16c.33.07.64.12.93.16s.55.08.79.1l-1.73-1.47a35.13,35.13,0,0,1,1.65-3.75c2.46,3,4.42,5.67.08,5.22,3.54,3,7.14,6.23,8.79,7.8-9.73-3.14-16.56-2.09-22.18-4.64.48,3.18-.43,6.07-.2,9.35s1.65,7,6.73,11.61c.81,2.09-4.16-.47-6.26-1-.77-1.38-.11-2.14-1.58-3.47,1.6,4.16-3,8,4.93,13.18C-809,630-810.16,623-811.2,628l-2.19-2c-8.94.65-5.57,7.07-2.69,13.22,2.73,5.9,5.11,11.59-4.3,12.38a5.64,5.64,0,0,1,2.12.47,14.14,14.14,0,0,0-6.5,7.14,30.84,30.84,0,0,0-1.16,3.13c-3.47,1.18-6.62,3-8.13,6.44.86-2.66-2.22-7.45-1.85-5.93a48.73,48.73,0,0,0-4.42,3.09c-.34.27-.67.53-1,.81s-.71.57-1,.87-.67.57-1,.86-.84.76-1.25,1.16l-.8.77c-.4.38-.79.76-1.17,1.15l-.82.85c-.77.81-1.55,1.64-2.31,2.5-.21.24-.43.47-.63.72a5.47,5.47,0,0,0-.45.51c-.51.57-1,1.16-1.52,1.76-.71.85-1.44,1.73-2.17,2.63-.35.43-.72.87-1.07,1.32-2.24,2.79-4.54,5.76-7,8.9l-1.1,1.41-2.47,3.17c-.55.69-1.11,1.39-1.69,2.1s-1.11,1.4-1.68,2.11l-1.58,1.95h74.78a6.69,6.69,0,0,0-.82-1.95,6,6,0,0,0-.36-.57c.12.09.26.19.4.31a3.47,3.47,0,0,1,.29.25h0l.21.16.23.21.15.13c.31.29.52.53.51.68l-.16.11c.11,0,.15,0,.16-.11h0c1.88-1.39,5.31-.49,7.89-.76l-.81-.42c-.78-.42-1.51-.85-2.16-1.26-.44-.28-.85-.55-1.24-.83-.2-.13-.38-.26-.57-.41a30.89,30.89,0,0,1-6.23-6.51c-.1-.13-.21-.26-.31-.4l-.64-.77c-.16-.18-.3-.36-.47-.54s-.35-.4-.54-.59-.51-.54-.79-.8l-.43-.42c9.85,1.75,9.82,6.57,18.52,9.8-7.35-3.37-5.23-7.69-11.67-9.82,6.25.75,3.37-.34,11.25,2.35-11-5.83-1.07-2.65-7.15-7.58,6.84.07,10.79,4.53,8.88-.09,4.1.34,6.74,4.9,6.74,4.9,1.66-2.85-7.52-5.52-12-8.58-.58-4.78,7,1.48,11.89,2.46-1.12-3.34-7.87-9-6.69-10.47,1.44.59,2.1.53,3.63,1.8a7.89,7.89,0,0,1-1.36-1.86c2.23-2.58,1.23-2.75-.37-3.16.58-2.49,2.53-4.66-1.8-9.21a12.73,12.73,0,0,1,1.74.54l-2.07-.89c.25-.31.51-.61.79-.9l.84.49c-.09-.33-.2-.67-.32-1a16.2,16.2,0,0,1,2-1.66c6.53,2,5.47,2.27,5.14,2.78-.48.34-1,.74-1.63,1.2.54-.31,1.07-.6,1.59-.86.18.46,1.46,1.21,6.47,2.87,3-2,1.39-4.37,1.36-6.6,4.43-2.2,7.51-4.73,10.83-13.16.83,7.68,12,.61,15-4.43l-9.25,1.7c4.21-4.72,8.78-7.77,13.41-10.9l3.1,8.42c25-7.38,22-41.09,47-39.45,1.1-8.6-12.67,5.08-12.73-3.86,9.21-6.15,25.8-4.12,28.47-6.3,8.9-3.66,8.05-9.72,9.24-15.62.06-.3.13-.61.2-.91l.24-.9c.09-.3.19-.6.3-.89a11.66,11.66,0,0,1,.55-1.33l.23-.43c.12-.21.23-.43.37-.65a13.24,13.24,0,0,1,.89-1.27c.17-.21.34-.42.53-.62s.25-.28.39-.41a17.76,17.76,0,0,1,4.21-3.06,9.43,9.43,0,0,1-4.14-2.66,5.66,5.66,0,0,1-.43-.52,5.58,5.58,0,0,1-.39-.56c-.12-.2-.24-.4-.34-.61s-.21-.43-.3-.65c-1-2.58-.65-6.12,2.8-10.74,9.19-6.17,18.5,1.12,14.68,7.42-1.87,1.88-3.46,2-4,1.1-2,3.11-4.81,7.09.63,6.83l-.82-3.24c6.17-1.11,17.64-11,18-4.94,3.92-6.43.85-6.31-3.72-4.45,11.69-5.59,15.49-13.29,27.77-19.84-2.85.18-6.75-1.2-5-2.64,18.85-10.68,3.61-10.38,13.93-20.6,9.26-1.67,4.71,10.35,13.49-1.88,8.84-3.23,6.54,5,5.38,9.14,6.53-12.91,21.54-12.79,28.07-16.76l-3.85,6.31c2.3-3.77,5-5.89,7.68-8.09l-6.92-2.15c3.84-1.78,6.54-3.95,8.07-1.95.77-5.74-8.86-5.73-5.8-15.22,6.18-1.08,10.8-13.07,17.34-8.07-13.52,7.89,2.59,5.66-1.65,12.56a22.6,22.6,0,0,1,5.86-3.76c1,.3.6,1.65,0,2.72,17.26-4.85.11-11.8,13.42-22.43,1.19,4.86,8.48,4.12,10,1.62-5.37,4.28-7.31-3.76-4.61-10.42,10.69-4.19,7.55-9.55,12.23-12.85l-6.1,2.85c-1.13-4.89,3.46-7.91,8.49-13.81a1.87,1.87,0,0,1,.46,2.34c4.53-6.95,19.49-3.63,24.61-13.83,6.16-1.07,5.75,6.25,10.78,4.85,6.58-12.86,15-4.2,22.75-16.69-6.91-2.2-6.53-.6-2.64-11.36l-15.06,17.68,5.84-16.08c-5.41,4.27-8.91,12.12-12.77,13.91,2.32-8.24,2.71-6.61-3-8.45,13.05,1.14,11.21-15.9,23.55-18l9.17,11.9c16.87-5.1,17.85-24.12,36.68-34.51-3.82,7.13-6.25,14.35-5.14,21.64-2.06,4.92-6.73,1.77-9.56,1.78.93-3.08,3.39-5.53,3-8-4.14,9.84-18.9,23.24-13.46,31.27-11.59,6.72-1.73-11.07-12.15,3l-.59-3.66c-17,7.88-21.71,22.4-27.12,36.87-5.17,13.83-11,27.64-28.74,35.81a3.71,3.71,0,0,1,2.91-.11c-35,27.09-52.9,72.6-91.22,96-10.06,7.39-6.41,12.33-7.87,20.92l-7.53-3.06-1.68,15.38c-.14.36-.29.71-.44,1l-.14.28c-.11.24-.23.47-.36.7a4.56,4.56,0,0,1-.24.44c-.15.27-.31.53-.47.78s-.33.5-.5.74l-.32.43c-.21.28-.44.55-.67.82s-.47.55-.73.8-.47.48-.71.69a2.39,2.39,0,0,1-.23.22l-.67.59a27.5,27.5,0,0,1-4,2.7c-.33.19-.65.37-1,.54l-.18.1c-.29.15-.58.31-.88.45l-.6.31-1.52.71-.77.34c-.52.24-1,.47-1.57.69l-1.58.67-1.6.68-2.53,1.09-1.15.52-1.14.54c-.35.16-.69.34-1,.52s-1,.48-1.41.74l-.9.5-1.08.65-.87.56-.35.24c-.3.2-.59.41-.88.62s-.61.45-.9.69l-.11.09c-2.66.9-5.33,1.78-8,2.65-3.88,1.29-7.73,2.54-11.35,4a84.74,84.74,0,0,0-10.19,4.71c-5.82,3.24-10.56,7.22-13.46,12.57l-15.52,19.1c-9.61,5.16,2.63-7.71-6.29-6.53-7.45,11.64-16,17-24.31,21.6s-16.32,8.78-22.84,17.75c-6.58-1.76-13-.06-19.39,3.41H-604a8.51,8.51,0,0,1-.39-1.95,6.13,6.13,0,0,1,.07-1.62,5.93,5.93,0,0,1,.35-1.2,7,7,0,0,1,.66-1.15l.52.06.44,2.56c2.14-.42,2.06-2.52,1.45-4.93,3.29-2.42,7.73-4.15,8-8.17l2.15,1.3c-.28-2.65.66-4.88,1-7.22,1.78-1.64,3.54-3.29,5.39-4.72a6.65,6.65,0,0,1,.94.68,10,10,0,0,0-.13-1.29,21,21,0,0,1,5.28-2.89c1,.71,1.22-.35-.6,1.75,2.34-1.28,4.69-1.25,5.29-2.66a18,18,0,0,1,4.19.31,7.18,7.18,0,0,1-1.19-2.9c2.34.3,3.72-1.36,3.26-3l-1.29-.08.16-.12c.53-.29,1.1-.57,1.64-.87l.43-.24a5.93,5.93,0,0,0,.65-.4l2.82,2.27c5.81-.28,4.63-4.57,3.48-8.76,3.72,1.12,6.19,2,13,.36,1.8-.89-1.27-6.09-2.16-9.89.4.07.67.06.74,0a2.37,2.37,0,0,0,1.31-.42l3.17,3.46-1.65-6.2,1.23-1.34,6,4.13.8-3.41a1.7,1.7,0,0,1-.49.07l-.27,0a7.63,7.63,0,0,1-3.35-1.48l-.31-.25c-.12-.09-.23-.2-.34-.3s-.26-.24-.37-.36l-.07-.07c1.16-1.27,2.27-2.48,3.3-3.63h0l.42-.07.18,0c.23,0,.46-.05.71-.06,3.56-.18,8,1.34,9.6,3l3.44-12.1a7.54,7.54,0,0,1,1.54,5.07c.1-5.62,6.36,6.57,5.38-1.66-1.72-.84-2.87-3.71-3.84-5a7.82,7.82,0,0,0,7.78-1.66c0,.75-.06,1.5,0,2.26a3,3,0,0,1,1.59-2.88l-.44-.42a13.81,13.81,0,0,0,2.53-3.94l3,4.56c6.76-4.39,10.52-13.28,17.11-19.26-4.06.34-9.91-7-8.61-9.44l6.41,5.35c-2.24-4.84-4.09-.54-5.82-7.15,1.44.65,2.87,1.22,3.83.93,2.27,1.93,4.35,5.42,4.63,7.49l.78-3.88a6.71,6.71,0,0,0,2.47,2.81,5,5,0,0,1,.08-.61,19.44,19.44,0,0,0,1.69,2.53c-2.32-4.89,10.78,1.25,6.4-6.9l1.86,1.64c6.51-6.09,7.52-10.9,12.46-16.22-2.75-3-2.92-4.54-3-6.36,1.11-.31,2.38-.55,2.72-2,2.29,4.47,4.41,5.37,6.78,7.62-1.93-3.19,4.57-2.2.19-11.24l5.94,4.24c6.2-.39-1.49-15.59,4-16.76,1.28,5.56,5.16,7.45,3.94,12.62,1.59-.84,3.45-.83,1.75-3.88,2.47,2.22,1-8.34,4.79-5-.42-2.29-2.8-7-.84-7.61a6.54,6.54,0,0,1,1,1.63c-.59-1.84.68-3.88-2-7l.06-.15c11.56,9.07,12.19-9.16,22.71-.06,2.58-3.39,5.89-7.12,8.81-9.19.53,1.42,1.22,2.19.38,2.06,6.56,1.65-4.48-14,2.94-12.24,6.48,5.66-.42,5.28,2.64,7.08,8.82,14,4.76-5.28,12.78,1.28l-.31,1.29c5.25,3.47,3-8.9,7.67-10.19a9.09,9.09,0,0,0,1.2,2.2c-1.36-8.93,2.55-14.34,5.33-18.59,2,6.31-.1,4,3.88,9.28,1.3-1.81-5.71-8.89-3.11-12.48,2.89,2.44,6.95,3.7,10.73,9.61l-3.12,2.2c6.17,6.93,4.13-2.7,6.66-2.31l1.73,3.57c4.44-4-.4-12.73,5.41-15.19l-2.05-2.3c-1.89-10.29,5.25,3.43,4.59-4.66l5.85,8.24c.77-3.22,2.11-12.35,4.71-16,1.67,7.61-.58,13.26-1,18.54,2-1,6.26-4.39,4.84-9.28-.31,1.29-.09,4-1.63,3.09Q-339,491.16-333,488.06c8.89,17.34,12.54-1.45,22.8,10.1,3.34-10.15,15.17-5,22.61-10.58-10.3-11.57,2.12-1.7-6-14.95,1.36-1.91,2.2-2.1,2.85-1.33l-.49-.24.55.3,0,0,10.21,4.88c3.57,3.18-.08,4,1.8,6.92,4.68-1.27,5,4.77,9.71,6.84-3.3-4.53-2.51-7.74.87-7.21l-6.81-4.38c1.63-10.44,11.36,8.57,13.08-1.83l.59,5.29c1.53-4.18,10.94-6.07,7.68-18.58,1.41,1.26,4.19,4.57,3.45,6.29,8-2.36,9.16-20.47,18.44-16.87l1.34,3.61c.77-1.7-1.24-7.52,2.31-5.11.68,1.41,1.33,3.6,2,3.45.05-1.54.22-7.78,3.05-6.84l.62,4.57c9.34.43,5.44-15.06,9.93-20.59,5.5,9.75,12.71,9.85,16.31,9.89l.69,1.44c8.72-3.36,9.07-15.81,14.32-23.85,10.62,7.92,18.14-4.49,28.94-2.81-2.15-1.12-4.15-7.68-3.4-9.41,2.87,1,.94-9.5,5.77-.44l-.71.18c6.32,8,8.57,3.6,11.49,2.24l-6.24-11.9c17.07,12.74,15.5-17.25,28.25-4.42.07-3.93,2.27-5.16,2.32-9.07l3.53,6.28c5.81-1.24,8.69-1.92,13.85-6.94l1.37,5.17c3.64-1.61-6.25-20.42-3.34-22.62l6.41,8.71c5.82-3.6,16.62.9,17.46-10.95.71,1.41,2.13,4.19,1.4,5.13,2.81-1.36,13.68-.28,6.72-11,4.36,5.73,5.78-4.41,6.69-9.63l3.18,6.36c-2-9.38-3.22-11.54-.8-15.95,1.26.24,3.34,3.72,2,3.64,4.1.76-1.45-7.19,3.91-6.17l1,4.67c3.33-1.38,1.81-3.3.72-8.81.4-3.59,6.65-2,10.46,3.16-1.64-3.58-2.74-9,0-8.58a7.54,7.54,0,0,1,1.71,4.41c7.6,1,3.15-11.64,10.29-7.88a11.67,11.67,0,0,0,2.83,3.23c-3.77,2.14-7,3.73-7.43,3.49,3.42,5.43,7.24,4.46,9.42,13.66,0-5.81-1.2-17.61,3.57-17a13.64,13.64,0,0,1,1.62,1.66l.06.83c1.08.08,1.4-.84,1.43-2.17,1.57.28,2.64.54,3.66,0,3.25,4.34,5.27.11,7-.68-3.92-5.89-1.32-6.32-6.23-9.94.27.32-.11.92-.91,1.73.07-.23,0-.54.16-.72a12.3,12.3,0,0,0-1.49-.95c-1.64-4.41-3.27-9-4-11.16,7.53,7,14.68,8.88,18.58,13.68,2.76-6.48,10.11-9.7,5.85-22.93.44-2.34,3.69,2.2,5.36,3.62-.06,1.66-1.12,2.1-.51,4,.89-4.69,7.49-6.46,3-14.73,5.81,1.26,2.8,8.5,6.73,4.08l.93,2.83c8.82,3.12,9.35-4.43,10.24-11.58.86-6.87,2.08-13.29,11.39-10,.38.18.8.32,1.33.51-.47-.2-.91-.36-1.33-.51a5,5,0,0,1-1.74-1.38c8.24-.52,13.17-6.32,18.4-11.57s10.65-10.14,20.3-8.72c4.84-.11,1.72-5.21,1-10.34l5.2,5.71-1.84-9.63c.47-4.36,5.29-2.06,9.88-.46s8.92,2.45,8.28-4.69l-3.86-3.58c2.77-.78,5-7.52,8.19-2.49-.36-.92-2.54-4.83-.08-3.31l2.48,3.16,1.1-9.48c5.83-.77,9,13.2,15.45,9.29,1.3-2.93-.81-14.07-3.28-15.57-1,.52-3.81-.26-6.33-3.4l.73-3.18C111.54,196,106.57,187.46,99.57,183c3.83-.37-7.06-11-2.48-11.3-2.47-1.78-8.53-7.12-8.65-11.05,2.57-1,11.2,6.66,11.81,9.5-.25.61-1.14.15-1.84-.59.2,1.35.38,3,3.41,4.6l-1.92-2.35c3.07,1.28,5.27-1.42,8.22,2.64a4.58,4.58,0,0,0-4.13-4.07c4.26.16,3-3.64,7.14-3.89-1.55-.8-4.41-2.95-4-3.3,6.11-.82-2.53-5.56-1.11-8.84,4.59,1.92,7.29,8.24,6.93,3.16,3.63.77,5.95,5.37,7.12,7.68-2-6.26,6.7-1.27,8.66-1.72l.59,2.85a2.44,2.44,0,0,1,.8-2.76l-4.89-3.65c1.4.08,2-.46,3.74,1.34-2.1-3.49-7.59-6.61-10-11.82,3,1.3.39-5,6.32.38-4.23.73,4,4.54,4.6,7.66q.34-.63,1.68-.54a3.32,3.32,0,0,1,1.2,1.79c7.69,2.51-5.11-7.65-2.2-10.24,2.81,3.57,6.64,5.5,6.41,4.38-1.18,1-5.8-4.87-7.18-8.35,4.24.77.12-3.76,1.34-4.38l-2.22-.15c-2.79-3.59-1.48-4-1.21-6.28a5.14,5.14,0,0,1,1.29,1.7c-.52-3.13,9.43,4,7.84-1,3,1.33,6,6,8.19,6.76-1.89-6.32,6.63,2.23,5.58-3.45-4.85-3.76-3.95-2.57-6.41-8.38l-.83,6.66-3.67-8.67c-1.2,1,.22,5-1.17,4.94-2.27-4.67-1.34-3.48-5.38-6.59,7.86,5.1-.54-6.79,5.52-4.06l10.29,10.94c7.31,2.31-.48-10.15,5.65-10.74l-2.93-.83c-3.61-4.81,1.62-2.67,1.11-5.52,3.32,3.76,5.27,4.42,7.9,6.26a15.18,15.18,0,0,0,2.48,2,22,22,0,0,0-2.48-2c-2.6-2.68,2.83-2.14-3.66-9.8l6.09,3.39c4.71-.64-6.39-13.55-2.44-14.86,2.84,4.8,6.51,6.27,7.28,10.85,1-.81,2.42-.89.08-3.47,2.66,1.83-2-7.37,2.08-4.62-1.09-2-4.5-6-3.17-6.66a9.26,9.26,0,0,1,1.3,1.39c-1.17-1.75-.63-3.81-4.91-6.84,6.71,4.52,8.54,2.52,10.16.32s3-4.53,8.72-.6c.94-3.09,2.35-6.51,4-8.44.86,1.24,1.63,1.88.93,1.81,5.67,1.27-7.86-12.26-1.44-10.89,6.83,4.83,1.29,4.67,4.25,6.18,11.21,12.15,2.11-4.77,10.4.83l.15,1.15c5.16,3-.36-7.94,2.91-9.19a12.48,12.48,0,0,0,1.6,1.92c-3.76-7.92-2.24-12.78-1.28-16.59,3.37,5.59,1.08,3.54,5.75,8.2.5-1.61-7.08-7.83-6.05-11.06,3,2.13,6.54,3.21,11.2,8.45l-1.82,2c6.84,6.12,2.46-2.43,4.55-2.11l2.38,3.17c2.32-3.57-3.95-11.35-.1-13.6l-2.24-2c-4.35-9.23,5.07,3.06,2.33-4.16l6.86,7.37c-.29-2.86-1.71-11-.62-14.28,3.34,6.85,3.11,11.89,4.26,16.61,1.28-.91,3.69-3.86,1.27-8.27.1,1.16,1,3.58-.44,2.75-3.41-7.36-3.8-12-1.22-13.82,11.56,15.68,9.44-1.23,20.48,9.45,0-9,10.51-4.08,14.87-8.81-10.81-10.82,1.22-1.47-8.31-13.76.63-1.66,1.24-1.8,1.94-1.08l-.64-.35c.29.17.45.27.7.4l0,0,9.13,4.86c3.53,3,.88,3.6,3,6.34,3.32-.91,5,4.55,9.11,6.66-3.61-4.26-3.75-7.11-1-6.46l-6.29-4.31c-1.13-9.37,10.77,8.34,9.69-1l1.66,4.83c.11-1.86,1.86-3.08,2.93-5.29s1.49-5.32-1.13-11.11c1.37,1.24,4.24,4.43,4,5.94,2.84-.8,3.52-5.28,4.5-9.09s2.29-7,6.22-5l1.75,3.4c.25-1.49-2.45-7,.77-4.49.8,1.35,1.73,3.4,2.26,3.33-.26-1.39-1.33-7.06,1.05-6l1.35,4.22c7.25,1.26,1.35-13.25,3.86-18C317.7,1,323.19,1.7,326,2.14l.78,1.39c6.07-2.06,4.26-13.42,7.08-20.27,4.67,4.28,7.92,3.75,11.15,2.66s6.33-3,10.53-1.42c-1.77-1.34-4.17-7.67-3.81-9.16,2.3,1.3-.46-8.67,4.33.41l-.51.08c5.8,8.3,6.89,4.54,8.95,3.76l-6.12-12c7.24,7.23,9.66,3.92,11.75.5s3.82-6.94,9.2.11c-.32-3.62,1.21-4.41.94-8l3.18,6.46c4.26,0,6.34-.05,9.82-3.65l1.39,5c2.56-.74-6.06-20.15-4-21.64L396-44.16c2.07-1.1,5.14-.08,7.74,0s4.65-1,4.74-6.33l.3.77.12.3c.09.22.17.46.26.7l.18.53a5.53,5.53,0,0,1,.2.66V-67.34ZM182.3-37.9c.75,1.56,1,3,.42,3.9a5.93,5.93,0,0,0-2.4-3.06Q181.3-37.5,182.3-37.9ZM175.07-34c2.83,2.09,6.48,4.76,1.86,5.19l-2.5-1.83c.35,2.48,2.92,6.11,1.08,7.45-5.77-2.54-2.32-3.28-5.42-5.73A20.37,20.37,0,0,1,175.07-34Zm-12.41,8.44.52-.25c.38-.17.74-.37,1.09-.57l.42-.25.26-.17c.27-.18.53-.38.78-.57a10.31,10.31,0,0,0,.83-.78,5.29,5.29,0,0,0,2.29,1.35c.15-.31.32-.58.49-.88,1.36,3.62,6.58,9.49.66,8.49-1-2.05-.07-3.6-1-5.65-3.59-.7-5.34-.85-6.35-.7Zm-4.11,2.18.81-.27A6.37,6.37,0,0,0,160-24l-1.36.37c.1-.22.19-.45.29-.67l1.28-.4c.35-.11.68-.23,1-.35a1.35,1.35,0,0,0,.24-.08A8.57,8.57,0,0,1,160-24l.26-.09-.89.38-.85.36A.36.36,0,0,1,158.55-23.43Zm-12.24,5.79,6.08,6.19c2.12-2.57,3.66-6.09,5.2-9.73,12.22,11.52-1.06,7.87,5.49,17.4-6.55-9.16-4.81-3.58-11.12-7.79a39.61,39.61,0,0,1-4.36-.07C146.61-13.83,145-16.58,146.31-17.64Zm-1.12,2.42a4.92,4.92,0,0,1,.29,2.93,3.62,3.62,0,0,1-.63-.48,9.11,9.11,0,0,1,.55.77c-.31,1.15-.92,1.95-1,2.4-.68.25-1.38.5-1.59,1.14C141.58-12.06,139.33-15.63,145.19-15.22Zm-1.83,8.87a16.29,16.29,0,0,0,1.36,1.93,1.54,1.54,0,0,0-1.43-.17A4.31,4.31,0,0,0,143.36-6.35Zm-6.49-5,3.87,6.76a13.22,13.22,0,0,1-2.58-1.53c.06,2.13,1.45,2.31,3.11,2.47l.52.91a3.69,3.69,0,0,0,.89-.74,4.75,4.75,0,0,1,2.08.8c3,5.14-3.15,5.54-6.83,7.79A6.85,6.85,0,0,0,138,1.93C135.75-3.67,129.32-12.53,136.87-11.3ZM9.38-24.43c-.63-.09-1.27-.22-1.92-.33l-.24,0A36.56,36.56,0,0,0,3.68-28c2.94.85,5.1,1.17,6.41.94C7-29.51,3.94-32,.87-34.44,5.09-33.17,8.44-30,11.54-30.63l3.14,2.53c-.89,3-2.36,3.77-4.07,3.77l-.6,0C9.8-24.37,9.59-24.4,9.38-24.43ZM-7.93,67.31v0S-7.94,67.31-7.93,67.31ZM-196.46-23.2c-.13-.24-.23-.53-.37-.8a27.73,27.73,0,0,1,1.62,3.23c-.45,1.54-1.58.61-2.55-.51A7.77,7.77,0,0,0-196.46-23.2Zm-32.78-35.14c-.27.31-.65.74-1.29,1.54a1.18,1.18,0,0,0-.08-.12ZM-234-54c1.62,1.88,2.82,4.14,2.09,4.48-.58-1.61-2.92-1.73-5.09-2.78A11.25,11.25,0,0,0-234-54ZM-303.78,51.21c0,.5-.2.72-.52.75C-304.13,51.7-304,51.45-303.78,51.21Zm-77.85,61c-.32-.29-.66-.62-1-1,0-.92-.07-1.84-.08-2.74A7.2,7.2,0,0,1-381.63,112.25Zm-71.79,42.41c.13.17.27.37.39.56l-.12.05-.38-.41A1.8,1.8,0,0,1-453.42,154.66Zm-4.77,20.09a.22.22,0,0,0,0,.08,3,3,0,0,1-.51.14Zm-19.65,7.83a2.69,2.69,0,0,1-.14,1.72,8.61,8.61,0,0,1-2.25-1.06A5.89,5.89,0,0,0-477.84,182.58Zm-11-5.46a30.11,30.11,0,0,0,3.46,3.74c0,.28,0,.6,0,1a7,7,0,0,1-4.89-3.1A6.46,6.46,0,0,1-488.86,177.12ZM-495.19,188a14.12,14.12,0,0,1,2.62,3.87c-1.92-.55-1.85,1.48-2.71,2.26C-495.3,192.24-495.31,190.08-495.19,188Zm-8.88,16.12c2.93,3.5,1.49,4.24,1.12,6.79a4.14,4.14,0,0,1-1.35-1.64.82.82,0,0,1-.31.86,19.69,19.69,0,0,0-.27-2.35,7.69,7.69,0,0,1,.47,1c-.08-.68.21-1.09-.53-1.35-.2-1.07-.44-2.13-.59-3.15Zm-1-11.15a2,2,0,0,1-.47,2,15.7,15.7,0,0,0-1.56-1.59C-507.2,192-506.17,192.39-505,192.94Zm-19,11.6c3,1.61,6.68,2.11,11,5.79a2.09,2.09,0,0,0,0,1.59c-3.3-.88-6.43-5.54-8.87-5.9.67,2.34,0,2.91-1.18,2.92C-524,207.43-524.58,205.9-524,204.54Zm4.83,9.28c-.33-.43-.72-.91-1.15-1.41l.14-.94Zm-4.91-6c.25.41.44.78.62,1.12a9.3,9.3,0,0,1-1-.13C-524.31,208.46-524.18,208.12-524.07,207.8Zm-1.68,4.7c2.64,1.58,2.4,1.77,4.51,6.6l.71-5.08c.5.49,1.21,1.12,2.25,2l0-.12,2,4.5c1.35-1.39-.15-5.58,1.39-5.77,2.41,4.75,1.41,3.6,5.78,6.26-8.55-4.07.5,7.44-6.11,5.64l-11.19-10h-.16A25.12,25.12,0,0,1-525.75,212.5Zm-3,18.75c.7,1.16.49,1.79,0,2.27C-528.71,232.81-528.72,232-528.71,231.25ZM-801,452.94h-.06l.23-.05Zm.25-.06h-.05l.29-.08.28,0Zm268.92-217.6v.25c-.24-.2-.46-.39-.68-.55C-532.32,235.07-532.1,235.16-531.86,235.28Zm-5.53,4.06c.49.59,1.08,1.23,1.81,1.95l-2.37-.82A2.79,2.79,0,0,0-537.39,239.34Zm-98.36,95.11c-5.22,1.76,3.88,4.63,4,8.24h0a2,2,0,0,0-.31,1.23,2.44,2.44,0,0,0,.25-.62,2.14,2.14,0,0,0,.06-.61,2.73,2.73,0,0,1,2.12-1,2.57,2.57,0,0,1,1.12,1.88c8.75,1.38-4.69-8.12-.7-11.84,2.69,3.7,6.92,5.2,6.87,3.9-1.61,1.47-6.05-4.62-7.05-8.5,5,0,.85-4.54,2.44-5.54l-2.65.29c-2.66-3.7-1-4.53-.27-7.26a3.73,3.73,0,0,1,1.22,1.76c0-3.62,10.58,2.79,9.63-2.92,3.37,1,6,5.95,8.58,6.35-1.09-7.16,7.6,1.26,7.41-5.27-5.15-3.48-4.27-2.25-6.13-8.65l-2.31,8.1-2.76-9.57c-1.66,1.47-.7,6-2.39,6.13-1.84-5.09-.95-3.85-5.22-6.73,8.53,4.44.63-7.94,7.45-5.95L-604,308.74c8.44,1.2,1.37-12,8.92-13.95l-3.39-.38c-3.47-4.94,2.46-3.51,2.39-6.77,3.31,3.75,5.56,4.13,8.4,5.73a2.62,2.62,0,0,1-.42-.53,1.62,1.62,0,0,1-.21-.47s0,0,0,0a1.59,1.59,0,0,1,0-.43,3.15,3.15,0,0,1,.09-.42,7.61,7.61,0,0,1,.31-.76h0c.09-.21.19-.41.28-.64a0,0,0,0,0,0,0,4.51,4.51,0,0,0,0-3.36,8.86,8.86,0,0,0-.47-1.08c-.07-.13-.14-.26-.22-.39a8.57,8.57,0,0,0-.51-.84c-.2-.3-.42-.6-.66-.92s-.5-.66-.79-1l6.75,2.69c5.83-1.82-5.3-14.71-.3-17.14,2.6,5.07,6.77,6,6.9,11.29,1.3-1.18,3.08-1.61.71-4.17,2.9,1.59-1.09-8.3,3.34-5.95-1-2.12-4.39-6.13-2.67-7.19a6.33,6.33,0,0,1,1.34,1.35c-1.12-1.81-.1-4.36-4.75-7,14.71,7.77,10.46-11.14,23.11-4.47-.1.28-.25.57-.36.84l1.69-.12c-.47-.3-.89-.48-1.33-.72,1.69-3.84,4-8.18,6.36-10.81.85,1.25,1.68,1.85.84,1.91,6.71.18-7.55-12.64,0-12.51,7.53,4.1.8,5.21,4.17,6.3,1,1,1.8,1.73,2.51,2.33l-.38-.14c-5.19,1.92,7.26,13.54,3,15.93-3.23-4.61-7.3-5.33-8.24-10.24-1,1.15-2.65,1.62,0,3.89-3-1.35,2.35,7.66-2.2,5.65,1.25,1.93,5.11,5.51,3.67,6.55a8,8,0,0,1-1.48-1.2c1.34,1.62.82,4,5.62,6.29-15-6.52-7.74,10.82-20.74,5.3-.85,3.7-2.19,7.87-3.85,10.46-1-1.11-1.92-1.6-1.15-1.72-6.28.28,9.44,11.22,2.37,11.58-7.8-3.28-1.76-4.76-5.09-5.54-13.16-10-2,5.91-11.46,2.27l-.25-1.22c-5.92-1.64,1,8.65-2.49,11a10.61,10.61,0,0,0-1.91-1.59c4.77,7.47,3.59,13.23,3,17.73-4.29-5-1.57-3.54-7.14-7.09-.35,1.95,8.52,6.23,7.8,10.11-3.46-1.34-7.42-1.32-13.1-5.45l1.76-2.82c-8.12-4.37-2.41,3.53-4.72,3.9l-2.95-2.66c-2.14,4.76,5.63,11.05,1.71,14.82l2.7,1.44c5.92,8.46-5.9-1.52-2,5.35l-8.43-5.53c.68,3,3.37,11.35,2.7,15.24-4.64-6.14-5.09-11.7-7-16.43-1.26,1.47-3.52,5.62-.24,9.46-.28-1.2-1.6-3.49.09-3.14,4.72,6.74,5.85,11.57,3.33,14.46-15-12.54-10,4.92-23.64-2.11a7.33,7.33,0,0,1-1,5.53l-4.12-2.68c1.68-.17,2.47-.94,4.23.86-1.84-3.75-7.83-6.37-9.75-12.1C-639.88,336.23-641.83,329.21-635.75,334.45Zm-28.36,28.76c.22.14.42.28.63.4a5.38,5.38,0,0,0-1.77-.21c5-.69,4.19-5,9.26-6.14-1.71-.65-4.71-2.66-4.18-3.15,7.5-2.2-1.94-6.14.4-10.34,5.13,1.38,7.14,8.39,7.69,2.39,4.23.19,6.12,5.22,7.07,7.75-1.12-7,8-3,10.64-3.79-3.32,3.54-10.13,4.57-12.88,9.5,13.78,6.92-1.07,2.11,11.62,11.12-.33,2-1,2.45-1.84,2l.52.06-.6-.09,0,0-10.81-1.14c-4.42-1.67-1.66-3.47-4.56-5.43C-656.29,368.67-659.19,363.54-664.11,363.21ZM-802.82,588.73c-.31-1.45,1.08-1.05,2.41-.44a6.76,6.76,0,0,0-.23,2.09c.22.16.45.37.69.55A25.77,25.77,0,0,1-802.82,588.73Zm24.91,64.61c.59-.37,1.24-.75,2-1.13l.89.12Zm23.38-49.42a.86.86,0,0,0-.13.14c-1.89-.91-3.62-2.13-3.83-2.79l.17-.21c1.23,1,3.21.46,5.44.66A7.54,7.54,0,0,0-754.53,603.92Zm339.66-139.19.82.09-.89-.13,0,0-4.78-.48c.16-.18.3-.36.47-.56a21,21,0,0,1-7.31-1.4,3,3,0,0,1,1.38,1.43l-1.68-.17a3.81,3.81,0,0,1-2.16-1.71,5.92,5.92,0,0,1,1.9.23c-.73-.28-1.42-.59-2.1-.93-.15-1.27.56-2.61-1-4-2.21,1.43-3.72.84-5.29-.2a24.46,24.46,0,0,1-1.91-1.89c3.54-4.3,2.35-11.71,8.33-9.23-2.38,2.46-.7,4.31-.32,6.78l1.85-6.15c10.06,1.88-3,8,1.93,12.34.71-1.38,1.37-2.84,2-4.34,4.15,2.8.88,9.11,8.67,10.25-2-1.42-4-9-8.46-10.74.64-1.5,1.26-3,1.87-4.59,13.16,7.84-2,2.48,9.43,12.95C-413.16,464.76-414,465.26-414.87,464.73Zm4.38-26.34c-1.19,1.86-2.14,3.4-1.54,4.08-3.37,1.65-6.77,3.44-9.3,6.41,3.3-8.37,6.5-16.83,11.94-20.26C-405.55,430.79-408.38,435.09-410.49,438.39ZM-237.62,197c-.32.15-.62.29-.89.44A5.27,5.27,0,0,1-237.62,197Zm-48.74,95.37c.28,2.09,5.27-1.05,9.28-2.21a104,104,0,0,0-7.48,7.38C-286.93,296.48-288.15,294.06-286.36,292.39Zm-7.33,15.43.09.09-3.43,4.21C-296.3,311.17-295.28,309.89-293.69,307.82Zm-4-53.55-.08-.08C-297.66,254.17-297.61,254.18-297.65,254.27Zm-3.8,10.74a18.76,18.76,0,0,1-5.37,5.92c.78-2.23.95-4.45-3.22-5A24.71,24.71,0,0,0-301.45,265Zm-6.43,10.58a1,1,0,0,1-.21-.59A5,5,0,0,1-307.88,275.59Zm-34.59,25c2-2.34,4.3-5,6.87-7.86-.52,5.84-1.5,11.47-8.78,13.51A34.79,34.79,0,0,1-342.47,300.6Zm-1.92,5.69c1.34,5.31,2.59,10.91,3,13.76a39.68,39.68,0,0,0-9.2.57C-346.59,316.36-345.69,311.27-344.39,306.29Zm-48.51,46.64-6.85,2.19c-1.51-6.43,9.73-8.85,13.59-15.05a8.78,8.78,0,0,0,.69.94c-1.8,2.63-3.56,5.28-5.18,8Q-391.83,351-392.9,352.93Zm69,8.84.09-1.44c-6.35-1.67-1.56,10.23-6.3,13.25a7.7,7.7,0,0,0-1.72-1.81c3.2,8.67.08,15.64-2.05,21-3.36-5.75-.68-4.11-6-8.09-1,2.33,7.9,7,5.82,11.66-3.58-1.44-8.18-1.23-13.44-5.89l2.91-3.42c-8-4.83-3.88,4.3-6.67,4.83l-2.57-3c-4,5.75,3,12.9-2.71,17.58l2.66,1.6c4.13,9.83-6.32-1.57-4,6.47l-7.95-6.25c-.16,3.59.3,13.43-1.72,18.13-3.37-7.16-2.13-13.8-2.82-19.36-1.91,1.81-5.8,6.85-3.25,11.32.05-1.44-.74-4.12,1.09-3.77q5,11.79-.75,17.19c-5.33-5.84-8.49-5.93-11.26-4.49-1.54-4.21-5.88-2.78-6.74-8.36,8.86-21.17,24.31-6,30.73-15.31.8-.13,1.36-.38,1.38-1l-.61-.35a19.33,19.33,0,0,0,1.54-5.14c-1.1-7.39-8-16.07,5.08-22l4.26,9.86c12.15-12.09-3.89-16.68,13-25.55.7,4.94-6.65,12.13-4.05,11,13.51-3.41,1.41-9.8,7.42-16.41l7.64,4.46c11.24-14.33,20.21-33.31,32.89-49,1.1,2.57.72,6.93,5.87,5.32q2.66-4,5.74-7.85c2.05-2.54,4.25-5,6.53-7.39a180.42,180.42,0,0,1,14.7-13.7c5.17-4.3,10.59-8.3,16-12.14,2.55-1.81,5.11-3.58,7.64-5.3,4.46,3,3.81,2.15,4.77,8.79l3.9-9,1.49,10.37c2.06-1.67,1.75-6.55,3.62-6.8,1.19,5.51.43,4.17,4.67,7.17-8.7-4.53-2,8.68-9.16,6.77l-9.78-11.4c-9.21-.87-3.33,13.25-12,15.84l3.72.2c3.15,5.19-3.23,4-3.6,7.55-3.17-3.91-5.63-4.16-8.57-5.73,2.58,2.66-4.68,3.8,1.5,11.73l-7.15-2.43c-6.72,2.46,4.08,15.64-1.74,18.64-2.29-5.3-6.84-6-6.33-11.72-1.6,1.4-3.64,2-1.3,4.59-3.06-1.48.29,9-4.37,6.8.84,2.22,4.21,6.27,2.2,7.59A5.79,5.79,0,0,1-275,326c1.05,1.87-.32,4.74,4.56,7.19-7.72-3.51-10.86-.2-13.72,3.25s-5.38,7-12.08,4.13a62,62,0,0,1-7.85,12.55c-.84-1.27-1.72-1.81-.8-2-7.39.65,7.46,12.85-.87,13.65-8-3.5-.54-5.58-4.18-6.33C-322.07,347.24-314,365.62-323.94,361.77Zm278.36-65.23c-.51-1.64-2.84-1.86-5-3A11,11,0,0,0-47.47,292C-45.93,293.91-44.83,296.22-45.58,296.54Zm1.69-7.26a.76.76,0,0,1-.08-.13c.46-.44.86-.84,1.17-1.12C-43.06,288.31-43.41,288.69-43.89,289.28ZM-29,276.34l-5.15-7a14.25,14.25,0,0,0-1.3,1.54,13.86,13.86,0,0,1-2.09-2.64c-2.72-5,3.56-.39,5.48,1.2l.25,2.09a31.6,31.6,0,0,0,3,2C-28.41,274.84-28.3,275.92-29,276.34Zm1.11-2-.08-.28c5.28,2.37-1.49-8.33.64-9.59l1.38,1.57C-25.76,270-21.43,276.13-27.86,274.29Zm16.77,49.77c-.12-.24-.22-.54-.35-.82a24.7,24.7,0,0,1,1.5,3.3c-.54,1.53-1.64.58-2.57-.57A8.38,8.38,0,0,0-11.09,324.06Zm-3.28-8.33.82,2.13c.17-.16.36-.3.51-.46a1.83,1.83,0,0,0-.28,1.06c-.07-.17-.15-.38-.23-.6-.95.84-2.24,1.85-3.74,2.94C-18,316.91-18.27,313.5-14.37,315.73Zm-5.94-43.57-3.11-6.87c2.48,1.72,5.71,4.53,5.92,6.25l.35.13C-17.42,272.61-18.33,272.9-20.31,272.16ZM-6,263.8c-1.95-2.24-5.49-4.08-8.29-9.85l8.81,6.21c.17.38.32.78.47,1.22A5,5,0,0,1-6,263.8Zm10.1.11a8.85,8.85,0,0,1-1.48-2.57,20.45,20.45,0,0,1,3,2.1A1.8,1.8,0,0,1,4.13,263.91Zm2-1c-1.24-1.2-2-2.47-.7-3.36l-3,.91c-.44-3.31,4-3.53-1.81-6.95l2.24.15a26.3,26.3,0,0,1,2.88,2.16,10.65,10.65,0,0,0-2.2-2.12l2.51.17c-.59-.56-1.11-1.05-1.56-1.49,0-1.35-2.33-5.35,1.35-3.81a10.88,10.88,0,0,1,2.66,4.12C7.7,256.08,7.55,260.83,6.15,262.91Zm4.26-12.07c0,.17.06.34.09.51-.15-.12-.28-.25-.42-.38A1,1,0,0,1,10.41,250.84ZM13,262.14c1-.47-.28-2.58-.92-4.46L12,260.94c-4.89-5-1.92-4.61-2-6.74.54.28,1.3.64,2.41,1.1-2.26-2.6-2.76-3.78-2.37-4.24a84.06,84.06,0,0,1,6.46,9C15.05,261.21,17,266.87,13,262.14Zm12.58-27.3c0-1.43.79-2.39.87-3.76A22,22,0,0,1,28,233.75C27.29,235.24,26.48,235.41,25.58,234.84ZM39,227.22c-1.68-1.49-3.84-3.09-6-4.75l-1.22-1.29c.15.23.29.44.42.66-3.95-3.09-7.66-6.41-8-9.68,2.5,2.15,6.59,5.78,7.45,7.63-.32-.84-1-2.37.29-1.9l3.33,5.1c3,.62-3.06-4-1.79-4.52,3.17,3,3.3,2.12,5.1,3.69,0,.35,0,.7,0,1-.46,0-.81.1-.24,1a1.63,1.63,0,0,1,.34,0,7.5,7.5,0,0,0,2.26,4.27C40.14,227.89,39.52,227.52,39,227.22Zm2.55-2.84a16,16,0,0,1,4.92,2.3c-2.17-1.85-4.95-4.61-4.7-5.82.95-1.33,2.58.19,4.38,1.74.2,1.42.29,2.77.41,4.15l-.09-.07.09.08a27.5,27.5,0,0,0,.79,4.61A16.38,16.38,0,0,1,41.55,224.38Zm9.66-9.81c-.42-1-1.4-2-3.39-3.27l.19,0a4.63,4.63,0,0,1-.58-.3l.38.27-.62-.09c-.07-.16,0-.22-.09-.39-1.93-7.05,6-5.16,9.18-7.49C57.64,209.56,52.89,210.47,51.21,214.57Zm21.93-13c-.33-1-2-1.45-4.12-3.5l3.47,3.49c-1-.18-2.3-1.21-4.31-4,1.07,2.55,2.21,9.29.92,10.82-4.59-11.72-6.06.82-12-5.83a3.06,3.06,0,0,0,.44-1.2L59.33,203c-.22-3.94,2.92-5.55.34-10.67.56-.59,4.62,1.78,6.55,4.09.06-2.8-1.82-4.93,3.24-4.23,1.73,4.53,3.31,2.16.85,3.77,3.43-.46,6.75,1.89,3.8-4.93,2,2.56,3.77,3.6,5,3.72-.75,1.5-1.37,3,.27,6.27C75.9,198.51,74.92,201.27,73.14,201.55Zm16-3.23c-4.85-3.07-7-6.94-6.14-1.83a12.81,12.81,0,0,1-2.1-2.88,1.66,1.66,0,0,0,0-.66l-.33-.13a6.3,6.3,0,0,1-.41-1.54,5.06,5.06,0,0,1-.12,1.33l-3.76-1.5c.31-1.68,1.61-2.19,2.88-2.73l5.62,6.37c1.67.48,2.7.37,3.32-.1A5.19,5.19,0,0,1,89.12,198.32Zm-.52-4.38a3.91,3.91,0,0,0,.24-1.44l.85,2.77A12.41,12.41,0,0,1,88.6,193.94Zm-1.11-9.57c0-1.61.6-2.52,2.87-1.82-.15,1.16.59,3.31,1,5.17A19.18,19.18,0,0,0,87.49,184.37Zm7.05-3.24,1,7.8-1.28-1.05v-.64l0,.59-3.23-2.64,1.76-1.63c.48.26,1,.54,1.58.88a9.25,9.25,0,0,0-1-1.4l.32-.29a7.19,7.19,0,0,0-2-1c-1.87-.76-3.6.08-6.4-3.87C86.71,177.3,91.13,179.44,94.54,181.13ZM114.67,90l1.25,3.88C114.57,92.06,114.4,90.91,114.67,90Z"/><path class="cls-4" d="M47.43,211a3.16,3.16,0,0,0-.33-.21Z"/></g></g><path class="cls-5" d="M161.37,300c0,8.53-25.15,15.45-56.18,15.45S49,308.49,49,300a5.37,5.37,0,0,1,1.39-3.42c4.81-5.87,21.8-10.48,43.3-11.71a13.1,13.1,0,1,0,22.52,0c22.13,1.21,39.58,6,44,12.08A5.1,5.1,0,0,1,161.37,300Z"/><path class="cls-4" d="M118.53,241.25v-8.51a5.82,5.82,0,0,0-5.82-5.83h-6V0h-3V226.91H97.21a5.84,5.84,0,0,0-5.84,5.83v8.51c-20.64,6.69-37,28.31-42.3,55.89l1.32-.61c4.81-5.87,21.81-10.47,43.3-11.7a13.1,13.1,0,1,0,22.52,0c22.14,1.21,39.58,6,44,12.07l.6.27C155.5,269.56,139.18,247.94,118.53,241.25Z"/><path class="cls-6" d="M49.25,296.69l-48,259h206l-47-259s-20-13-54-13S49.25,296.69,49.25,296.69Z"/></g></svg>