<svg xmlns="http://www.w3.org/2000/svg" viewBox="0 0 195.68 210.26"><defs><style>.cls-1{fill:#fff;}.cls-2{fill:#d6cbba;}.cls-3{fill:#302a28;opacity:0.15;}</style></defs><g id="g._plant" data-name="g. plant"><path class="cls-1" d="M195.68,77.77s-11.7,3-16.76,12.5-5.44,17.92-19.49,21.46-20-.46-20-.46-3.25,6.12-5.58,11.8h-3.32l4.22-10.62s-3.65-4.6,15.46-17.69S181,78.72,195.68,77.77Z"/><path class="cls-1" d="M179.45,29.33c-6.62,9.78-23.17,22.82-33.09,22.82s-19.86-9.78-19.86-16.3-6.61,6.52-6.61,6.52-15,46.75-16.75,71.84a20.68,20.68,0,0,1,1.39,3.32,30.3,30.3,0,0,1,1.11-8.07c2.36-7.65,4.24-15.18,4.24-15.18a20.24,20.24,0,0,0,7.54,9.42,10,10,0,0,1,2.71,2.88c3.35-7,6.58-12.8,6.58-12.8s-3.47,0-6.93-4.86,8.66-14.6,13.85-19.47,17.3-12.16,17.3-12.16c0,7.3,3.46,12.16,3.46,21.9s-8.65,17-13.84,19.46-10.38-4.87-10.38-4.87c-1.72,1.21-5.14,9-8.16,16.56a47.56,47.56,0,0,1,2.78,12.73H88.85a29.39,29.39,0,0,0-7.94-9c-1.08,0-2.07,0-3,0l7.17,9,.48.6-2.67,2.67a25.56,25.56,0,0,0-2.08-3.27,112.38,112.38,0,0,0-8-9.38,13.24,13.24,0,0,1-5.49-1.87c-2.86,1.58-8.76,3.83-19.17,3.83-16,0-18.71-8-26.73-16S0,91.59,0,91.59c16-2.68,29.41-2.68,53.47,5.34,19.12,6.38,21.36,11.06,21.47,12.71,2.93-1.06,6.4-2.94,10.74-3.53L72.42,76.75s-2.11,2.34-16.89,0S49.19,30,49.19,30s12.67,2.34,21.12,7,16.9,16.37,16.9,25.73S74.53,74.41,74.53,74.41L89.46,106A21.14,21.14,0,0,1,95,107.07a13.6,13.6,0,0,1,5.63,3.61c1.23-16.18,4.9-44.41,15.93-68.31C128.28,17,136.43,16.3,149.67,16.3S176.14,0,176.14,0,186.07,19.56,179.45,29.33Z"/><polygon class="cls-2" points="67.37 122.6 140.35 122.6 132.53 200.26 75.19 200.26 67.37 122.6"/><rect class="cls-3" x="57.54" y="201.3" width="94.15" height="7.06" rx="3.53"/></g></svg>