<svg xmlns="http://www.w3.org/2000/svg" xmlns:xlink="http://www.w3.org/1999/xlink" viewBox="0 0 273.25 550.73"><defs><style>.cls-1{fill:none;}.cls-2{opacity:0.49;}.cls-3{clip-path:url(#clip-path);}.cls-4{fill:#fff;}.cls-5{fill:#d6cbba;}.cls-6{fill:#302a28;opacity:0.15;}</style><clipPath id="clip-path"><rect class="cls-1" x="-638.16" y="-520.42" width="335.67" height="460.22"/></clipPath></defs><g id="h._bottom" data-name="h. bottom"><g class="cls-2"><g class="cls-3"><path class="cls-4" d="M234.18-679.32c2.73,2.63,5.62,8.7,4.84,10l-4.74-6.82c1.69,5,3,1.83,4.36,8.34-2.23.23-6-7.41-6.31-10.35l-.69,3.78a28,28,0,0,1-2.36-5c-.2-.41-.4-.84-.66-1.32.26.72.27,1.13.11,1.32s-.58.18-1.09,0c-1.74-.6-4.73-2.66-4.38,0a10.31,10.31,0,0,0,.66,2.25l-1.39-2c-4.82,2.83-5.51,6.58-9.16,9.28,3.69,6.12,1.33,5.68,3.26,11.29-4-.17-10.06-2.93-13.1-.25-.43,4.51,2.59,5.54,3.84,9.78-3.7-5.36-6.71-2.7-7.53-7.75a22.35,22.35,0,0,0-3.78,4.47,29.76,29.76,0,0,0-2.75,7.68c2,1.85,3.27,2.41,4.19,4.47-.31,1.5-3.56-.89-5.17-3.57l-.15-.72c-.06,5.94-5.9,4.17-11.41,2.76-5.29-1.36-10.29-2.42-9.12,3.89l-.46,9c-2.74.57-1.58-4.88-5.46-7.08,1.41,12.37-8.68,4.3-8.47,13.06-7.26-6.66-9.8-4.29-11.95-1.16s-3.89,7-9.69,3.74l3,3.41c1.61,4.34-2.87-1.08-4.3-1.3,2.25,2.71,3.64,2.36,4.46,4.81-2.91,5.55-8.44,7.89-14.84,9.3s-13.62,1.91-19.39,4.09c-4.08,1.78,13,19.66,2,14.7l-4.17-7.46c-.11,6.64-3.55,9.34-7.08,11.91s-7.08,5.08-7.47,11c-.88-1.79-2.52-3.72-1.87-4.22-5.32-3.48-5.17,4-1.94,7.82-1.35.42-3.17-3.21-5.44-4.6-3.71-1.55,1.73,8.77-3,4.84a3,3,0,0,1-.86-1.58c-.08,2.22-4.11,2.65.81,6.75-4.57-.44-2.41,6.32-7,4.86,4,7-6.54.74.51,9.37-7.52-8.71-10.33-3.25-8.13,2.11-1.85-3-3.69-1.51-6.35-5.6a1.84,1.84,0,0,1,.25-.23l-.33.14.08.1c-1.57,1.65-1.65,4.63,2.62,8.73-12.36-7.33,1.36,13.79-12.33,2.4-.78,9-2.32,16.4-4.85,22.45-.47-.51-.87-1-1.2-1.42l1.38-3.08a10.84,10.84,0,0,0-1.51-3.54c.41-1.16.06-2.74-3.07-5.93-.93,7.38,3.48,16.76-2.52,18.63-2.15-.13-2.85-4.17-3.84-5.92a8.29,8.29,0,0,1-1.42,3.86c-.85-5,.38-3.94-1.67-12.31,1.15-1.67,4,1,5.09,3.93-.4-2.21,3.28.43,1.77-4.73-4.95-4.8-7.7-3.72-8,2.46-1.43-1.36-1.85-3.61-2.41-5.06a31.63,31.63,0,0,0,4.57,16.59,15,15,0,0,1-1.22,1.29h0c-2.38,2.26-5.06,4-4.63,8.86,5.44,4.31,7.31,12.6,9.65,15.92-8.72-10.94-5.93,1.05-17.06-14A12.62,12.62,0,0,0,17.78-495c-1.4-.05-3.06-1.28-5.13-4.8-.57,4.51,4.24,7.58,1.87,9.77-1.77-1.81-2-3-3.84-5.31,2.29,4.65,4.6,9.31,1.18,9.71-.87-1.09-2.29-2.15-2.08-2.76-2.51,4,3.62,14.74-3.26,15-6.7-8.81-3.79-1.32-10.72-7.82l.06,3.95,4.05,2.47c-1.81,1.6,1.63,8-2,7.28l-1.53-4L-5.53-467l4.35.7c1.78,5.17,8.73,8.25,4.62,8.67-.24-1.15-1.76,1.63-6.64-1.4,1.32,2.95,2.72,6-.19,5.65-2.5-1.79-7.25-7.6-8.9-8.8,4.72,6.21-2,5.6,2.28,12a37.25,37.25,0,0,0-5.11-5.27l3.94,5.2c-2.25-.63-3.08-1.22-5.8-4.11-3.18,1.59,9.38,7.62,2.9,6.86-.16-.58-.95-1.15-1.21-2.3-4.71,1-2.39,8.4-7.23,8.84-7.65-5.84.54-3.93-6.13-8.63-1.22,2.51-1.06,6.48-1.23,10.07s-.66,6.84-3.23,7.92l1.42,0c9.14,9.64-6.95-1.49-4.75,4.15-.75-1.46-4.67-5.4-3.76-4.32-4,1.06-2.54,7.48-3.07,14.25l-2.08-2.86c-3.67-.61-5,2.75-7.69,3.3,2.08,2.84.8,3.39,5,6.27-19.1-8.45-1.2,16.76-17.36,10,.47-.56-1-3.33-1.45-2.92l-1.18,6c4.58,3.69,3.07,1.92,7.17,4.23,2.11,2.85,3.1,5.75,2.23,6.7-1.28-4.35-6.94-6.4-10-7.88,1.44,1.09,2.66,2.7,4.07,3.88-9.52-5.12,8.37,8.35.7,6.29L-66-386.74c.22,2.08,2.36,5.78.7,6.28-5.42-4.16-1.33-3.23-5.38-7.09-1.14,1.81,6.66,11.76.4,8.56-.79-1.94,0-2.9-.74-4.83-7.27-3.89-5.93-2.33-7.91-2.06h.24l-.48,0h-.39l-4.19.14,2.2.8c11.08,13.67-.78,6.4,4.64,16-5.42-9.22-4.09-4.28-9.49-9.57h0l-1.09-1.12-1.08-1.12h0l.59.66c.38.41.73.76,1,1.09l.47.46c-2.18-.77-4.88-1.38-6.2-3.13,3.45,5.42-5.5-1.26-.4,6.62-1.89-1.6-1.39,1.15-5.72-3.33,0,2.93,3.53,2.54,5.7,4.78,4,8.17-12.89-1.13-7.55,10.26A23.82,23.82,0,0,0-98-355.68c-.35.5-.47,1.51-.29,3.24.56,1.71,1.44,3.76,2.22,5.74A17.24,17.24,0,0,1-99.68-352c-4.12-.91-4.67.7-3.91,4.08-1.33-1.76-3-2.68-5.42-4.11-.59,1.6,6,6.85,1.86,5.93a81.1,81.1,0,0,1-6.31-7.87c.43,2.92,2.62,7.4,3,10.33-3.54-2.52-4.07-5.27-5.69-7.68,0,2.73-.78,6.31,2.9,10.94-.36.53-.7,1.06-1,1.64a46.85,46.85,0,0,0-7.69-7.17c4.43,5.51,3,4.74,6.56,9.23l-1,1.94a16.82,16.82,0,0,1-2.36-2c1.34,1.73-2.51,0,1,4a2,2,0,0,0,.29.15,32,32,0,0,1-5,7.85c-1.07-2.37-1.57-5.26-4.26-6.68-4.67,8-15.48,8.36-24.88,8.17l1.33,7.94c-.66.29-2.89-2.19-3-3.83-4.13-.8,2.32,4.12,2.59,7.4-1.23,1.36-4.23-2.46-4.44-4.94-1.35,8.23-6.23,19.74-15.28,15.89l-.19-2.49c-5.4-.28,3.53,15.72-3.63,11.9v-1.55c-10,2.22-15.79,13.65-28,7.7,4.24,10-10.74.76-3.68,14-8.57-3.59-8.53-6.69-17.84-7.07-2.16.46,2,9.66.55,12.31l-4-6.74,1.09,8.87-6.32-7.16-1.1,3c1.07-.09,3.54,2,4.55,4-1.51,5-10.74-.07-12.84-3.5l-4.48,10.22a8.16,8.16,0,0,1-.72-5.13c-.76,5.24-4.77-7.78-4.91.09,1.4,1.25,2,4.21,2.75,5.63-4.27-3-8.61-.56-10.81,3l-2.07-5.05c-6.46,2.13-10.94,9.22-17.5,12.86,3.59.85,7.69,9.3,6.23,11.18l-4.87-6.77c1.31,5.15,3.55,1.57,4.12,8.47-2.91.55-6.3-7.25-6.24-10.4l-1.53,4.19c-1.4-2.05-1.35-3.58-2.73-6.42,1.34,5.16-9.22-4.33-6.56,4.44l-1.38-2c-6.55,3.63-8.11,7.79-13.21,11.17,3.42,6.28.56,6.08,1.83,12-5.05.22-12.16-2.21-16.57,1-1.57,5,2,5.82,2.61,10.36-3.45-5.53-7.86-2.33-7.72-7.79-5.14,4.13-6.59,5.22-11.15,13.88,2.09,1.88,3.54,2.4,4.17,4.59-.77,1.66-4.29-.71-5.65-3.53v-.8c-3.17,12.83-27-5.32-27.6,8.64l-3.16,9.91c-3.6.75-.57-5.3-4.82-7.53-1.81,13.52-12.09,5-14.42,14.67a18.64,18.64,0,0,0-4.75-3.65c-2.85-4.68-5.41-9,2.14-8.08l4.2,7.67c1.29-8.39,6.33-13.21,11.46-17.87s10.37-9.15,12.18-16.83c.78,1.94,2.53,3.76,1.57,4.64,6.27,2.43,7.67-7,4.24-10.63,1.88-1,3.47,2.9,6.15,3.84,4.51.64-.33-10.54,5-7.19a2.09,2.09,0,0,1,.77,1.69c.63-2.82,6.06-4.75.55-8.24,5.92-1,4.75-8.85,10.49-8.57-3.53-7.54,8.82-3.08,1.78-11.77,7.62,8.63,12.72.82,11.34-5.29,1.6,3.27,4.46.77,6.83,5.15a4.73,4.73,0,0,1-.4.37l.48-.28s0,0-.08-.1c2.5-2.57,3.46-6.36-1-10.29,7.11,2.84,7.67-1.42,8.31-5.11s1.37-6.77,8.67-1.49c.93-2.93,1.89-5.76,2.94-8.44s2.14-5.23,3.29-7.7a116.07,116.07,0,0,1,7.51-13.65c7.3,8.85-7.18,7.91,1.11,16.64,1.81-4.77,2.09-9.88,3-14.29s2.46-8,6.78-9.94c2.79-.33,2.25,4.64,2.94,6.64,1.88-4.75,5.37-7.42,8.64-10.14s6.38-5.42,7.47-10.4c-5.59-4.37-4.65-14.67-6.46-18.37,7.19,12.32,8.39-2.54,17,14.57a9.12,9.12,0,0,0-2.79-6.72c1.85-.2,3.52,1.06,4.82,5.12,2.62-5.77-2.45-8.79,1.64-12,1.58,2,1.38,3.38,2.84,6-1.08-5.45-2.12-11,2.62-12.05.68,1.22,2.06,2.33,1.58,3.11,5-5.46,1.8-18,11.11-19.37,4.83,10.14,4.43,1.11,10.6,8.33l1.75-5-4.23-2.55c3.14-2.28,1.7-9.8,6.25-9.37l.08,4.85,4.7-5.83-5.46-.37c.17-6.28-7.62-9.31-1.87-10.35-.26,1.41,3.2-2.29,8.18.95-.27-3.57-.58-7.32,3.15-7.15,2.42,2,5.8,8.79,7.39,10.12-3.11-7.29,5.52-7.18,3.18-14.75a23.46,23.46,0,0,0,4,6.13l-2.52-6.15c2.67.58,3.47,1.24,5.57,4.62,5.07-2.26-8.48-8.71-.22-8.34-.11.72.65,1.36.38,2.78,6.81-1.63,7.79-10.62,14.49-11.51,6.95,6.78-2.88,4.93,3.43,10.33,3-3.16,4.89-8.11,7.17-12.55s4.81-8.46,8.86-9.89h-1.87c-6.56-11.59,8.37,1.54,8.73-5.28.17,1.79,3.05,6.5,2.47,5.2,5.93-1.35,7.78-9.18,12.63-17.51l1,3.48c4.47.69,8.36-3.34,12.25-4-1-3.49,1.06-4.14-2.73-7.69,10.07,5.28,13,.12,15.79-5.18s5.19-10.92,13.72-6.56c-1,.66-.8,4.07,0,3.59,1.82-2.38,3.62-4.81,5.48-7.15-3.64-4.67-2.81-2.48-6.71-5.44-.92-3.54-.26-7.07,1.54-8.16-1.25,5.29,5,8,8,10-1.18-1.4-1.73-3.39-2.79-4.88,9.19,6.66-5.5-10.5,3.33-7.6l1.31,2.8c1.13-2.51.83-7.09,3.38-7.6,4.34,5.31-.44,4,2.3,8.86,2.71-2.11-.79-14.58,5.35-10.29-.29,2.36-2.1,3.43-2.38,5.81,7,5.14,6.27,3.22,9.07,3.05l-.3,0,.62,0h.37l5.82.18-2.36-1.12c-5.15-17.16,5.5-7.52,5.11-19.5.63,11.48,2.39,5.47,5.77,12.24l0,0,1.29,2.85A28.48,28.48,0,0,0-42.36-478c2.34,1.12,5.46,2.12,6,4.31-.71-6.73,6.34,2.06,5.2-7.72,1.37,2.07,2.64-1.22,5.15,4.52,2.12-3.43-2.82-3.36-4.1-6.22.31-5,4.36-4.35,8.45-4.15s8.27,0,8.93-7c3.65-7.4.78-15.4,4.4-22.07a7.17,7.17,0,0,1,2.76,5.34,15,15,0,0,1-.06,3.46c4.74,1.62,6.71-.15,8.25-4.16.43,2.22,1.87,3.53,4,5.54,2-1.76-2.66-8.81,2.06-7.14.75,2.72,2.13,7,2.32,10,1.62-3.43,2.15-8.93,3.93-12.38,2.71,3.46,1.31,6.71,1.63,9.73,2.21-3.39,6.34-7.66,4.22-14.25L18.47-521c1.08,1.2,2.39,5,2.17,6.18-.27,6.12-5-.13-6.28-2.26l1.28-2.46c-8.71-11.88-7,6.28-11.34,7.61L1.07-522.15,1-512.21c-2.15-2-5.52-6.89-4.25-9.33-5.35-3.11-.82,4.67-6,.81A1.79,1.79,0,0,1-10-522.4l-1.36,4.27c-.49-2.26-4-6.34-1.53-5.92-8-2.64-4.41,11.41-10.12,5.39l.11-.81c-5.32,7,3,7.2,2.15,18l-12.75-14.88,3.05,7.17c-.86.15-2.56.42-3.8-2.43-.1,6.15,2.09,2.7,3,8-6.89-4.24-7.88,8.22-14.71-2.12,1.65,5.83,5.52,2.11,3.86,7.76-7.6-11-3.13,4.37-9.29.83-2.44-6.51,2.37-5-3.84-8.58,3.85,11.13-7.38,1.34-9,4.8,4.51,8.07-3.81,6.69-6.69,11.94-.64-1.41-3.39-1.33-6.67-.86s-7.14,1.23-10.06,1l-.67-1.4c4,8.48-1.11,9.51-3.17,13-2.79-4.84-3.39-7.05-3-10.2l-2.89,1.79c.88,3,.79,4.84-.51,6.92l-2.92-6.4c-3.65,2.73-3.38,11.8-10.76,10.91,3.2,5.68,13.5,12.95,10.68,19.83-2-2.74-5.21-7.45-4.93-9.64-.13.93-.14,3.14-1.66,2.48l-1.1-6.3c-3.61-.81,1.48,4.92-.6,5.56-2.65-4.26-3.23-2.2-5.1-5.73.19-.7,2.66.78,2.3-1.31-2.5.5-6.54-.5-9.38-3.18,1.72,2.29,3.63,5.7,2.52,7.2-3.58,2.75-4.54-4.26-8.15-5,1,3.52-3.41,2,.6,8.39-1.13.69-3.24-2.12-4.77-3.55-.16,4.05-8.65,6.71-2.07,12l.79.12c0,.2-.12.28-.14.48-1.16,5.19-5,6.52-9.16,7.37s-8.63,1.29-10.88,4.72l-1.4-2.09c-2.14,4.88-7.34,7.1-6.92,13.36-1.1.75-5.2-2-6.43-4.77-1.77,3.52-.47,6-7,5.48.36-5.57-3.21-2.5,1.1-4.65-4.94.76-8.1-1.93-8.07,6.49-2.37-6.21-7.46-4.64-8.08-1.82l5.23,1.91c-1.42,2.16-3.46,2.92-5.52,3.71l-4-7.55c-6.76-1.49-7.65,4.46-8.7,9.62s-2.4,9.4-10.35,4.56c1.55,6.21,6.51.38,8.85,7.25-4.07,1.59-14.87-5.55-16-4.77-7.52-.29,3.06,13.17-3.71,14.27,2.43,1.93,7.86,7.92,6,12.91-4,1.66-11.81-6.92-11.15-10.47.67-.82,1.64-.36,2.22.48.42-1.7,1.08-3.82-2.24-5.4l1.38,2.73c-3.54-1.18-8,2.63-9.93-2.14-.69,3.64,1.23,4.54,3.57,4.6a8.69,8.69,0,0,0-5.64,2.58c-1.6,1.44-3.11,3-6.23,3.62,1.73.75,4.56,3,3.83,3.57-8.77,2.13.69,6.74-2.86,11.2-5.33-1.66-5.92-9.31-7.94-2.82-4.63-.33-5.56-5.82-6-8.6-.44,7.7-9.88,3-12.87,4l.59-3.6a5.43,5.43,0,0,1-2.48,3.79l5,3.73c-1.89.18-3,1-4.51-1,1.21,4.11,7.28,7,8.17,13.27-3.58-1.06-2.9,6.57-8.54.84,6.2-1.87-3.34-5-2.72-9a3.85,3.85,0,0,1-2.59,1.07,2.25,2.25,0,0,1-.83-2.05c-9.52-1.51,3.45,8.85-1.73,12.92-2.23-4-6.64-5.61-6.86-4.18,2.11-1.64,5.78,5,6.13,9.21-5.49,0-1.84,4.95-3.8,6l3-.34c2.24,4,.26,4.89-1.07,7.86a3,3,0,0,1-1-1.89c-.29,1.7-2.44,1.38-4.79,1-3.06-.52-6.45-1.15-6.44,2.37-3.58-.95-5.66-6.32-8.42-6.68,0,3.6-1.79,3.64-3.78,3.36,1.18-.78,2.38-1.55,3.55-2.3l1.34-11.82c1.61-1.45,5.23-.42,4.58,2.25,8.72-4.63-3-3.7-1.79-9,3.48-4.17,8.07-1.94,7.21,2.06a123.21,123.21,0,0,1,7.35-13.62,143.94,143.94,0,0,1,10.23-14.67,81.18,81.18,0,0,1,6-6.77,81.57,81.57,0,0,1,6.4-5.91,43.21,43.21,0,0,1,13.51-7.87l-1,4a12.7,12.7,0,0,0,3.55-3,12.07,12.07,0,0,0,2-3.41,30.69,30.69,0,0,0,1.42-7.48c.57-5,1.41-9.52,8.47-11.16l-.95,2.63c3.06-2.17,6-4.52,9-6.89s5.91-4.79,8.81-7.27,5.74-5,8.6-7.47c1.42-1.25,2.84-2.48,4.25-3.71s2.88-2.37,4.31-3.53A155.36,155.36,0,0,1-184-474.08c1.47-.86,2.92-1.69,4.4-2.43s3-1.39,4.5-2a53.07,53.07,0,0,1,9.16-2.75c-1.62-5.55,4.93-9.1,10.88-12.88,6.05-3.62,11.53-7.47,7.85-14.09,9-2,12.93-1.75,17.34-2.24s9.46-1.55,20.57-6.28c5.52-3.07,2.5-13.07,8.18-18.79l4.54,6.4.77-2.24h0l.85-2.52a10.31,10.31,0,0,1,2.49,2.17l-1,3.48c7,9.55,12.9,20.4,23.72,22.29l-.64-8.8,4.87,3.45-3.07,2.95c5.27,2.69,3.45-2,2.71-5.61,2.24,2.11,4.13,3.34,5.62,3.59l-3.26-11.9c3.37,3.23,4,8.54,8.23,8.45-1.49-5.55-8.25-6.68-7.44-11.78,5.26,2.67,7.47,6.53,6.78,1.17,2,1.92,2.83,3.65,2.93,5.25,0-4,4.11-5.11,1.28-10.6,6.13,3.58,5.52-6.69,12.38,2.19.29.69.56,1.12.8,1-.3-.41-.53-.64-.8-1-1.08-2.58-2.09-9.63-.59-11.44,5.17,13.08,7.23-4.83,15.42,7-5.17-11.34,5.4-11.29,5.49-20,.3.78.87,2.23.59,2.57,3-1,5.88,1.16,8.8,1.65-6-8-3.64-12.81-5.48-19.23,9,5,5.58,10.55,12.34,17-5.25-6.14.06-10.45-5.19-14.84,6,2.76,3.78.64,10.16,6.1-7.47-10,.78-3.37-2.18-10.83,7.16,2.08,8.23,8.35,9.44,2.49,4.13,1.55,3.71,7.59,3.71,7.59,3.81-2.84-4.09-8.53-6.72-13.35,2.7-5.63,6.41,3.71,10.94,6.21,1.16-4.15-2.2-12.56.07-13.93,1.13,1.06,1.88,1.18,2.65,3.06-1.84-8.15,8.34-7.31,5.76-17.32a9.46,9.46,0,0,1,1.5,1.07A72,72,0,0,1,22.27-599l4.38-3.19c2,2.75-2.29,2.72,1.07,6.79.75-2.44,1-5.82,1.46-8.65h0l4.85-3.6c2.75,4.69-4.68,5.76,2.77,8.55l-6.06.72c11.69,8-3,1.26,9,10.22,6.83-2.38,3.06-8.22,9.88-10.58-1.88-4.68-4.9-5.17-6.78-9.83,1.49-9.93,12.57,2.83,16.53,2.66-1.53,1.43-2,3.55,0,7.27,1.1,7.45,7.71,12.69,8.49,19.46-4.33-.48-7-5.93-7-5.93-4.65.64-5.22,2.88-4.22,6.72-1.55-1.6-3.42-2.05-6.25-2.75-.59,2.24,7,5.93,2.33,6.55-2.11-1.86-5.57-4.68-7.4-7a6.89,6.89,0,0,1-.11-1.53l-1.09-.75a5.2,5.2,0,0,0,1.2,2.28c.61,3.42,3.24,8,3.76,11.51-4.08-1.61-4.77-4.78-6.7-7.06.1,3.62-.73,8.79,4.65,13.13l2.3-.31c-1.51-.5-4.66-3-5.17-4-3.25-5,4-2,6.19-.85l.36,2.48c13.49,5.8,2-7.86,4.74-10.75l8.22,6.84-5.46-8c2.79.7,8.16,3.25,8.53,5.7,5.9.31-2-4.05,4.27-3.1a2.18,2.18,0,0,1,1.53,1l.27.87a5.1,5.1,0,0,0-.27-.87h0l-1.29-4c1.62,1.6,6.63,3.46,4.46,4.11,7.74-1-2.73-10.85,5.08-8.3l.35.69c.44-7.66-6.32-4.57-11.5-13.63l18.18,6.93-6.31-4.56c.6-.46,1.82-1.35,4.34.48-3.21-5-3.12-1.37-6.64-5.26,7.79.77,1.95-9.66,12.95-3.94-4.43-4.07-5.57.42-7.23-4.78,11.94,6,.2-4.74,7-4.23,5.39,4.35.78,5,7.61,5.5-9-7.58,5.26-3.83,4.71-7.2a42.53,42.53,0,0,0,4.5,2.34c.63-.45-5.37-4.34-7.91-6.18,2.32,1.85,3.25,3,3.41,3.84-7.85-4.87-.39-6.83-.78-12.15,2.51,1.84,8.58-4.41,13.54-6.15l1.26.9c-7.6-5.49-3.93-8.17-4-11.78,4.72,3,6.34,4.6,7.63,7.3l1.44-2.48c-2.21-2.12-3.11-3.7-3.07-5.84l5.61,4.22c1.63-3.47-3.08-10.81,3.43-12.61-2.88-1.91-7.66-3.48-11.65-5.55l-.94-3.59a9.81,9.81,0,0,1,2.74,2.53c-.29-.62-.8-1.61-.53-2.12a3.94,3.94,0,0,1,1.2,2,2.67,2.67,0,0,0,1.28-.28l2.29,2.75c3.37-.57-3.64-3.55-2.25-4.79,4.28,2.61,3.74.71,7,3,.19.65-2.58.27-1.24,1.87,1.81-1.26,5.6-1.81,9.28-.54-2.53-1.32-5.79-3.48-5.58-5.08,1.64-3.46,5.84,2,9.2,1.42-2.51-2.59,1.84-2.8-4.57-6.74.62-.93,3.72.7,5.69,1.37-1.82-3.39,3.93-8.37-4.05-10.58l-.72.16c-.08-.16,0-.26-.11-.44a7.79,7.79,0,0,1-.41-2,6.45,6.45,0,0,1,0-1H47.31a2.77,2.77,0,0,0-3.52,0H-7.68c-7.69,2.4-15.25,8.19-22.83,14.44-5.84,4.83-11.72,9.9-17.66,14a58.12,58.12,0,0,1-7.59,4.57l-1,.47c-.79.37-1.57.7-2.35,1l-1.09.39q-.4.15-.81.27l-.49.16-.63.17-.48.14-.68.17-.4.08c-.32.08-.65.15-1,.2a10.45,10.45,0,0,1-1.12.18c-4.23-3-9.84-2.21-11.95-5.87,5.63.43,9.5,2.55,6-1a11.06,11.06,0,0,1,5.28,3c-2.31-2.84.36-4.7-4.9-7.87,6.82,1,.77-6.19,11-1.62-2.25-1.55-6.88-6.33-6.65-8,11.08,8.1,3.22-5.24,16,1.34-5.07-3.45-5.48-5.81-5.2-8.09.29-2.12,1.22-4.16-.51-7.05a5.32,5.32,0,0,0-.36-.57,5.09,5.09,0,0,1,.4.32l.3.24h0l.2.17.24.2.14.14c.31.28.53.52.51.67a1.67,1.67,0,0,0-.16.12c.12,0,.15-.06.16-.12h0c1.88-1.39,5.31-.49,7.9-.76l-.82-.42c-.6-.32-1.18-.65-1.71-1h-78.4l-.79,1c-.92,1.15-1.88,2.33-2.87,3.51l0-3.51v-1c-.73.28-1.47.6-2.22,1-8.3,4-17.6,13.1-25.3,17.64,0,4.48-4.55,7.58,1.24,9.29-17.68,2-26.85,13.06-35.36,24.25s-16.44,22.4-31.79,24.67c2.38-2.06,3.76-7.17,1.84-5.55l-15,17c5.16,3.31,4.55.8,11.11,1.23.08,4.48-3,10.63-7.18,14.25,5.12-9.51-6.19-7.11-11.64-6.76,1.73.89,1.89,3.37,3.36,4.52-15.69-.31,6.21,10.26-10.5,15.31l-1.37-2.88c-3.51,5.08-5,11.79-10.43,15.35-6.48-3.38,2.73-6.57-.63-11.07-6.59,6.25-5.05,21.44-15.68,21.71,1.64-4,5.81-7.6,7.48-11.54-12-.16-11.46,2-17.27,5.46l.6-.29-1.17.62.56-.32-7.86,3.53a47.64,47.64,0,0,0,6.35-2.7l-11.81,6.31,4.38-1c1.58,10.4-2.21,14.83-6.89,19s-10.16,8.19-12,17.6c3.74-18.09-2.41-6.38-6.7-12.87-4.34,1-10.38,3.19-10.57.45-1.25,9.43-12.29,4.45-13.76,18.08-2-1.53-5.9,5-8.89-.67-5.66,7.79,4.56,1.68,6.07,4.52-2.52,8-10.57,11.84-18.87,16.61a64,64,0,0,0-12.07,8.36,33.37,33.37,0,0,0-5,5.81,30.48,30.48,0,0,0-3.56,7.58C-402.23-439-399-430.72-408-416.13c-6.78,1.06-3-9.7-3-9.7-9.06,3.69-13.52,8.94-17.68,16.92-.26-2.74-2.84-2.82-6.64-3-4.44,5.31,3.07,9.67-5.94,13.46-.85-3.06-2.54-7.61-2.12-11.93-4.18,7.35-6.59,16.28-11,23.77-4.64-1.48-1-8.2-.94-12.29l-4.49,6.63c-1.55,2.39-3.1,4.88-4.39,7.34-2.58,4.9-4.15,9.64-2.73,13.08l4.44-1.93c-1.87-.32-3.69-4.13-3-6.22,1.85-9.55,9.85-6.67,11.95-5.23l-3.06,5.38c3.66,1.46,6.43,1,8.67-.57s4-4.33,5.58-7.5c3.14-6.35,5.61-14.46,10.18-18.4l3.87,11.06c.86-5,1.7-10,2.62-14.89,3.8.14,9.2,3.14,6.07,8.37,9.8-2.22,2.83-8,12.18-8.92,1.21.09,1.31.72,1.06,1.54l3.82-8.09c.36,2.74,6.18,4.41,1.43,6.88a20.41,20.41,0,0,0,8.34-6,36.44,36.44,0,0,0,4.49-7.21c2.35-4.62,4-8.27,8.82-7.3l-.46,1.33c12.69-16.91-3.91-7,1.28-24.43l20.8,6.85-3.79-7.08c1.77-1.26,5.29-3.73,6.82-.91,2.27-9.34-3.3-1.54-3.29-8.39a17.69,17.69,0,0,0,8.32-4.08c2.5-2,4.8-4.41,7-6.54,4.43-4.26,8.57-7.35,13.59-3.55-1.21-6.87-10.39,3.3-5-7.19,5.63,3.87,7.61,1.3,9.58-2.47s4-8.7,9.52-9.59c2.42,7.06-6.68,10.31,4.45,8.57-3.47-12.44,15.41-10.38,19.89-17.3a14.71,14.71,0,0,0,4.08,3.15c1.83-1.2-2.34-7.05-3.79-9.94,1,3,.77,5.12-.29,6.79-5.84-7.16,10.46-14.35,18.49-25.51,1.42,2.91,22.34-12.7,34-18.28l.74,1.41c-4.27-8.64,6.64-15.68,12.48-23.24,3.36,4.49,3.51,7.27,1.29,12.46l6.64-5.75c-.37-3.63.71-6.6,4.36-11.11l2.83,6.74c8.68-7.85,12.62-21.55,27.17-27.69-3.55-5.53-20.88-6.12-11.48-19.73,2.59,2.19,6.64,6.12,5.08,9.76.75-1.61,1.92-4.89,4.63-5.45l-1,8.64c6.93-2.43-.45-6.09,4.11-9.21,3.15,3.91,5.41.12,7.38,3.68-.76,1.27-5,1.49-5.34,4.36,5.32-3.3,12.94-5.85,17.29-4.52-2.25-1.84-4.35-5.18-1.29-8.59,8.73-7.81,7,2.05,13.84-.36-.06-4.49,8-6.53,3.32-12.41,2.65-2.17,5.38.11,7.7.82,2.53-6.43,21.13-18.88,10.78-20.63l-1.54.59c.13-.31.38-.54.55-.89,4.94-8.69,12.85-14.34,21.22-19.46v0l5.11,1.23c-1.84,1.75,0,7.95-5.33,5.34.78.58,4.69,2.73,1.86,2.55l-3.76-1.44,4.26,7.84c-4.29,3.07-14.59-6.51-17.68-.64a6.3,6.3,0,0,0,1,2c-.74.53-1.51,1.08-2.29,1.55l2.67-1c2.5,3.43,7.75,8.09,10,8.15.53-.84,3.23-1.42,7-.07l1.19,2.76c10.94,4.53,21.76,10.17,31.3,8.39l-5.5-5.87,5.76,1-.32,1.3-.39,0a2.32,2.32,0,0,0-.38.06l-.36.08-.39.13a2.79,2.79,0,0,0,.32.28l.27.19.32.19.33.14h0l-.12.46a8.27,8.27,0,0,0,2,0h0l.57,0,.64.05.43,0h0a2.85,2.85,0,0,1,.54.13.44.44,0,0,1,.16.06.93.93,0,0,1,.53.46.34.34,0,0,1,.06.12,1.17,1.17,0,0,1,.05.2,2,2,0,0,1,0,.23,3.87,3.87,0,0,1-.27,1.23,246.14,246.14,0,0,1-28.9,22.2c-10.24,6.8-21,13.08-31.82,19.33-21.72,12.43-44.31,24-65.33,36.89-15.12,9.81,5.82,24.9-18.74,29.81l.1-10.59c-11.48,14.91-26.35,25.95-41.27,36.78s-29.67,21.7-41.17,35.85c.51-2.83-1-4.86,1.79-6.95-9.66-.29-22.2,16.59-19.25,20.61-4.74,2.91-3.77-2.78-8-2.73-4.08.86-6.66,5.26-9,9.17s-4.59,7.33-8,6.14c-.72-.23-.35-1.31.22-2.37-4.1,5.22-16.62,12-9.42,14.4-12.56,5.5-18.17,18.08-29.1,21.31-.61,10.45-20.31,11-15.18,21.11-6.35-9.66-24,7.14-27.29,16.6.06-4.47-8,1.7-8.35-4.12-7.44,6.08-13,13.2-8,16.8-22.41.19-21,30.66-39.74,23.1A751.16,751.16,0,0,1-529-269c-6.5-9.53,21.38-18.6,13-27.3-16.06,18.86-20.75,35.36-41.21,48.37-5.84,2.7-.38-6.1,0-9-8,9.48-17.24,16.66-26.15,23.78s-17.43,14.15-23.81,23.42h0s0,0,0,0h0c7.35,2.93-3,20.8-2.49,25.54-4.11-14.74-18.76,10.93-21.78-10.65-1.55,2.54-2.7,6.68,0,9-3.86,1.85-6.17,1.1-5.42-4.64-10,11.85-2.3,12.71-13.07,21.36-1.57-2,0-4.5-.79-7.7-2.3,8.23-4.63,16.47-15,22.22-.38-1.46-2.28-2.15-.65-3.87-14.43,13.27-17.69,31.39-37.39,41.53-2-12.58-8.06,2-15-4.61l-7.32,9.7,6.6.54c-8.11,6.44-10.75,17.61-19.59,20.89l3.44-7.92-13.8,13.76,10.76-4.22c-4.95,10.44,8.52,8.54-3.78,15.29,1.54-2.54-8,6.51-15.77,5.64,0,0,0,0,0,0-2,5.6-4,11.41-11.44,14.48-3.47-1.08-5.46-9.11-7.75-9.84,1.14,9.08-16.28,16.73-16.78,26.9-.21-2.75-2.85-6-3.92-6.28l.86,7.67c-5,1.48-6.18,1.16-8.12-2.4-11.62,8.15,10.32,6.42-4.35,12.9-.2-.7-.38-1.4-.54-2.11a6.54,6.54,0,0,1,.74-1.63c-.32.19-.62.41-1,.61-1.1-6.05-.07-12,6.8-11.93l1.36,2c4.61-1.62-10.63-11.8-2.84-11.11l.76,1.29c7.18-5.3,6.35-16.77,19.21-16-8.39-6.85,8.54-4.25-3.75-12.87,8.85.08,10.34,2.68,18.19-.16,1.55-1.1-6.37-7.35-6.46-10.06l6.58,4.26-5.23-7,8.71,3.83-.55-2.83c-.83.43-3.89-.48-5.7-1.83-1.19-4.67,8.88-3.57,12.26-1.41l-1.32-10.07a9.19,9.19,0,0,1,3.11,4.08c-2-4.69,7.67,4.88,4-1.74-1.76-.58-3.72-2.83-5-3.79,5,1.11,7.4-2.35,7.52-6.06l4.14,3.52c4.32-3.88,4.59-11.29,8.25-16.48-3.35.46-10.79-5.28-10.46-7.34l7.24,4.08c-3.54-3.9-3.67-.16-7.44-5.76,2.13-1.43,8.66,4,10.12,6.68l-.75-4c2.14,1.26,2.82,2.56,5.32,4.5-3.57-3.9,9.64.63,3.26-5.87l2.11,1.28a22.55,22.55,0,0,0,3.21-7.07,25.28,25.28,0,0,1,2.46-6.53c-5.8-4.2-3.33-4.94-7.15-9.52,4.08-1.8,11.11-2,13.26-6.08-1-4.69-4.38-4.29-7-7.94,5.43,3.59,7.59-.5,10,4.16,2.34-5.09,3-6.5,2.79-15.25-2.6-.95-4-.94-5.59-2.61-.11-1.64,3.93-.71,6.36,1.27l.34.67c-1.63-6,4.9-6.88,10.91-7.82,5.78-.91,11-1.91,8.19-7.84l-1.84-9.41c2.67-1.72,2.87,4.35,7.41,5-2.29-6-.33-8,1.88-9.62s4.77-2.71,3.63-7.17c9,4,11.12.71,12.66-3.29s2.54-8.7,9.21-7.32l-3.8-2.5c-2.57-3.93,3.19.1,4.7-.16-2.88-2-4.24-1.16-5.6-3.43,3.58-13.83,21.9-17.24,33.36-25.18,4-3.06-16.54-16.8-4.25-14.9l5.46,6.64a14.81,14.81,0,0,1,1.28-8.58,25.29,25.29,0,0,1,4.53-6.08c3.42-3.72,7-7.28,6.75-13.74,1.13,1.68,3.06,3.29,2.44,4,6,2.3,5-5.65,1.22-8.85,1.4-.82,3.7,2.59,6.25,3.49,4.06.72-2.72-9,2.64-5.92a2.53,2.53,0,0,1,1,1.46c-.1-2.39,4.14-3.84-1.45-7,2.45-.33,3-2.18,3.49-3.88s1.11-3.26,3.66-3c-4.79-6.52,6.94-2.29-1.17-9.95,8.61,7.63,11.22,1.15,8.61-4.12,2.14,2.85,4,.82,7.11,4.64a3.61,3.61,0,0,1-.25.3l.34-.22-.09-.09c1.59-2.1,1.53-5.32-3.26-8.82,13.58,5.31-2.05-14.65,13.06-5.19.11-2.49.27-4.89.53-7.16s.6-4.44,1-6.53a71.25,71.25,0,0,1,3.21-11.5c8.44,7.78-4.31,6.58,5,14.3.85-8.09-4-17.51,2.51-20.64,2.31-.24,3.07,4,4.15,5.77.9-8.14,9.31-8.95,8.61-17.57-5.84-3.82-7.65-12.6-10.1-15.83,9.21,10.59,6.51-2.11,18.19,12.69-.22-1.23-1.39-3.6-4.09-5.82,1.53-.15,3.28,1,5.43,4.47.73-5-4.37-7.64-1.71-10.36,1.86,1.72,2,2.94,4,5.23-2.33-4.73-4.66-9.49-.9-10.42.89,1.06,2.36,2,2.15,2.71,2.84-4.7-3.29-15.64,4.21-16.87,6.81,8.79,4,.93,11.2,7.17l.12-4.33-4.24-2.18c2-2-1.25-8.53,2.7-8.2l1.4,4.22,2.36-5.12-4.71-.26c-1.57-5.45-9-8-4.41-9,.17,1.23,2.06-2,7.17.76-1.22-3.09-2.51-6.33.65-6.25,2.59,1.69,7.32,7.55,9,8.69-4.66-6.3,2.59-6.37-1.51-12.93a31.62,31.62,0,0,0,5.11,5.27l-3.85-5.31c2.4.46,3.26,1,6,3.92,3.59-2.08-9.58-7.42-2.57-7.26.12.64.94,1.17,1.11,2.41,5.23-1.56,3.37-9.51,8.69-10.45,7.76,5.72-1,4.37,5.85,8.92,3.12-5.7.92-17.27,6.81-20.05l-1.55.07c-8.89-9.89,7.38,1.07,5.67-4.9.69,1.57,4.46,5.56,3.61,4.44,4.46-1.43,3.61-8.39,5.06-15.89l1.9,3c3.92.44,5.79-3.36,8.81-4.09-1.88-3-.39-3.67-4.6-6.59,9.88,4.13,10.79-.46,11.36-5.29s.78-9.9,9.12-6.56c-.6.64.63,3.62,1.14,3.14l2.19-6.61c-.13-.1-.22-.19-.33-.28l1.32-.15.9,1.31c4.89-2.72,6.18-8.39,7.36-14.36,3.17,1.44,2.85.39,4.56.13h-.25l.43,0h.13l-.3,0,3.41.28a12.81,12.81,0,0,0-2.64-.33h0l4.52-.25-2.28-.83c-3.9-5.87-4.37-8.17-3.8-9.48a11.36,11.36,0,0,0,8.74.78,17.67,17.67,0,0,1,1.49,1.55l-.05,0,2,2.41c-.74-1-1.36-1.73-1.92-2.39,2.25.81,5.08,1.43,6.22,3.33-2.81-5.89,5.78,1.29,1.59-7.26,1.79,1.72,1.71-1.28,5.64,3.56.55-3.19-3.39-2.73-5.37-5.15a7.8,7.8,0,0,1-.25-1.08,16.56,16.56,0,0,1,8.84-2.63,3.59,3.59,0,0,1-1.18-.86c2.43-.46,4.16-1.86,2.68-6.78,0-.32,0-.62,0-.92,6.2,5.39,7.69,1.2,10.22-.32l-.45-.66c1.76.44,3.85,1,3.93-.52l-1.28-1.62c1.33,2.19-2,.62-3.89.37l-5.84-8.37h.26c6.06,3.37,9.46,2.33,11.87-.1.4.7.76,1.39,1.05,2a19.2,19.2,0,0,0-.22-3,27.25,27.25,0,0,0,2-3c.11-.18.21-.36.32-.52a39.11,39.11,0,0,0,1.38,3.67c.36-1.93,1.12-4.25.8-7a5.25,5.25,0,0,1,3.27-2.15,34.8,34.8,0,0,0,3.35,3.29c-.86-1.39-1.45-2.42-1.88-3.24a11.33,11.33,0,0,1,4.72,2.56c-.39-3.71,1.43-5.19,1.2-8.73l1.81,2.52v-.4L-366-564c5.51-1.8,8.24-2.7,12.67-8.13l1.93,5c3.34-1.9-8.38-19.64-5.78-22.09l7.19,8c5.25-4.18,16.34-.36,16-12.11.83,1.34,2.48,4,1.85,5,2.65-1.54,13.35-1.16,5.56-11.32,4.78,5.37,5.27-4.7,5.75-9.93l3.64,6.11c-2.75-9.16-4.1-11.23-2.06-15.75,1.25.14,3.56,3.48,2.29,3.48,4.05.51-2-7.05,3.35-6.37l1.36,4.59c3.14-1.56,1.52-3.39.05-8.82.15-3.6,6.4-2.35,10.49,2.61-1.86-3.48-3.3-8.86-.57-8.53a7.84,7.84,0,0,1,2,4.31c3.72.28,4.34-2.6,4.92-5.16s1.11-4.78,4.74-3a11.22,11.22,0,0,0,3,3.1c-3.59,2.25-6.66,3.93-7.14,3.7,3.71,5.24,7.4,4.18,10.08,13.2-.35-5.72-2.21-17.4,2.52-16.9a15.39,15.39,0,0,1,1.69,1.6l.1.81c1.06.07,1.33-.85,1.3-2.15,1.56.23,2.62.48,3.59-.07,3.4,4.22,5.16,0,6.84-.8-4.12-5.75-1.57-6.23-6.55-9.73.27.32-.08.91-.82,1.74a1.78,1.78,0,0,0-.24,1.05c-.08-.16-.15-.37-.25-.59-.89.86-2.12,1.88-3.54,3-.84-3.83-1.29-7.21,2.64-5.09-1.81-4.32-3.6-8.82-4.36-11,7.73,6.8,14.81,8.52,18.82,13.22,2.42-6.5,9.51-9.67,5-22.83.39-2.35,3.68,2.15,5.36,3.57,0,1.64-1,2.09-.4,4,.76-4.67,7.16-6.47,2.59-14.72,5.72,1.25,2.88,8.45,6.68,4.08l1,2.81c8.74,3.25,9.15-4.15,10-11.23.17-1.32.35-2.64.59-3.86h-72a33.81,33.81,0,0,1-5.07,8.57c-1.17-2.33-1.76-5.19-4.54-6.5-2.21,4.11-6,6.38-10.48,7.67a60.27,60.27,0,0,1-14.22,1.93l1.79,7.89c-.63.34-3-2-3.22-3.63-4.17-.51,2.59,4,3,7.24-1.14,1.44-4.37-2.16-4.74-4.64-.87,8.37-4.9,20.2-14.27,17l-.37-2.46c-5.45.15,4.75,15.39-2.71,12.15l-.12-1.53c-4.93,1.51-8.6,5.23-12.62,8a24.48,24.48,0,0,1-3.11,1.82,14,14,0,0,1-3.36,1.2,14.3,14.3,0,0,1-8.19-.76c5.22,9.52-10.63,1.92-2.26,14.38-8.89-2.66-9.19-5.77-18.51-5.08-2.11.71,3.06,9.4,1.91,12.19l-4.73-6.25,2.07,8.71L-415-607.8l-.75,3.06c1.05-.2,3.76,1.59,5,3.48-.93,5.11-10.74,1.17-13.24-2l-3.26,10.68a8.13,8.13,0,0,1-1.34-5c-.13,5.24-5.7-7.13-4.9.69,1.55,1.05,2.56,3.91,3.44,5.23-4.61-2.45-8.6.61-10.33,4.46l-2.71-4.73c-6.14,3-9.6,10.72-15.61,15.25,3.67.34,8.91,8.14,7.72,10.19l-5.76-6c2,4.92,3.73,1.07,5.26,7.81-2.8,1-7.27-6.28-7.64-9.41l-.94,4.36c-1.67-1.83-1.84-3.34-3.61-6,2.06,4.92-9.78-3-5.89,5.35l-1.66-1.83c-6,4.56-6.94,8.89-11.53,13,4.34,5.69,1.47,5.91,3.61,11.56-4.9,1-12.29-.23-16.12,3.65-.75,5.17,2.91,5.44,4.23,9.82-4.28-4.9-8.11-1-8.85-6.45-4.39,4.92-5.66,6.25-8.72,15.53,2.38,1.51,3.89,1.78,4.88,3.83-.48,1.77-4.35,0-6.16-2.55l-.12-.77c-.5,6.68-7.63,6.34-14.3,6.24-6.4-.09-12.41,0-11.49,6.84l-1.31,10.35c-3.4,1.39-1.52-5.12-6.08-6.56.67,13.66-11,7.18-11.48,17.1-16.41-11.31-13.34,13-26.71,8.25l3.25,3.18c1.49,4.55-3.37-.54-5.08-.46,2.43,2.54,4.16,1.81,4.89,4.41-4.19,7-11.22,11.08-19.14,14.24s-16.66,5.5-24,9.24c-5.19,2.94,13,19.71.38,16.46l-4-7.66c-1.06,7.65-5.63,11.53-10.29,15.28s-9.27,7.5-10.63,14.55c-.8-1.9-2.47-3.78-1.63-4.51-5.89-2.89-6.82,5.85-3.49,9.54-1.7.8-3.34-3-5.86-4.16-4.23-1,.76,9.87-4.3,6.27a2.23,2.23,0,0,1-.79-1.64,2.11,2.11,0,0,0,0-.93,8.23,8.23,0,0,0,0,.93h0c-.46,2.6-5.4,3.95-.11,7.67-5.46.45-4,7.88-9.31,7.14,3.71,7.28-8,2.22-1,10.84-7.6-8.62-11.92-1.7-10.15,4.17-1.72-3.17-4.18-1-6.7-5.24h0a3.55,3.55,0,0,1,.34-.33l-.42.23,0,0,.06.07c-2.15,2.27-2.74,5.8,1.71,9.72-13.61-6-.7,16-15.17,5.42a106,106,0,0,1-9.82,27.44c-7.74-8.45,5.84-7.15-2.76-15.58-2.44,8.86,1.14,19.06-6.42,22.46-2.56.27-2.65-4.36-3.52-6.23-1.22,4.39-4.08,6.89-6.74,9.45s-5.13,5.18-5.41,9.87c5.74,4,6.43,13.63,8.65,17.06-8.45-11.37-7.29,2.46-17.82-13.34a9.8,9.8,0,0,0,3.59,6.22c-1.67.24-3.41-.91-5.24-4.68-1.5,5.5,3.66,8.19.41,11.26-1.77-1.8-1.82-3.13-3.59-5.56,1.87,5.08,3.75,10.16-.43,11.32-.83-1.12-2.3-2.1-2-2.86-3.73,5.25,1.53,16.83-6.76,18.46-6.33-9.17-4.28-.83-11.32-7.22-.23,1.56-.45,3.13-.66,4.72l4.35,2.12c-2.43,2.31.46,9.27-3.76,9.17l-1.07-4.52-3.06,5.77,5,0c1.15,5.86,8.84,8.13,3.87,9.49-.07-1.33-2.39,2.32-7.62-.33,1,3.28,2.11,6.71-1.28,6.84-2.62-1.64-7.18-7.67-8.93-8.77,4.45,6.51-3.41,7.15.47,14a26.68,26.68,0,0,0-5.08-5.33l3.71,5.45c-2.57-.31-3.45-.84-6.14-3.77-4.08,2.54,9.73,7.28,2.15,7.66-.08-.68-.92-1.2-1-2.52-5.81,2.14-4.47,10.55-10.31,12-8-5.49,1.4-4.83-5.65-9.14-1.92,3.26-2.5,8-3.4,12.33s-2,8.42-5.26,10.26l1.66-.25c9,9.77-7.89-.32-6.36,6-.66-1.62-4.52-5.53-3.65-4.42-4.9,2.11-4.35,9.6-6.24,17.9l-1.93-3c-4.22,0-6.44,4.35-9.71,5.56,1.93,3,.3,3.94,4.75,6.56-10.52-3.15-11.68,2-12.42,7.3-.36,2.66-.66,5.34-1.92,7.11s-3.56,2.55-8,1.39c.65-.78-.64-3.84-1.19-3.24L-863-176c4.76,3.5,3.28,1.67,7.69,3.59,2,3,2.65,6.34,1.47,7.67-.76-5-7-6.27-10.43-7.41,1.5,1,2.66,2.71,4.11,3.85-10.3-4.15,8.39,8.34-.27,7.5l-2.12-2.25c-.1,2.49,1.77,6.53-.26,7.49-5.66-3.87-1-3.64-5.11-7.45-1.64,2.45,5.82,12.85-1,10.33-.59-2.18.56-3.53,0-5.71-7.88-3.14-6.58-1.54-8.95-.78l-3.67.31c.46,0,.88,0,1.25,0a10,10,0,0,0,1,0l.42-.05.32-.06-.1,0-4.94,1.1,2.46.48c10.62,14.12-1.91,8,2.61,18.3-4.72-9.77-4.05-4.15-9.46-9.37h0l-2.17-2.24a30.07,30.07,0,0,0,2.11,2.22c-2.44-.45-5.52-.6-6.79-2.43,3.14,5.83-6.27-.3-1.6,8.14-2-1.52-1.84,1.71-6.2-2.77-.53,3.55,3.74,2.29,5.92,4.52.82,2.27.29,3.48-.89,4.26s-3,1.09-4.78,1.53c-3.59.86-7,2.19-4.82,8.55-.12,7.53,5.54,13.78,5.25,20.56-4.19-1.19-5.92-7-5.92-7-4.67-.15-5.59,2-5.19,5.91-1.3-1.83-3.07-2.58-5.73-3.74-.94,2.11,5.93,7,1.26,6.83-1.79-2.17-4.76-5.52-6.18-8.13.05,3.47,1.92,8.42,1.89,11.92-3.78-2.24-4-5.46-5.51-8-.48,3.58-2.09,8.53,2.55,13.64l2.32.07c-1.42-.74-4.16-3.64-4.49-4.75-2.42-5.44,4.23-1.34,6.24.16l0,2.48c12.4,7.88,3.2-7.36,6.35-9.78l7,8.07-4.14-8.69c2.65,1.14,7.52,4.53,7.49,7,5.78,1.28-1.28-4.3,4.7-2.33A2.19,2.19,0,0,1-898-101.2l-.66-4.09c1.35,1.84,6,4.5,3.75,4.78,7.76.28-1-11.1,6.27-7.28l.24.73c1.62-7.43-5.48-5.54-9.13-15.33l16.71,9.92-5.45-5.57c.65-.35,2-1,4.17,1.21-2.36-5.44-2.84-1.87-5.67-6.3,7.47,2.07,3.53-9.11,13.36-1.55-3.65-4.77-5.54-.6-6.28-6,10.71,8,1-4.58,7.63-2.85,4.55,5.22-.09,5,6.53,6.73-7.51-9,5.84-2.75,5.86-6.12-6.86-6.19.8-6.72,1.34-12,2.15,2.26,9.18-2.7,14.32-3.47l1.08,1.13c-6.47-6.8-2.41-8.72-1.86-12.26,4.09,3.83,5.37,5.69,6.16,8.58l1.83-2.13c-1.79-2.5-2.38-4.21-2-6.3l4.73,5.19c2.2-3-1.13-11.18,5.58-11.62-4.63-4.58-16.06-9.33-15.79-16,2.56,2.08,6.76,5.64,7.4,7.69-.21-.92-.77-2.68.7-2.37l3,5.48c3.42.13-2.89-4.17-1.27-5.1,3.69,3.4,3.53,1.46,6.31,4.32.06.66-2.58-.27-1.58,1.55,2-.85,5.84-.62,9.2,1.37-2.23-1.8-5-4.55-4.5-6.06,2.28-3,5.34,3.12,8.72,3.26-1.95-3,2.34-2.34-3.16-7.45.78-.79,3.5,1.44,5.29,2.49-1.13-3.66,5.44-7.3-1.91-11.09h-.74c0-.18,0-.27,0-.46-1.16-9.75,12.11-6.85,14-13.69l1.84,1.72c.46-4.72,4.46-7.32,2.35-13,.76-.81,5.14,1.21,7,3.6.6-3.39-1.27-5.6,4.63-5.78,1.18,5.11,3.5,1.94.29,4.37,4.14-1.25,7.67.93,5.46-6.69,3.73,5.4,7.84,3.55,7.67.94l-5.15-1.28c.71-2.08,2.34-2.95,4-3.85l5.46,6.52c12.73,1.62-3.08-22.06,13.39-14.32-2.86-5.56-5.89.11-9.62-6,3.27-1.76,14.55,4,15.33,3.26,6.7-.19-5.76-11.83,0-13.24-2.6-1.64-8.8-6.81-8.22-11.54,3.26-1.77,12.08,5.73,12.26,9-.4.79-1.37.41-2.07-.33,0,1.59-.12,3.56,3.2,4.84l-1.85-2.43c3.41.89,6.54-2.82,9.29,1.45a5.19,5.19,0,0,0-.73-2.6c2.66,2.32,2.69,4.41.18,4.89l7.68,1.69c2.63,7.69-7.74.41-10.12,2.38a1.1,1.1,0,0,0-.21.22c-.38.52-.41,1.46.11,3l-2.83-4.35c.56,4.09-6.55,8.7,1.8,18.43-1.76-.65-5.58-2.61-5.72-4.33-5.7,4.57,1.45,20.43-8,20.29l-2.77-2.66c.12,1.7,4.47,6.05.41,5.14-1.22-1-2.77-2.65-3.31-2.29.67,1.34,3.4,6.73.59,6.85l-2.61-3.71c-8,2.7,2.38,14.65,1.19,20.81-9.12-6.5-15.21-4.2-18.25-3.05l-1.24-1c-5.78,5.74-.31,16.39-.82,25-12.58-3.13-12.94,9.92-22.74,12.17,2.32.21,7.11,5.06,7.3,6.77-2.85.15,3.74,8.28-4.61,2.32l.51-.41c-9.08-4.56-8.87-.11-10.67,2l10.89,7.86c-10.12-2.42-11.24,2.57-11.92,7.32s-.91,9.3-9.3,6.15c1.84,3.31.61,5.1,2.46,8.39l-6-4c-4.21,3-6.31,4.6-8.16,10.54l-3.65-3.82c-2.26,2.59,15.06,14.84,13.77,17.69l-9.54-5c-3,5.06-14.17,5-9.06,15.22-1.29-.93-3.82-2.74-3.67-3.78-1.67,2.11-11.2,5-.17,11.5-6.42-3.22-2.66,5.66-.87,10.3l-5.75-4.17c6.25,7.06,8.3,8.43,8.44,12.92-1.14.25-4.59-1.92-3.46-2.31-3.76.8,4.73,5.46-.2,6.5l-3.15-3.52c-2.06,2.3.13,3.37,3.75,7.56,1.41,3.11-4.54,4-10.24,1,3.12,2.39,6.71,6.53,4.2,7.1a8.58,8.58,0,0,1-3.6-3.06c-6.78,1.86,3.13,10.75-4.63,10.16A12.13,12.13,0,0,0-867.11-28c2.05-3.11,3.9-5.53,4.43-5.53-5.51-3.3-8.2-1.14-14.53-8,.27.47.59,1,.92,1.51l.79,1.27c.09.14.19.29.27.44.38.58.76,1.2,1.13,1.82.1.15.19.31.28.46.29.47.56.93.82,1.4s.36.62.52.93c.35.62.65,1.23.92,1.8h0c.15.3.27.58.38.85,1,2.45,1.19,4.4-.61,4.88a17.38,17.38,0,0,1-2.16-.79l-.45-.66c-.94.3-.77,1.18-.14,2.29-1.45.33-2.46.49-3,1.29-4.85-2.43-4.44,1.78-5.51,3.07,6.17,3.46,4.22,4.74,10.08,6-.38-.17-.35-.81-.09-1.75a1.65,1.65,0,0,0-.29-1l.49.42c-.06.19-.15.37-.2.56s.17.33.22.49a.43.43,0,0,1,0,.16l.92.16.8.09-1.74-1.47a35.18,35.18,0,0,1,1.66-3.75c2.46,3,4.42,5.67.07,5.22,3.54,3.06,7.14,6.24,8.8,7.8-9.74-3.14-16.56-2.08-22.19-4.64.48,3.18-.43,6.08-.19,9.36s1.65,7,6.73,11.61c.81,2.08-4.16-.47-6.26-1-.78-1.38-.11-2.13-1.58-3.46,1.6,4.16-3,8,4.93,13.17-5.44,1.09-6.59-5.94-7.63-.88l-2.19-2c-8.94.64-5.58,7.06-2.69,13.21,2.73,5.9,5.11,11.6-4.3,12.39a5.68,5.68,0,0,1,2.12.47,14.08,14.08,0,0,0-6.51,7.14,29.93,29.93,0,0,0-1.15,3.13c-3.47,1.17-6.62,2.95-8.13,6.44.86-2.66-2.22-7.46-1.85-5.93A45.55,45.55,0,0,0-917.68,54l-1,.8c-.35.28-.7.58-1,.87l-1,.86L-922,57.72l-.8.77c-.39.37-.78.75-1.16,1.14l-.82.86c-.78.81-1.55,1.64-2.31,2.5-.22.23-.43.47-.64.71l-.45.51c-.51.58-1,1.17-1.51,1.76-.72.85-1.44,1.73-2.18,2.63-.35.43-.71.87-1.06,1.32-2.24,2.79-4.54,5.77-7,8.91L-941,80.24l-2.48,3.16c-.54.7-1.1,1.39-1.68,2.11s-1.11,1.4-1.68,2.1l-1.59,2h74.79a7,7,0,0,0-.82-2c-.11-.18-.23-.37-.37-.57.12.09.27.2.41.32l.29.24h0l.2.17.24.2.15.14c.31.28.52.53.5.67a1.58,1.58,0,0,0-.15.12c.11,0,.15-.06.15-.12h0c1.88-1.38,5.32-.48,7.9-.76l-.81-.42c-.79-.42-1.51-.84-2.16-1.25-.45-.28-.86-.56-1.25-.83l-.56-.41a31,31,0,0,1-6.24-6.52c-.09-.13-.2-.25-.31-.39l-.63-.77-.47-.54-.54-.6c-.26-.26-.51-.53-.79-.8l-.43-.41c9.85,1.74,9.82,6.56,18.51,9.79-7.34-3.36-5.22-7.69-11.67-9.82,6.25.75,3.38-.33,11.25,2.36-11-5.83-1.06-2.65-7.15-7.58,6.85.07,10.79,4.53,8.88-.09,4.1.33,6.74,4.9,6.74,4.9,1.67-2.86-7.51-5.53-12-8.59-.59-4.77,7,1.49,11.89,2.47-1.13-3.34-7.88-9-6.69-10.47,1.43.59,2.1.53,3.62,1.8A8.75,8.75,0,0,1-857.28,58c2.23-2.58,1.24-2.76-.37-3.17.59-2.48,2.54-4.66-1.8-9.2a11.94,11.94,0,0,1,1.74.53c-.69-.29-1.38-.58-2.06-.89.24-.3.51-.6.78-.9.25.16.52.32.84.49a9.69,9.69,0,0,0-.32-1,17.33,17.33,0,0,1,2-1.67c6.52,2,5.47,2.27,5.13,2.78-.48.34-1,.74-1.62,1.2.54-.31,1.07-.59,1.58-.86.19.46,1.47,1.22,6.48,2.88,3-2,1.39-4.37,1.36-6.6,4.43-2.21,7.5-4.74,10.83-13.16.83,7.68,12,.61,15-4.43l-9.24,1.7c4.21-4.73,8.77-7.78,13.4-10.91l3.1,8.42c25-7.37,22-41.08,47-39.45,1.09-8.6-12.67,5.09-12.73-3.85,9.2-6.15,25.79-4.12,28.47-6.3,8.9-3.66,8-9.72,9.24-15.62.06-.31.13-.61.2-.91s.15-.6.24-.9.19-.6.29-.89a13.9,13.9,0,0,1,.56-1.33c.08-.15.15-.3.23-.43a7.16,7.16,0,0,1,.37-.65,11.66,11.66,0,0,1,.89-1.27,7.69,7.69,0,0,1,.53-.63l.39-.41a17.74,17.74,0,0,1,4.2-3.05,9.41,9.41,0,0,1-4.13-2.66,5.4,5.4,0,0,1-.43-.52c-.14-.18-.27-.37-.4-.57l-.34-.6c-.11-.22-.2-.43-.29-.66-1-2.57-.66-6.11,2.8-10.73,9.19-6.17,18.49,1.12,14.68,7.42-1.87,1.87-3.46,2-4,1.09-2.05,3.11-4.81,7.09.62,6.84l-.82-3.24c6.18-1.11,17.65-11,18.06-5,3.91-6.43.84-6.31-3.73-4.44,11.69-5.6,15.5-13.29,27.78-19.85-2.85.19-6.75-1.19-5-2.63,18.85-10.68,3.61-10.39,13.93-20.6,9.26-1.67,4.7,10.35,13.49-1.88,8.84-3.24,6.54,5,5.38,9.14,6.53-12.92,21.54-12.8,28.06-16.76l-3.84,6.31c2.3-3.78,5-5.9,7.68-8.09l-6.92-2.15c3.83-1.78,6.53-4,8.07-2,.76-5.73-8.86-5.72-5.8-15.21,6.17-1.09,10.8-13.08,17.33-8.07-13.52,7.88,2.6,5.65-1.64,12.56a22.44,22.44,0,0,1,5.86-3.77c1,.31.6,1.66,0,2.72,17.25-4.85.11-11.79,13.42-22.43,1.18,4.86,8.47,4.13,10,1.63-5.37,4.27-7.31-3.76-4.61-10.42,10.68-4.2,7.54-9.55,12.23-12.86l-6.11,2.86c-1.12-4.89,3.47-7.91,8.49-13.81a1.84,1.84,0,0,1,.46,2.34c4.53-7,19.5-3.63,24.62-13.84,6.16-1.06,5.75,6.25,10.78,4.86,6.58-12.87,15-4.2,22.75-16.69-6.92-2.2-6.53-.61-2.64-11.36l-15.07,17.68,5.84-16.09c-5.41,4.28-8.91,12.12-12.76,13.91,2.32-8.23,2.71-6.61-3-8.45,13.05,1.15,11.21-15.89,23.54-18l9.18,11.91c16.86-5.11,17.85-24.12,36.68-34.51-3.82,7.13-6.25,14.35-5.14,21.63-2.07,4.93-6.73,1.78-9.56,1.79.93-3.09,3.38-5.53,3-8-4.14,9.84-18.9,23.25-13.45,31.28-11.59,6.72-1.73-11.08-12.16,3l-.59-3.67c-17,7.89-21.7,22.4-27.11,36.87-5.18,13.83-11,27.65-28.74,35.81a3.63,3.63,0,0,1,2.9-.1c-35,27.08-52.89,72.6-91.22,96-10,7.38-6.4,12.32-7.86,20.91l-7.53-3.06-1.69,15.39c-.13.35-.28.7-.44,1-.05.09-.08.18-.13.28s-.24.47-.37.69a2.6,2.6,0,0,1-.23.44c-.16.28-.31.53-.47.79s-.33.5-.51.73-.2.29-.31.43c-.22.29-.44.56-.68.82s-.47.55-.72.81-.47.47-.71.69a2.39,2.39,0,0,1-.23.22l-.67.58a26.57,26.57,0,0,1-4,2.7c-.32.2-.64.37-1,.55l-.18.1-.88.45-.61.3c-.5.25-1,.48-1.51.71-.26.12-.51.24-.78.35-.52.23-1,.47-1.56.68L-687,2.9l-1.59.67-2.53,1.1c-.39.16-.77.34-1.15.52l-1.14.53-1,.52c-.47.24-1,.48-1.41.75l-.9.49-1.08.66c-.3.18-.58.36-.88.56l-.35.23-.88.63-.9.68-.11.09c-2.66.9-5.33,1.78-8,2.65-3.87,1.29-7.73,2.55-11.35,4a85.48,85.48,0,0,0-10.19,4.72c-5.82,3.24-10.55,7.22-13.45,12.57l-15.52,19.09c-9.61,5.17,2.63-7.7-6.29-6.52-7.46,11.64-16,16.95-24.31,21.6s-16.32,8.77-22.84,17.74c-6.59-1.76-13-.05-19.39,3.42h150.86a8.08,8.08,0,0,1-.39-2,6.06,6.06,0,0,1,.07-1.61,5.6,5.6,0,0,1,.35-1.21,7.14,7.14,0,0,1,.65-1.14c.18,0,.35,0,.52.06l.44,2.55c2.15-.42,2.07-2.51,1.46-4.93,3.29-2.42,7.73-4.15,8-8.17l2.15,1.3c-.27-2.65.67-4.88,1-7.22,1.78-1.64,3.54-3.28,5.39-4.71a7.63,7.63,0,0,1,1,.67,10,10,0,0,0-.14-1.29A21.24,21.24,0,0,1-655.61,59c1,.7,1.22-.35-.6,1.75,2.34-1.28,4.68-1.25,5.28-2.66a18.68,18.68,0,0,1,4.2.3,7,7,0,0,1-1.2-2.89c2.34.3,3.72-1.36,3.26-3l-1.28-.08.16-.11c.53-.3,1.09-.57,1.64-.87l.43-.24c.23-.13.44-.26.65-.4l2.81,2.27c5.81-.28,4.64-4.58,3.49-8.77,3.71,1.13,6.19,2,13,.37,1.8-.89-1.27-6.1-2.16-9.89.4.06.66.05.74,0a2.45,2.45,0,0,0,1.31-.42l3.17,3.46-1.65-6.2,1.23-1.34,6,4.13.8-3.42a1.44,1.44,0,0,1-.49.08l-.27,0a7.66,7.66,0,0,1-3.35-1.49,3.65,3.65,0,0,1-.31-.24c-.13-.1-.23-.2-.35-.31s-.26-.24-.37-.36l-.07-.07c1.17-1.27,2.27-2.47,3.31-3.62h0l.42-.07.18,0c.22,0,.46-.05.7-.06,3.56-.19,8,1.34,9.61,3l3.44-12.1a7.58,7.58,0,0,1,1.54,5.08c.09-5.63,6.35,6.56,5.38-1.66-1.72-.85-2.87-3.71-3.85-5a7.86,7.86,0,0,0,7.79-1.67c0,.76-.06,1.51-.05,2.26a3,3,0,0,1,1.58-2.87l-.44-.42a14,14,0,0,0,2.54-3.95l3,4.56c6.76-4.38,10.52-13.27,17.11-19.25-4.06.33-9.91-7-8.62-9.44l6.42,5.34c-2.24-4.83-4.09-.54-5.82-7.15,1.44.66,2.86,1.22,3.82.94,2.27,1.93,4.36,5.42,4.64,7.48l.77-3.87A6.86,6.86,0,0,0-563.6-11a5.21,5.21,0,0,1,.08-.62,18.78,18.78,0,0,0,1.69,2.53C-564.15-14-551-7.86-555.43-16l1.85,1.63c6.52-6.08,7.53-10.9,12.47-16.22-2.75-3-2.93-4.54-3-6.36,1.12-.31,2.39-.54,2.72-2,2.29,4.47,4.42,5.37,6.78,7.62-1.92-3.19,4.58-2.2.2-11.24l5.94,4.23c6.2-.39-1.49-15.59,4-16.75,1.28,5.55,5.15,7.44,3.94,12.62,1.58-.84,3.44-.84,1.75-3.89,2.46,2.22,1-8.33,4.78-5-.42-2.28-2.79-7-.84-7.61a7,7,0,0,1,1,1.64c-.6-1.84.68-3.89-2-7l0-.14c11.57,9.06,12.19-9.16,22.72-.06a47.07,47.07,0,0,1,8.8-9.2c.54,1.43,1.23,2.19.38,2.07,6.57,1.65-4.48-14,2.95-12.24,6.47,5.65-.42,5.27,2.64,7.07,8.81,14,4.75-5.27,12.78,1.28l-.32,1.29c5.26,3.48,3-8.9,7.67-10.18a9.31,9.31,0,0,0,1.2,2.19c-1.35-8.92,2.56-14.33,5.34-18.58,2,6.3-.1,4,3.88,9.28,1.3-1.81-5.71-8.89-3.11-12.48,2.88,2.43,6.94,3.69,10.73,9.6l-3.12,2.2c6.16,6.94,4.13-2.7,6.65-2.31l1.73,3.58c4.44-4-.4-12.73,5.41-15.2l-2-2.3c-1.89-10.29,5.24,3.44,4.59-4.65l5.85,8.24c.77-3.22,2.11-12.35,4.71-16,1.66,7.61-.59,13.27-1,18.55,2-1,6.26-4.39,4.84-9.29-.31,1.3-.08,4-1.62,3.1-1.5-8.23-.26-13.39,3.72-15.44,8.89,17.33,12.54-1.46,22.8,10.09,3.34-10.15,15.16-5,22.61-10.57-10.3-11.57,2.12-1.7-6-15,1.36-1.9,2.2-2.09,2.86-1.33l-.49-.23.55.29,0,0,10.21,4.88c3.57,3.18-.09,4,1.8,6.93,4.68-1.27,5,4.76,9.7,6.84-3.29-4.53-2.5-7.74.87-7.21l-6.8-4.38c1.63-10.44,11.35,8.56,13.07-1.83l.59,5.29c1.54-4.19,10.95-6.08,7.69-18.59,1.41,1.26,4.19,4.58,3.44,6.29,8-2.36,9.17-20.46,18.44-16.86l1.34,3.61c.78-1.71-1.23-7.53,2.31-5.12.69,1.42,1.33,3.6,2.06,3.45.05-1.53.21-7.77,3.05-6.83l.61,4.56c9.35.43,5.44-15.05,9.93-20.59,5.51,9.76,12.72,9.85,16.32,9.89l.69,1.44c8.71-3.35,9.06-15.81,14.32-23.85,10.62,7.93,18.13-4.49,28.93-2.81-2.14-1.11-4.15-7.68-3.39-9.41,2.86,1,.94-9.5,5.77-.44l-.71.19c6.31,8,8.56,3.6,11.49,2.24l-6.24-11.91c17.07,12.75,15.49-17.24,28.25-4.42.07-3.92,2.27-5.15,2.32-9.07l3.53,6.28c5.81-1.24,8.69-1.91,13.84-6.93l1.38,5.16c3.64-1.6-6.25-20.41-3.34-22.61l6.4,8.7c5.82-3.6,16.62.9,17.46-10.94.72,1.41,2.14,4.18,1.4,5.12,2.82-1.36,13.69-.27,6.72-11,4.37,5.72,5.78-4.41,6.69-9.64l3.18,6.36c-2-9.37-3.21-11.53-.79-15.94,1.25.23,3.34,3.71,2,3.64,4.09.76-1.45-7.19,3.91-6.18l1,4.68c3.32-1.38,1.81-3.31.72-8.82.4-3.59,6.64-2,10.46,3.16-1.65-3.58-2.74-9,0-8.57a7.59,7.59,0,0,1,1.71,4.41c7.6,1,3.15-11.64,10.29-7.89a11.2,11.2,0,0,0,2.83,3.23c-3.77,2.14-7,3.74-7.44,3.49,3.43,5.43,7.25,4.46,9.42,13.67,0-5.81-1.19-17.62,3.57-17a15,15,0,0,1,1.63,1.65l.06.83c1.07.09,1.39-.84,1.42-2.16,1.58.27,2.65.54,3.66,0,3.26,4.33,5.28.11,7-.68-3.93-5.89-1.32-6.32-6.24-9.94.28.32-.1.91-.9,1.72.07-.23,0-.53.16-.72a15.41,15.41,0,0,0-1.5-.95c-1.63-4.41-3.26-9-4-11.16,7.53,7,14.69,8.89,18.59,13.69,2.76-6.49,10.1-9.7,5.85-22.93.44-2.35,3.69,2.19,5.36,3.62-.06,1.65-1.13,2.09-.51,4,.89-4.7,7.48-6.47,3-14.73,5.81,1.26,2.8,8.5,6.73,4.08l.93,2.82c8.83,3.12,9.36-4.43,10.25-11.58.86-6.87,2.08-13.28,11.38-10a12.54,12.54,0,0,0,1.33.51c-.46-.19-.9-.35-1.33-.51a5,5,0,0,1-1.74-1.37c8.25-.52,13.18-6.32,18.4-11.58s10.65-10.13,20.31-8.71c4.83-.11,1.71-5.22,1-10.34L9-364.72,7.2-374.36c.47-4.36,5.29-2.05,9.88-.46s8.92,2.46,8.29-4.68l-3.87-3.58c2.77-.78,5-7.52,8.19-2.5-.35-.92-2.53-4.83-.08-3.3l2.49,3.16,1.09-9.48c5.83-.77,9,13.19,15.46,9.28,1.3-2.92-.81-14.07-3.29-15.56-1,.52-3.8-.27-6.33-3.41l.74-3.18c-5.6-7.87-10.57-16.45-17.56-20.92,3.82-.37-7.06-11-2.49-11.31-2.46-1.78-8.53-7.11-8.64-11,2.57-1,11.2,6.66,11.8,9.5-.24.6-1.13.14-1.84-.59.21,1.35.39,3,3.42,4.6l-1.93-2.35c3.07,1.27,5.27-1.43,8.23,2.63a4.6,4.6,0,0,0-4.13-4.07c4.26.17,3-3.64,7.14-3.88-1.55-.8-4.41-3-4-3.31,6.1-.81-2.53-5.55-1.11-8.83,4.58,1.92,7.28,8.23,6.92,3.16,3.64.77,6,5.37,7.12,7.68-2-6.26,6.7-1.27,8.67-1.72l.59,2.84a2.41,2.41,0,0,1,.8-2.76l-4.89-3.65c1.4.08,2-.46,3.73,1.34-2.1-3.49-7.59-6.61-10-11.81,3,1.3.39-5,6.32.38-4.24.72,4,4.54,4.59,7.66.24-.42.8-.61,1.69-.54a3.42,3.42,0,0,1,1.2,1.78c7.69,2.51-5.12-7.65-2.2-10.23,2.81,3.57,6.63,5.5,6.41,4.37-1.19,1-5.8-4.86-7.18-8.34,4.23.77.11-3.77,1.34-4.39L51.51-472c-2.79-3.59-1.48-4-1.22-6.28a4.78,4.78,0,0,1,1.29,1.7c-.51-3.13,9.43,4,7.85-1.05,3,1.33,6,6,8.19,6.76-1.89-6.32,6.63,2.23,5.57-3.44-4.85-3.77-4-2.57-6.4-8.38L66-476l-3.66-8.68c-1.21,1,.21,5-1.18,4.94-2.27-4.67-1.34-3.47-5.38-6.58,7.87,5.09-.54-6.79,5.53-4.06l10.29,10.93c7.31,2.31-.48-10.14,5.64-10.74l-2.92-.83c-3.61-4.8,1.61-2.67,1.1-5.52,3.33,3.77,5.28,4.43,7.91,6.26a14.9,14.9,0,0,0,2.47,2,21.82,21.82,0,0,0-2.47-2c-2.6-2.69,2.83-2.15-3.66-9.81l6.09,3.4c4.71-.65-6.39-13.55-2.44-14.86,2.84,4.79,6.5,6.27,7.28,10.85,1-.81,2.41-.89.08-3.48,2.66,1.83-2-7.36,2.08-4.61-1.1-2-4.5-6-3.17-6.66a9.22,9.22,0,0,1,1.3,1.38c-1.17-1.75-.64-3.8-4.91-6.83,6.71,4.52,8.54,2.51,10.15.32s3-4.53,8.73-.61c.94-3.09,2.35-6.5,4-8.44.86,1.24,1.63,1.89.94,1.81,5.66,1.27-7.86-12.26-1.45-10.89,6.84,4.84,1.29,4.68,4.26,6.19,11.21,12.15,2.11-4.78,10.4.83l.14,1.14c5.17,3-.35-7.93,2.92-9.18a12.42,12.42,0,0,0,1.59,1.91c-3.75-7.91-2.24-12.77-1.27-16.59,3.37,5.6,1.08,3.54,5.74,8.21.5-1.61-7.07-7.84-6-11.06,3,2.13,6.53,3.2,11.2,8.45l-1.82,2c6.84,6.13,2.45-2.42,4.55-2.1l2.37,3.17c2.32-3.57-3.95-11.36-.09-13.61l-2.24-2c-4.36-9.24,5.06,3.06,2.32-4.17l6.86,7.38c-.28-2.86-1.7-11-.61-14.29,3.33,6.85,3.11,11.9,4.26,16.62,1.27-.91,3.69-3.87,1.26-8.27.11,1.15,1,3.58-.44,2.75-3.4-7.37-3.79-12-1.21-13.82,11.55,15.68,9.44-1.24,20.47,9.45,0-9,10.52-4.08,14.87-8.82-10.81-10.82,1.23-1.47-8.3-13.75.62-1.67,1.24-1.8,1.93-1.09l-.63-.34.69.4,0,0,9.14,4.86c3.52,3.05.87,3.6,3,6.34,3.33-.91,5,4.55,9.12,6.66-3.61-4.25-3.76-7.11-1-6.45l-6.29-4.32c-1.12-9.37,10.77,8.35,9.7-1l1.66,4.83c.11-1.86,1.86-3.08,2.93-5.29s1.48-5.33-1.13-11.12c1.37,1.25,4.24,4.43,4,5.94,2.84-.79,3.51-5.27,4.5-9.09s2.29-7,6.21-5l1.75,3.41c.26-1.5-2.44-7,.78-4.49.8,1.35,1.73,3.39,2.26,3.32-.27-1.39-1.33-7.06,1-6l1.35,4.21c7.26,1.26,1.35-13.24,3.87-18,6,9.48,11.49,10.22,14.26,10.66l.77,1.38c6.08-2,4.27-13.42,7.08-20.26,4.68,4.28,7.93,3.74,11.16,2.66s6.33-3,10.52-1.42c-1.77-1.34-4.17-7.67-3.8-9.17,2.3,1.3-.46-8.66,4.33.41l-.52.08c5.8,8.31,6.9,4.55,8.95,3.77l-6.11-12c7.24,7.23,9.65,3.93,11.75.5s3.81-6.93,9.19.12c-.31-3.63,1.22-4.41.94-8l3.19,6.45c4.26,0,6.34,0,9.81-3.64l1.4,5c2.55-.73-6.06-20.15-4-21.64l5.3,9.38c2.08-1.1,5.15-.08,7.75,0s4.65-.95,4.73-6.33l.31.77.11.29c.09.23.18.46.27.71s.12.35.17.53.15.44.21.65v-19.83ZM104.94-649.87c.75,1.55,1,3,.42,3.9A5.86,5.86,0,0,0,103-649C103.61-649.33,104.26-649.61,104.94-649.87ZM97.71-646c2.82,2.09,6.47,4.77,1.86,5.2l-2.51-1.83c.35,2.47,2.93,6.11,1.09,7.45-5.77-2.54-2.32-3.29-5.42-5.73A20.24,20.24,0,0,1,97.71-646Zm-12.42,8.44a4.12,4.12,0,0,0,.52-.24c.38-.18.75-.37,1.1-.58l.42-.24.25-.18c.28-.18.53-.37.79-.57a10.21,10.21,0,0,0,.83-.78,5,5,0,0,0,2.29,1.35c.14-.3.32-.58.49-.87,1.36,3.62,6.58,9.49.66,8.48-1-2-.08-3.6-1-5.64-3.59-.71-5.34-.85-6.34-.71Zm-4.1,2.18a8.52,8.52,0,0,0,.81-.27c.23-.1.45-.19.62-.28l-1.36.37.3-.68c.43-.12.86-.26,1.28-.4s.67-.22,1-.34l.24-.09A7.85,7.85,0,0,1,82.62-636l.27-.09-.89.37-.85.36A.36.36,0,0,1,81.19-635.41ZM69-629.61,75-623.42c2.13-2.57,3.66-6.1,5.21-9.74,12.22,11.53-1.06,7.88,5.48,17.41-6.54-9.17-4.81-3.58-11.12-7.8a37.11,37.11,0,0,1-4.35-.07C69.24-625.81,67.67-628.56,69-629.61Zm-1.13,2.41a5,5,0,0,1,.3,2.94,3.74,3.74,0,0,1-.63-.48c.23.28.4.55.55.77-.31,1.14-.92,2-1,2.4-.68.24-1.39.5-1.59,1.13C64.21-624,62-627.61,67.82-627.2ZM66-618.33a18,18,0,0,0,1.36,1.93,1.54,1.54,0,0,0-1.42-.16A4.54,4.54,0,0,0,66-618.33Zm-6.48-4.95,3.86,6.76A12.57,12.57,0,0,1,60.8-618c.06,2.12,1.45,2.31,3.11,2.46l.52.91a3.86,3.86,0,0,0,.89-.73,4.7,4.7,0,0,1,2.07.79c3,5.15-3.15,5.55-6.83,7.8a6.6,6.6,0,0,0,.08-3.23C58.38-615.65,52-624.51,59.51-623.28ZM-68-636.4c-.63-.09-1.28-.23-1.92-.34l-.25,0a33.21,33.21,0,0,0-3.54-3.2c3,.85,5.11,1.17,6.42.94-3.11-2.45-6.15-4.91-9.22-7.38,4.21,1.26,7.57,4.46,10.67,3.81l3.14,2.53c-.89,3-2.36,3.76-4.07,3.76-.2,0-.4,0-.61,0S-67.78-636.37-68-636.4ZM-85.3-544.66v0Zm-188.52-90.51c-.13-.25-.24-.54-.37-.8a27,27,0,0,1,1.62,3.23c-.45,1.53-1.58.6-2.55-.51A7.77,7.77,0,0,0-273.82-635.17Zm-32.78-35.15c-.28.31-.66.75-1.29,1.55a1.18,1.18,0,0,0-.08-.12C-307.4-669.49-306.92-670-306.6-670.32Zm-4.77,4.37c1.63,1.88,2.83,4.14,2.1,4.48-.58-1.6-2.93-1.73-5.09-2.77A11.11,11.11,0,0,0-311.37-665.95Zm-69.77,105.18c0,.5-.2.73-.52.76C-381.5-560.28-381.32-560.52-381.14-560.77Zm-77.85,61-1-.95c0-.92-.07-1.84-.08-2.74A7.09,7.09,0,0,1-459-499.73Zm-71.79,42.41.39.57-.13.05c-.13-.14-.23-.27-.37-.41Zm-4.78,20.09a.22.22,0,0,0,0,.08,2,2,0,0,1-.51.15Zm-19.64,7.84a2.6,2.6,0,0,1-.15,1.71,8.45,8.45,0,0,1-2.25-1.06A5.88,5.88,0,0,0-555.2-429.39Zm-11-5.47a29.54,29.54,0,0,0,3.46,3.75c0,.27,0,.59,0,1a7,7,0,0,1-4.89-3.11A6.81,6.81,0,0,1-566.22-434.86ZM-572.55-424a14.52,14.52,0,0,1,2.62,3.86c-1.93-.54-1.85,1.49-2.71,2.26C-572.66-419.74-572.67-421.9-572.55-424Zm-8.89,16.12c2.94,3.49,1.49,4.24,1.13,6.79a4.21,4.21,0,0,1-1.35-1.64.84.84,0,0,1-.31.86,17.49,17.49,0,0,0-.28-2.35,6.17,6.17,0,0,1,.47,1c-.08-.69.22-1.09-.53-1.35-.19-1.07-.44-2.14-.58-3.15Zm-.95-11.15a2,2,0,0,1-.47,2,15.63,15.63,0,0,0-1.57-1.58C-584.57-420-583.54-419.59-582.39-419Zm-19,11.6c3,1.6,6.68,2.1,11,5.78a2.21,2.21,0,0,0,0,1.6c-3.29-.88-6.42-5.54-8.86-5.9.67,2.34,0,2.9-1.18,2.91C-601.39-404.54-601.95-406.07-601.35-407.43Zm4.83,9.27c-.33-.43-.72-.91-1.15-1.4l.13-.94Zm-4.91-6c.24.41.44.78.62,1.11-.32,0-.65-.07-1-.12Zm-1.68,4.69c2.64,1.59,2.39,1.77,4.51,6.61l.7-5.08c.51.49,1.21,1.11,2.25,2l0-.11,2,4.5c1.35-1.39-.15-5.59,1.39-5.77,2.4,4.75,1.4,3.6,5.78,6.26-8.55-4.07.5,7.43-6.12,5.63l-11.19-10H-604A24.51,24.51,0,0,1-603.11-399.48Zm-3,18.76c.71,1.16.49,1.79,0,2.27C-606.08-379.17-606.09-379.94-606.08-380.72ZM-878.4-159h-.05l.23-.05Zm.26-.06-.06,0,.3-.09.28,0Zm268.91-217.59v.24l-.67-.55C-609.69-376.91-609.46-376.81-609.23-376.69Zm-5.52,4.06a24.81,24.81,0,0,0,1.81,1.94l-2.37-.81A2.92,2.92,0,0,0-614.75-372.63Zm-98.36,95.11c-5.23,1.76,3.88,4.63,4,8.24h0a2,2,0,0,0-.31,1.24,2.36,2.36,0,0,0,.25-.63,2.07,2.07,0,0,0,.06-.61,2.71,2.71,0,0,1,2.12-1,2.55,2.55,0,0,1,1.11,1.88c8.76,1.37-4.68-8.12-.69-11.84,2.69,3.7,6.92,5.19,6.87,3.89-1.62,1.48-6.05-4.61-7.06-8.5,5,0,.85-4.54,2.45-5.54l-2.65.3c-2.66-3.71-1-4.53-.28-7.26a3.63,3.63,0,0,1,1.23,1.75c0-3.62,10.57,2.8,9.62-2.91,3.38.95,6.05,5.94,8.58,6.34-1.08-7.16,7.6,1.27,7.42-5.27-5.15-3.47-4.28-2.25-6.14-8.65l-2.31,8.1-2.75-9.56c-1.67,1.46-.71,6-2.39,6.12-1.84-5.09-.95-3.84-5.22-6.72,8.53,4.43.63-7.94,7.45-6l10.37,10.86c8.44,1.2,1.37-12,8.92-13.95l-3.39-.37c-3.48-4.94,2.46-3.51,2.38-6.78,3.32,3.76,5.57,4.14,8.41,5.73a2.67,2.67,0,0,1-.43-.52,2.07,2.07,0,0,1-.2-.47s0,0,0,0a1.59,1.59,0,0,1,0-.43,1.74,1.74,0,0,1,.09-.43,7.19,7.19,0,0,1,.31-.76h0c.09-.2.19-.41.27-.63h0a4.48,4.48,0,0,0,0-3.37,8.49,8.49,0,0,0-.46-1.08c-.07-.12-.14-.26-.22-.39s-.32-.54-.52-.84-.41-.59-.65-.92-.5-.65-.8-1l6.75,2.69c5.83-1.82-5.3-14.72-.29-17.14,2.59,5.06,6.77,6,6.9,11.29,1.3-1.19,3.08-1.62.71-4.17,2.9,1.58-1.1-8.31,3.34-5.95-1-2.12-4.4-6.13-2.67-7.2a7.11,7.11,0,0,1,1.34,1.35c-1.12-1.81-.1-4.35-4.76-7,14.71,7.76,10.47-11.14,23.11-4.48-.09.28-.24.57-.35.84l1.68-.11c-.47-.31-.88-.48-1.32-.72,1.69-3.85,4-8.18,6.36-10.81.85,1.25,1.68,1.85.84,1.9,6.71.19-7.55-12.63,0-12.51,7.53,4.1.8,5.22,4.16,6.3,1,1,1.8,1.73,2.52,2.33l-.38-.14c-5.2,1.92,7.25,13.54,3,15.94-3.24-4.62-7.31-5.33-8.25-10.24-1,1.14-2.65,1.61,0,3.89-3-1.35,2.35,7.66-2.2,5.64,1.25,1.93,5.12,5.51,3.68,6.56a8,8,0,0,1-1.49-1.2c1.34,1.62.83,4,5.63,6.29-15-6.53-7.75,10.81-20.74,5.3-.85,3.7-2.19,7.86-3.85,10.45-1-1.1-1.92-1.6-1.16-1.72-6.28.29,9.44,11.22,2.38,11.59-7.81-3.28-1.76-4.77-5.1-5.54-13.15-10-1.95,5.91-11.45,2.27l-.26-1.22c-5.92-1.65,1,8.64-2.48,11a10,10,0,0,0-1.92-1.59c4.77,7.47,3.59,13.22,3,17.72-4.28-5-1.56-3.53-7.14-7.08-.35,1.95,8.52,6.23,7.81,10.1-3.46-1.34-7.43-1.32-13.1-5.44l1.75-2.82c-8.12-4.37-2.4,3.53-4.71,3.89l-3-2.65c-2.13,4.75,5.64,11,1.71,14.82l2.7,1.44c5.92,8.46-5.89-1.53-2,5.35l-8.43-5.54c.68,3,3.37,11.36,2.7,15.24-4.64-6.13-5.09-11.7-7-16.42-1.26,1.47-3.52,5.61-.24,9.46-.29-1.2-1.61-3.49.08-3.14q7.1,10.11,3.34,14.46c-15-12.54-10,4.92-23.64-2.12a7.35,7.35,0,0,1-1,5.54l-4.12-2.68c1.67-.18,2.47-.95,4.23.85-1.84-3.75-7.83-6.37-9.76-12.09C-717.24-275.74-719.2-282.76-713.11-277.52Zm-28.36,28.76.62.4a5.07,5.07,0,0,0-1.77-.22c5-.68,4.2-5,9.27-6.14-1.72-.64-4.72-2.65-4.18-3.15,7.49-2.19-2-6.13.4-10.34,5.13,1.38,7.13,8.39,7.69,2.4,4.23.18,6.11,5.21,7.06,7.75-1.11-7,8-3,10.65-3.79-3.32,3.53-10.13,4.57-12.89,9.5,13.79,6.91-1.06,2.1,11.62,11.11-.32,2.05-1,2.46-1.84,2l.52.06-.59-.09,0,0-10.8-1.15c-4.43-1.66-1.67-3.46-4.56-5.43C-733.66-243.3-736.55-248.44-741.47-248.76ZM-880.19-23.24c-.31-1.46,1.09-1.06,2.42-.44A6.4,6.4,0,0,0-878-21.6l.69.56A28.35,28.35,0,0,1-880.19-23.24Zm24.92,64.61c.59-.37,1.23-.75,2-1.13l.89.11Zm23.38-49.43-.14.15c-1.89-.91-3.62-2.13-3.82-2.79l.16-.22c1.24,1,3.21.46,5.44.67A7.79,7.79,0,0,0-831.89-8.06Zm339.66-139.18.82.09-.89-.13,0,0-4.78-.48.47-.57a20.81,20.81,0,0,1-7.31-1.4,3.17,3.17,0,0,1,1.38,1.43l-1.68-.16a3.81,3.81,0,0,1-2.17-1.72,5.6,5.6,0,0,1,1.9.24c-.72-.29-1.42-.6-2.09-.93-.16-1.27.56-2.61-1-4-2.21,1.43-3.73.84-5.29-.21a23,23,0,0,1-1.92-1.89c3.54-4.29,2.36-11.7,8.34-9.22-2.38,2.46-.71,4.3-.33,6.78l1.85-6.15c10.07,1.87-3,8,1.94,12.33.7-1.38,1.37-2.84,2-4.33,4.15,2.8.88,9.11,8.68,10.25-2-1.43-4-9-8.46-10.74q.94-2.26,1.87-4.6c13.15,7.85-2,2.49,9.43,13C-490.52-147.21-491.37-146.71-492.23-147.24Zm4.37-26.34c-1.18,1.85-2.13,3.4-1.53,4.07-3.37,1.66-6.77,3.45-9.31,6.41,3.31-8.36,6.51-16.82,11.95-20.26C-482.92-181.19-485.75-176.88-487.86-173.58ZM-315-414.95c-.31.14-.61.28-.89.44A4.34,4.34,0,0,1-315-414.95Zm-48.73,95.36c.27,2.1,5.26-1,9.27-2.21a102.26,102.26,0,0,0-7.47,7.39C-364.3-315.5-365.51-317.91-363.72-319.59Zm-7.34,15.43.1.1c-1.38,1.68-2.57,3.16-3.43,4.21C-373.66-300.8-372.64-302.08-371.06-304.16ZM-375-357.71l-.09-.07C-375-357.8-375-357.79-375-357.71ZM-378.82-347a18.54,18.54,0,0,1-5.37,5.92c.79-2.23.95-4.45-3.21-5A24.16,24.16,0,0,0-378.82-347Zm-6.42,10.59a1,1,0,0,1-.22-.6A4.11,4.11,0,0,1-385.24-336.38Zm-34.59,25c2-2.34,4.29-5,6.86-7.85-.51,5.84-1.49,11.46-8.77,13.51A34.9,34.9,0,0,1-419.83-311.38Zm-1.92,5.7c1.34,5.31,2.58,10.9,3,13.76a39.05,39.05,0,0,0-9.19.57C-423.95-295.62-423-300.71-421.75-305.68ZM-470.26-259l-6.86,2.19c-1.5-6.44,9.74-8.85,13.6-15.06a8.16,8.16,0,0,0,.68.94c-1.8,2.63-3.56,5.29-5.17,8C-468.8-261.68-469.56-260.36-470.26-259Zm69,8.84.08-1.45c-6.35-1.66-1.55,10.24-6.3,13.26a7.7,7.7,0,0,0-1.72-1.81c3.21,8.67.09,15.64-2,21-3.37-5.75-.69-4.12-6-8.09-1,2.33,7.91,7,5.82,11.65-3.58-1.44-8.18-1.22-13.43-5.89l2.91-3.41c-8-4.83-3.89,4.29-6.68,4.83l-2.57-3c-4,5.75,3,12.9-2.71,17.58l2.66,1.59c4.14,9.83-6.32-1.56-3.95,6.48l-7.95-6.25c-.17,3.59.29,13.43-1.72,18.12-3.38-7.16-2.14-13.79-2.82-19.36-1.92,1.81-5.8,6.85-3.26,11.32.06-1.44-.73-4.12,1.1-3.76q4.95,11.79-.76,17.18c-5.33-5.84-8.49-5.93-11.26-4.49-1.53-4.2-5.87-2.78-6.74-8.35,8.87-21.17,24.31-6,30.74-15.31.79-.14,1.36-.38,1.38-1l-.62-.34a18.91,18.91,0,0,0,1.55-5.15c-1.11-7.38-8-16.06,5.08-22l4.26,9.86c12.15-12.09-3.89-16.68,13-25.55.71,4.94-6.64,12.13-4,11,13.51-3.42,1.41-9.81,7.42-16.42l7.64,4.46c11.24-14.33,20.21-33.31,32.88-49,1.11,2.58.73,6.94,5.87,5.33,1.77-2.68,3.7-5.3,5.75-7.85s4.25-5,6.53-7.39a178.42,178.42,0,0,1,14.69-13.7c5.18-4.3,10.6-8.31,16-12.14q3.82-2.72,7.64-5.3c4.46,3,3.8,2.15,4.77,8.78l3.89-9,1.49,10.37c2.07-1.66,1.75-6.54,3.63-6.8,1.18,5.51.42,4.18,4.67,7.17-8.7-4.53-2,8.69-9.16,6.77l-9.78-11.39c-9.22-.87-3.34,13.24-12,15.83l3.72.21c3.15,5.18-3.23,4-3.6,7.54-3.17-3.9-5.62-4.16-8.57-5.72,2.59,2.66-4.67,3.79,1.51,11.73l-7.15-2.44c-6.72,2.47,4.08,15.64-1.74,18.65-2.29-5.3-6.84-6-6.33-11.72-1.61,1.4-3.64,2-1.3,4.59-3.06-1.48.29,9-4.38,6.79.85,2.23,4.22,6.28,2.21,7.6a6,6,0,0,1-1.35-1.36c1,1.86-.33,4.74,4.55,7.19-7.71-3.52-10.85-.2-13.71,3.24s-5.38,7.06-12.08,4.13a62.06,62.06,0,0,1-7.86,12.55c-.84-1.26-1.72-1.81-.79-2-7.39.64,7.46,12.85-.87,13.64-8-3.5-.55-5.57-4.19-6.33C-399.44-264.74-391.41-246.36-401.3-250.2Zm278.36-65.24c-.51-1.63-2.85-1.86-5-3a10.77,10.77,0,0,0,3-1.56C-123.29-318.07-122.2-315.75-122.94-315.44Zm1.68-7.26a.49.49,0,0,1-.08-.12c.46-.44.86-.84,1.18-1.13C-120.43-323.66-120.77-323.28-121.26-322.7Zm14.93-12.94-5.16-7a15.15,15.15,0,0,0-1.3,1.53,12.76,12.76,0,0,1-2.08-2.64c-2.72-5,3.56-.39,5.48,1.21l.24,2.09a29.91,29.91,0,0,0,3,2C-105.77-337.13-105.67-336.06-106.33-335.64Zm1.1-2c0-.1,0-.19-.07-.29,5.28,2.37-1.49-8.32.63-9.58l1.38,1.56C-103.12-342-98.8-335.84-105.23-337.68Zm16.77,49.77c-.12-.24-.21-.55-.34-.82a26,26,0,0,1,1.5,3.29c-.54,1.54-1.65.58-2.58-.56A8.38,8.38,0,0,0-88.46-287.91Zm-3.28-8.33c.29.73.57,1.47.82,2.12.17-.15.36-.3.52-.45a1.78,1.78,0,0,0-.29,1.05c-.07-.16-.15-.38-.22-.59-1,.84-2.24,1.85-3.74,2.93C-95.33-295.06-95.64-298.47-91.74-296.24Zm-5.93-43.57-3.11-6.87c2.48,1.72,5.71,4.53,5.91,6.25l.36.13C-94.79-339.36-95.7-339.07-97.67-339.81Zm14.34-8.37c-2-2.24-5.49-4.08-8.3-9.84l8.82,6.2c.16.38.32.79.47,1.23A4.91,4.91,0,0,1-83.33-348.18Zm10.09.12a9.15,9.15,0,0,1-1.47-2.57,20.23,20.23,0,0,1,3,2.1A1.84,1.84,0,0,1-73.24-348.06Zm2-1c-1.24-1.19-2-2.46-.71-3.35l-3,.91c-.44-3.31,4-3.54-1.81-6.95l2.23.15a25.93,25.93,0,0,1,2.89,2.16,10.63,10.63,0,0,0-2.2-2.12l2.51.16c-.6-.56-1.12-1-1.57-1.48,0-1.35-2.32-5.36,1.35-3.81a10.9,10.9,0,0,1,2.67,4.12C-69.67-355.9-69.81-351.14-71.21-349.07ZM-67-361.13c0,.17.06.33.1.51-.16-.13-.28-.26-.42-.38A1,1,0,0,1-67-361.13Zm2.6,11.3c1-.47-.29-2.58-.92-4.46l-.09,3.26c-4.89-5-1.92-4.61-2-6.74.54.28,1.3.63,2.42,1.1-2.26-2.6-2.77-3.79-2.38-4.25a86.79,86.79,0,0,1,6.47,9C-62.31-350.76-60.39-345.11-64.36-349.83Zm12.58-27.3c0-1.43.79-2.39.87-3.76a23.35,23.35,0,0,1,1.57,2.67C-50.07-376.73-50.88-376.57-51.78-377.13Zm13.42-7.62c-1.69-1.49-3.85-3.1-6-4.76l-1.22-1.28.42.66c-3.95-3.1-7.66-6.41-8-9.69,2.49,2.15,6.59,5.78,7.44,7.63-.31-.83-1-2.37.3-1.9l3.32,5.11c3,.62-3.05-4-1.78-4.52,3.17,3,3.3,2.11,5.1,3.69,0,.35,0,.69,0,1-.46,0-.82.09-.25,1a1.86,1.86,0,0,1,.34-.05,7.68,7.68,0,0,0,2.26,4.28C-37.23-384.09-37.84-384.45-38.36-384.75Zm2.55-2.84a15.77,15.77,0,0,1,4.92,2.3c-2.17-1.85-5-4.61-4.7-5.82.94-1.33,2.58.18,4.38,1.74.19,1.42.28,2.77.41,4.15l-.09-.07.09.08a27.39,27.39,0,0,0,.79,4.6A16.31,16.31,0,0,1-35.81-387.59Zm9.65-9.81c-.42-1-1.39-2-3.39-3.28l.2,0c-.19-.09-.37-.18-.59-.31.13.1.25.19.39.28l-.63-.1c-.06-.15,0-.21-.08-.39-1.93-7,6-5.15,9.17-7.48C-19.73-402.41-24.47-401.5-26.16-397.4Zm21.94-13c-.34-1-2-1.45-4.12-3.51l3.46,3.5c-1-.19-2.3-1.22-4.3-4,1.06,2.55,2.21,9.29.92,10.82-4.59-11.72-6.07.82-12-5.83a2.87,2.87,0,0,0,.44-1.21L-18-409c-.21-3.94,2.93-5.54.35-10.67.55-.59,4.61,1.78,6.55,4.1.06-2.81-1.83-4.93,3.24-4.24,1.73,4.53,3.3,2.17.85,3.77,3.42-.46,6.75,1.9,3.8-4.93,2,2.56,3.76,3.6,5,3.73-.74,1.49-1.37,3,.28,6.27C-1.46-413.47-2.44-410.71-4.22-410.42Zm16-3.23c-4.85-3.07-7-7-6.14-1.83a13.15,13.15,0,0,1-2.11-2.89,1.8,1.8,0,0,0,0-.65l-.34-.14a7.44,7.44,0,0,1-.41-1.53,5.15,5.15,0,0,1-.12,1.33l-3.75-1.5c.31-1.68,1.6-2.19,2.87-2.73l5.63,6.37c1.66.48,2.7.37,3.31-.1A5.15,5.15,0,0,1,11.76-413.65ZM11.23-418a3.71,3.71,0,0,0,.25-1.44l.85,2.77A13.86,13.86,0,0,1,11.23-418Zm-1.1-9.57c0-1.61.59-2.52,2.86-1.82-.14,1.15.6,3.31,1,5.16A19.62,19.62,0,0,0,10.13-427.6Zm7-3.25,1,7.81-1.28-1.06v-.63l-.05.58-3.23-2.64,1.75-1.62c.49.25,1,.54,1.59.88a10.18,10.18,0,0,0-1-1.4l.31-.29a6.88,6.88,0,0,0-2-1c-1.87-.77-3.6.08-6.4-3.88C9.34-434.67,13.77-432.53,17.18-430.85ZM37.3-521.94l1.25,3.87C37.2-519.92,37-521.06,37.3-521.94Z"/></g></g></g><g id="g._plant" data-name="g. plant"><path class="cls-4" d="M271.24,205.33c-7.25-9.48-34.79-39-39.26-41.21-4.76-2.38-19-7.13-26.15,0-.88.88-1.9,2-3,3.33,3-2.88,6-4.52,9-4.52,4.75,0,2.37,2.38,7.13,7.13s11.88,19,19,26.15,21.39,21.39,30.9,21.39C275.47,217.6,273.19,209.94,271.24,205.33Zm-90.81-8.1c-7,16-14.41,26.38-15.29,37.5-.78,9.9-7.23,52.79-10,77h3.68c1.44-20.8,3.93-48.35,7.85-68,0,0,13.9-44.85,22.41-58.09.67-1,1.31-2,1.95-3-4.92,6.65-8.91,12.36-8.91,12.36ZM249.88,47c-13.94-.85-33.29-4.82-51.37,16.47C187.92,76,174.17,93,167.19,108.57a279.41,279.41,0,0,1,10.35-33v0c.54-1.43,1.08-2.84,1.62-4.24-.55,1.4-1.09,2.81-1.63,4.24C180.19,62.85,185.37,42,193.16,28,199.09,17.29,200.9,7.25,200,.06A4.6,4.6,0,0,0,199,0a8.31,8.31,0,0,0-1.52.22c-7,1.71-19.44,13.08-31.07,28.46-.79,1.07-1.57,2.12-2.33,3.19-1.52,2.11-3,4.27-4.49,6.5v0c-9.32,14.17-17.19,30.41-19.82,45.36-7.12,40.36-7.12,57,4.75,61.73,0,0,1.19,1.18,5.93,1.18,0,0-4.74,47.49-4.74,80.72,0,14-.19,34-.41,52.35-5-32.64-13.47-83.46-19-96,0,0,6.28,2.09,12.56-8.38,3.6-6,1-20.89-4.21-35.7l2.1,10.54c-1-1.45-31.58-48.24-43.95-56.49a16.86,16.86,0,0,1-5.8-7c5.67,16.55,35.11,97,35.11,97s10.73,45.67,15.5,70.21c-.89-2.09-1.83-4.07-2.84-5.91-14.46-26.47-53.51-83.59-54.12-84.48.34.17,8.41,4.35,12.48,0S78.49,139.1,72.24,132.43,53.5,110.2,43.09,103.53s-14.57-2.22-12.49,2.22a27.52,27.52,0,0,0,4.16,6.67s25,28.91,33.32,37.8,50.82,78.2,61.84,99.13a64.49,64.49,0,0,1,4.5,11.81c-1.3-1.77-2.67-3.49-4.13-5.13-12-13.61-57.36-49.62-57.36-49.62s6.94,1.66,11.39-.59.67-9.14-4-10.92-23.71-17-30.75-20.66l-21.13-11s-23.08-4.88-25.15-.73S22,171.62,50.51,192.39s57.26,47.61,72,67.07c9.36,12.4,15.62,36.43,18.93,52.25H154.7c-.31-1.59-.66-3.29-1.06-5.07l1.79-3s-2.78-27.6,15-95.63l0-.09,7.88-42.15s.65-3.47,1.66-8.52c-3.52,13.12-10.66,39.28-15.69,55.24-3.7,11.74-9.61,43-14.31,69.6.22-42.81,1.06-105.53,4-136.62,0,0,3.42,3.41,8.81-17.35a17.4,17.4,0,0,0,3.26,8.92c9.87,13.43,14,13.44,15.44,12.7,1.38-6.56,3-14,4.58-19.87,2.85-10.81,9.72-21.8,9.72-21.8,14.17-19.54,43-36.95,60.75-46.48l6.76-5.38S263.82,47.87,249.88,47Zm-94.71,66.42v28.48s-7.12-4.74-7.12-19,0-40.34,21.36-61.7C169,62,155.17,87.74,155.17,113.44Z"/><path class="cls-4" d="M247.5,348.16c-27.22-33.5-50.25-94.22-54.44-96.32s-6.28,0-10.47,6.28c-4.7,9.39-9.76,33.88-13.3,53.59h-4.41c6.9-27.78,15.43-61.14,19.8-64.06,6.28-4.18,20.94-8.37,44,31.41S247.5,348.16,247.5,348.16Z"/><polygon class="cls-5" points="120.16 311.52 178.01 311.52 171.81 543.71 126.36 543.71 120.16 311.52"/><rect class="cls-6" x="103.89" y="543.68" width="94.15" height="7.06" rx="3.53"/><path class="cls-5" d="M202.77,167.5c-3.52,4.11-7.94,9.93-11.79,15.16C195.16,176.29,199,171,202.77,167.5Z"/><path class="cls-5" d="M170.42,207.94q2.37-9.1,5.26-19.2L170,210.06l.38-2Z"/><path class="cls-5" d="M182.11,149.23s-.82,3.08-2.14,8c.45-2.24,1-4.78,1.53-7.48A1.55,1.55,0,0,0,182.11,149.23Z"/><path class="cls-5" d="M201.13.46a3.58,3.58,0,0,0-.75-.31A3.12,3.12,0,0,1,201.13.46Z"/><path class="cls-4" d="M155.09,311.71l-.15,1.3c-.08-.42-.16-.86-.24-1.3Z"/><path class="cls-5" d="M271.24,205.34c-7.25-9.49-34.8-39-39.27-41.22-4.75-2.37-19-7.13-26.14,0-.88.88-1.9,2-3,3.33,0,0-.05,0-.05.05-3.51,4.11-7.93,9.93-11.78,15.16-4.92,6.66-8.92,12.36-8.92,12.36l-1.64,2.21c.17-.33.31-.69.46-1,7.13-16.64,14.26-26.15,21.39-33.28s14.26-9.5,28.52-2.37,38.81,41.35,38.81,41.35S270.38,203.34,271.24,205.34Z"/><path class="cls-5" d="M136.67,150.21c-1-1.45-31.57-48.24-43.95-56.49a17,17,0,0,1-5.79-7,.07.07,0,0,1,0,0c-.16-.52-.33-1-.46-1.38-4.18-12.56,0-20.93,0-20.93s-1,7.32,5.24,15.7,15.7,13.61,28.26,30.36c5.38,7.16,10.74,18.15,14.64,29.21Z"/><path class="cls-5" d="M256.54,61.61l-22.64,18s-21.21,26.69-27.46,37.5-22.22,43.42-22.22,43.42c-3.19,10-6,19.37-8.55,28.19L170,210.06l8.29-44.27s4.14-22.13,7.78-35.9c2.85-10.8,9.72-21.8,9.72-21.8C210,88.56,238.76,71.14,256.54,61.61Z"/><path class="cls-5" d="M199.09,26.79a528.49,528.49,0,0,0-21.56,48.76C180.19,62.85,185.37,42,193.15,28,199.09,17.29,200.89,7.25,200,.06a3.54,3.54,0,0,1,1.49.61,14.91,14.91,0,0,1,1.26,1C210.27,8.7,203.6,17.74,199.09,26.79Z"/></g></svg>