<svg xmlns="http://www.w3.org/2000/svg" xmlns:xlink="http://www.w3.org/1999/xlink" viewBox="0 0 421.96 518.25"><defs><style>.cls-1{fill:none;}.cls-2{opacity:0.49;}.cls-3{clip-path:url(#clip-path);}.cls-4{fill:#fff;}.cls-5{fill:#302a28;opacity:0.15;}</style><clipPath id="clip-path"><rect class="cls-1" x="44.17" y="17.47" width="335.67" height="460.22"/></clipPath></defs><g id="h._bottom" data-name="h. bottom"><g class="cls-2"><g class="cls-3"><path class="cls-4" d="M916.51-141.43c2.73,2.63,5.63,8.7,4.84,10l-4.74-6.82c1.69,5,3,1.83,4.36,8.34-2.23.23-6-7.41-6.31-10.35l-.69,3.78a28,28,0,0,1-2.36-5c-.2-.41-.4-.84-.66-1.32.26.72.27,1.13.11,1.32s-.57.18-1.09,0c-1.73-.6-4.73-2.66-4.38,0a10.31,10.31,0,0,0,.66,2.25l-1.39-2c-4.82,2.84-5.51,6.58-9.16,9.28,3.69,6.13,1.33,5.69,3.26,11.29-4-.17-10.05-2.92-13.1-.25-.43,4.51,2.6,5.54,3.84,9.78-3.7-5.36-6.71-2.7-7.52-7.75a22.1,22.1,0,0,0-3.79,4.47,29.91,29.91,0,0,0-2.75,7.68c2,1.85,3.27,2.41,4.19,4.47-.31,1.5-3.56-.89-5.17-3.57l-.14-.72c-.07,5.94-5.91,4.17-11.42,2.77-5.29-1.36-10.29-2.43-9.12,3.88l-.46,9c-2.74.57-1.58-4.88-5.46-7.07,1.41,12.36-8.68,4.29-8.47,13.05-7.26-6.66-9.8-4.29-12-1.16s-3.88,7-9.69,3.74l3,3.41c1.61,4.34-2.87-1.07-4.3-1.3,2.25,2.71,3.64,2.36,4.46,4.81-2.91,5.55-8.44,7.89-14.83,9.3s-13.63,1.91-19.4,4.09c-4.08,1.79,13,19.66,2,14.7l-4.16-7.46c-.12,6.64-3.56,9.34-7.09,11.91s-7.08,5.09-7.47,11c-.88-1.79-2.51-3.71-1.87-4.22-5.32-3.48-5.17,4.05-1.94,7.82-1.35.42-3.17-3.21-5.43-4.59-3.72-1.56,1.72,8.76-3,4.83a3,3,0,0,1-.86-1.58c-.08,2.22-4.11,2.65.81,6.75-4.57-.44-2.4,6.32-7,4.86,4,7-6.54.74.51,9.38-7.52-8.72-10.33-3.26-8.13,2.1-1.85-3-3.69-1.51-6.35-5.6a1.84,1.84,0,0,1,.25-.23l-.33.14.08.1c-1.57,1.65-1.65,4.63,2.62,8.73-12.36-7.33,1.36,13.79-12.32,2.41-.79,9-2.33,16.39-4.86,22.45-.47-.52-.87-1-1.2-1.43l1.38-3.07A10.8,10.8,0,0,0,721,13.5c.41-1.16.06-2.73-3.07-5.93C717,15,721.38,24.33,715.38,26.2c-2.15-.13-2.85-4.17-3.84-5.92a8.39,8.39,0,0,1-1.41,3.86c-.86-5,.37-3.93-1.68-12.31,1.15-1.67,4,1,5.09,3.93-.4-2.21,3.28.43,1.77-4.73-4.95-4.8-7.7-3.72-8,2.46-1.43-1.35-1.85-3.6-2.41-5.06A31.63,31.63,0,0,0,709.47,25a15,15,0,0,1-1.22,1.29h0c-2.38,2.26-5.06,4-4.63,8.86,5.44,4.31,7.31,12.6,9.66,15.92-8.73-10.94-5.94,1-17.07-14.05a12.62,12.62,0,0,0,3.91,5.88c-1.4,0-3.05-1.28-5.13-4.8-.57,4.52,4.24,7.58,1.87,9.77-1.77-1.81-2-3-3.84-5.31,2.29,4.65,4.6,9.31,1.18,9.71-.87-1.08-2.29-2.15-2.08-2.76-2.51,4,3.63,14.74-3.26,15-6.7-8.8-3.79-1.32-10.72-7.82l.07,4,4,2.46c-1.81,1.6,1.62,8-2,7.28l-1.52-4-1.88,4.49,4.35.7c1.78,5.17,8.74,8.25,4.62,8.67-.24-1.15-1.76,1.63-6.64-1.4,1.33,3,2.72,6-.19,5.65-2.5-1.79-7.25-7.6-8.9-8.8,4.72,6.21-2,5.61,2.28,12a37.25,37.25,0,0,0-5.11-5.27l3.94,5.21c-2.25-.64-3.08-1.23-5.8-4.12-3.18,1.59,9.38,7.62,2.9,6.86-.16-.58-1-1.15-1.21-2.29-4.71,1-2.39,8.39-7.23,8.83-7.64-5.84.54-3.93-6.13-8.63-1.22,2.51-1.06,6.48-1.23,10.07s-.66,6.84-3.23,7.92l1.42,0c9.15,9.64-6.95-1.49-4.75,4.15-.75-1.46-4.67-5.4-3.76-4.32-4,1.06-2.53,7.48-3.07,14.25L637,117.5c-3.67-.61-5,2.75-7.69,3.3,2.08,2.84.8,3.39,5,6.27-19.1-8.45-1.2,16.76-17.36,10,.47-.55-1-3.33-1.45-2.92l-1.18,6c4.59,3.68,3.07,1.91,7.17,4.22,2.11,2.85,3.1,5.75,2.23,6.7-1.28-4.35-6.94-6.4-10-7.88,1.44,1.09,2.66,2.7,4.07,3.88-9.52-5.12,8.38,8.35.7,6.29l-2.14-2.24c.22,2.08,2.36,5.78.7,6.28-5.42-4.16-1.33-3.23-5.38-7.09-1.14,1.81,6.66,11.76.4,8.56-.79-1.94,0-2.9-.73-4.82-7.28-3.9-5.94-2.34-7.92-2.07h.24l-.48,0h-.38l-4.2.14,2.2.8c11.08,13.68-.78,6.4,4.64,16-5.42-9.22-4.09-4.27-9.49-9.57h.05l-1.09-1.12-1.08-1.12h0l.6.66c.38.41.72.76,1,1.09l.46.46c-2.18-.77-4.87-1.38-6.2-3.13,3.45,5.43-5.5-1.26-.4,6.62-1.89-1.6-1.38,1.15-5.72-3.33,0,2.93,3.53,2.54,5.71,4.78,4,8.17-12.9-1.13-7.56,10.26a23.82,23.82,0,0,0,2.66,7.57c-.35.5-.47,1.52-.29,3.24.56,1.71,1.44,3.76,2.22,5.74a17.24,17.24,0,0,1-3.65-5.28c-4.12-.91-4.67.7-3.91,4.08-1.33-1.75-3-2.68-5.42-4.11-.59,1.6,6,6.86,1.86,5.94a84,84,0,0,1-6.31-7.88c.43,2.92,2.62,7.4,3,10.33-3.54-2.52-4.07-5.27-5.69-7.68,0,2.73-.78,6.31,2.91,10.94-.37.53-.71,1.06-1,1.64a47.29,47.29,0,0,0-7.69-7.17c4.43,5.51,3,4.74,6.56,9.24-.32.63-.65,1.28-1,1.93a15.73,15.73,0,0,1-2.37-2c1.34,1.73-2.51,0,1,4l.28.16a31.79,31.79,0,0,1-5,7.84c-1.07-2.37-1.56-5.26-4.25-6.68-4.68,8-15.49,8.36-24.89,8.17l1.33,7.94c-.66.29-2.89-2.19-3-3.82-4.13-.81,2.32,4.11,2.59,7.39-1.23,1.36-4.23-2.45-4.44-4.94-1.35,8.23-6.23,19.74-15.28,15.89l-.19-2.49c-5.4-.28,3.53,15.72-3.63,11.9V245c-10,2.22-15.79,13.65-28,7.7,4.24,10-10.74.76-3.68,14-8.57-3.59-8.53-6.69-17.84-7.07-2.16.46,2,9.66.55,12.31l-4-6.74,1.09,8.88-6.32-7.17-1.1,3c1.07-.09,3.54,2,4.55,4-1.51,5-10.74-.07-12.83-3.5l-4.48,10.22a8.16,8.16,0,0,1-.73-5.13c-.76,5.24-4.77-7.78-4.91.09,1.4,1.25,2.05,4.21,2.75,5.64-4.27-3-8.61-.57-10.81,3l-2.07-5.05c-6.46,2.13-10.94,9.23-17.49,12.86,3.58.86,7.68,9.3,6.22,11.18l-4.86-6.77c1.3,5.15,3.54,1.57,4.11,8.47-2.91.56-6.3-7.25-6.24-10.4l-1.53,4.19c-1.4-2.05-1.35-3.58-2.73-6.42,1.34,5.16-9.22-4.32-6.56,4.44l-1.38-2c-6.55,3.64-8.11,7.79-13.21,11.17,3.42,6.28.56,6.08,1.83,12-5.05.23-12.16-2.21-16.57,1-1.57,5,2,5.82,2.61,10.36-3.44-5.53-7.86-2.33-7.72-7.79-5.14,4.13-6.59,5.22-11.15,13.88,2.09,1.88,3.54,2.4,4.18,4.59-.78,1.66-4.3-.7-5.66-3.53v-.79c-3.17,12.82-27-5.33-27.59,8.63l-3.16,9.91c-3.61.75-.58-5.3-4.83-7.53-1.81,13.52-12.09,5-14.42,14.67a18.34,18.34,0,0,0-4.75-3.64c-2.85-4.69-5.41-9,2.14-8.08l4.2,7.66c1.29-8.39,6.33-13.21,11.46-17.87s10.37-9.14,12.18-16.83c.79,1.94,2.53,3.76,1.57,4.64,6.27,2.43,7.67-7,4.24-10.63,1.88-1,3.48,2.91,6.15,3.84,4.52.64-.33-10.54,5-7.19a2.11,2.11,0,0,1,.76,1.69c.63-2.82,6.06-4.75.55-8.24,5.92-1,4.75-8.85,10.49-8.57-3.53-7.54,8.82-3.08,1.78-11.77,7.62,8.63,12.72.83,11.34-5.29,1.6,3.27,4.46.77,6.83,5.15a4.73,4.73,0,0,1-.4.37l.48-.28s0,0-.08-.1c2.5-2.57,3.46-6.36-1-10.28,7.11,2.83,7.67-1.43,8.32-5.12s1.37-6.77,8.66-1.49c.93-2.93,1.89-5.76,2.94-8.44s2.14-5.23,3.29-7.7a115.12,115.12,0,0,1,7.51-13.64c7.3,8.84-7.18,7.9,1.11,16.64,1.81-4.78,2.09-9.88,3-14.3s2.46-8,6.79-9.94c2.78-.33,2.25,4.64,2.93,6.64,1.88-4.75,5.37-7.42,8.64-10.14s6.39-5.42,7.47-10.4c-5.58-4.37-4.65-14.67-6.45-18.37,7.18,12.32,8.38-2.54,17,14.57a9.08,9.08,0,0,0-2.79-6.72c1.85-.2,3.52,1.06,4.82,5.12,2.62-5.77-2.45-8.79,1.65-12,1.57,2,1.37,3.39,2.83,6-1.07-5.45-2.12-11,2.62-12.05.68,1.22,2.06,2.33,1.58,3.12,5-5.47,1.8-18,11.11-19.38,4.83,10.14,4.43,1.11,10.61,8.33l1.74-5-4.23-2.55c3.14-2.28,1.7-9.8,6.25-9.37l.08,4.85,4.7-5.83-5.46-.37c.17-6.28-7.62-9.31-1.87-10.35-.26,1.42,3.2-2.29,8.19,1-.28-3.57-.59-7.33,3.15-7.15,2.41,2,5.79,8.78,7.38,10.11-3.11-7.29,5.52-7.18,3.18-14.75a23.28,23.28,0,0,0,4,6.13l-2.52-6.15c2.67.59,3.47,1.24,5.57,4.63,5.07-2.27-8.48-8.72-.22-8.35-.11.73.65,1.36.38,2.78,6.81-1.63,7.8-10.61,14.49-11.5,7,6.77-2.88,4.92,3.43,10.33,3-3.17,4.89-8.12,7.17-12.55s4.81-8.47,8.86-9.89h-1.86c-6.57-11.6,8.36,1.53,8.72-5.29.17,1.79,3,6.5,2.48,5.2,5.92-1.35,7.77-9.18,12.62-17.51l1,3.48c4.47.69,8.36-3.34,12.25-4-1-3.48,1.07-4.14-2.73-7.69,10.07,5.28,13,.13,15.79-5.18s5.19-10.92,13.72-6.56c-1,.67-.8,4.07,0,3.59,1.82-2.38,3.62-4.81,5.48-7.15-3.64-4.67-2.81-2.48-6.71-5.44-.92-3.54-.26-7.07,1.54-8.16-1.25,5.29,5,8,8.05,10-1.18-1.4-1.72-3.39-2.79-4.88,9.19,6.66-5.5-10.5,3.33-7.6l1.32,2.8c1.12-2.51.82-7.09,3.37-7.6,4.34,5.32-.44,4,2.3,8.86,2.71-2.11-.79-14.58,5.35-10.29-.29,2.36-2.1,3.43-2.38,5.81,7,5.14,6.27,3.22,9.07,3l-.3,0,.62,0h.38l5.81.18-2.36-1.12c-5.15-17.16,5.5-7.52,5.12-19.5.62,11.49,2.38,5.47,5.76,12.24l0,0,1.29,2.84A28.48,28.48,0,0,0,640,59.93c2.34,1.12,5.47,2.13,6,4.32-.71-6.73,6.34,2,5.2-7.73,1.37,2.07,2.64-1.22,5.15,4.52,2.12-3.43-2.82-3.36-4.1-6.22.31-5,4.36-4.35,8.45-4.15s8.27,0,8.93-7c3.65-7.4.78-15.39,4.4-22.07A7.17,7.17,0,0,1,676.74,27a15,15,0,0,1-.06,3.45c4.74,1.62,6.71-.15,8.25-4.16.43,2.22,1.87,3.53,4,5.54,2-1.76-2.65-8.81,2.06-7.14.75,2.73,2.13,7,2.32,10,1.62-3.43,2.15-8.93,3.93-12.38C700,25.76,698.59,29,698.91,32c2.22-3.39,6.34-7.66,4.22-14.25l-2.33-.85c1.08,1.2,2.39,5,2.17,6.18-.27,6.12-5-.13-6.28-2.26L698,18.4c-8.72-11.89-7,6.27-11.35,7.6L683.4,15.74l-.06,9.94c-2.15-2-5.52-6.89-4.25-9.33-5.35-3.11-.82,4.67-6,.81a1.81,1.81,0,0,1-.75-1.67L671,19.77c-.49-2.26-4-6.35-1.53-5.93-8-2.64-4.41,11.41-10.12,5.39l.11-.8c-5.32,6.94,3,7.19,2.15,18L648.81,21.58l3.05,7.18c-.86.14-2.56.42-3.8-2.44-.1,6.15,2.09,2.7,3,8-6.89-4.24-7.87,8.22-14.71-2.12,1.65,5.83,5.52,2.11,3.86,7.76-7.6-11-3.13,4.37-9.29.83-2.44-6.51,2.37-5-3.84-8.58,3.85,11.13-7.38,1.34-8.95,4.8,4.51,8.07-3.81,6.69-6.69,11.94-.64-1.41-3.39-1.33-6.67-.85s-7.14,1.22-10.06,1l-.67-1.4c4,8.48-1.11,9.51-3.17,13-2.79-4.84-3.38-7.05-3-10.2l-2.89,1.79c.88,3,.79,4.84-.51,6.92l-2.92-6.4c-3.65,2.73-3.38,11.8-10.76,10.91,3.2,5.68,13.5,13,10.68,19.84-2-2.75-5.2-7.46-4.93-9.65-.13.93-.14,3.14-1.66,2.48l-1.1-6.3c-3.61-.81,1.48,4.93-.6,5.56-2.65-4.26-3.23-2.2-5.1-5.73.19-.7,2.66.78,2.3-1.31-2.5.5-6.54-.5-9.37-3.18,1.71,2.29,3.62,5.7,2.51,7.2-3.58,2.75-4.54-4.26-8.15-5,1,3.52-3.41,2,.6,8.39-1.13.69-3.24-2.12-4.77-3.55-.16,4-8.65,6.71-2.07,12l.79.11c0,.2-.12.28-.14.48-1.16,5.19-5,6.52-9.16,7.37S532,93.69,529.7,97.12L528.3,95c-2.14,4.88-7.33,7.1-6.92,13.36-1.1.76-5.2-2-6.43-4.77-1.77,3.52-.47,6-7,5.48.36-5.57-3.2-2.5,1.1-4.65-4.94.76-8.1-1.93-8.07,6.5-2.37-6.22-7.45-4.65-8.08-1.83l5.23,1.91c-1.42,2.17-3.46,2.92-5.51,3.71l-4-7.55c-6.76-1.49-7.65,4.46-8.7,9.63s-2.4,9.4-10.35,4.55c1.55,6.22,6.51.39,8.85,7.25-4.07,1.59-14.87-5.54-16-4.77-7.52-.29,3.06,13.18-3.71,14.27,2.44,1.93,7.86,7.92,6,12.91-4,1.66-11.82-6.92-11.16-10.47.67-.82,1.64-.36,2.22.49.43-1.71,1.08-3.83-2.24-5.41l1.38,2.74c-3.54-1.19-8,2.62-9.93-2.15-.69,3.64,1.23,4.54,3.58,4.6a8.72,8.72,0,0,0-5.65,2.58c-1.6,1.44-3.11,3.05-6.23,3.62,1.73.76,4.56,3,3.83,3.57-8.77,2.14.69,6.74-2.86,11.2-5.33-1.66-5.92-9.31-7.94-2.82-4.63-.33-5.56-5.82-6-8.6-.44,7.7-9.88,3-12.87,4l.59-3.6a5.43,5.43,0,0,1-2.48,3.79l5,3.73c-1.9.18-3,1-4.52-1,1.21,4.11,7.28,7,8.17,13.27-3.58-1.06-2.9,6.57-8.54.84,6.2-1.87-3.34-5-2.72-9a3.83,3.83,0,0,1-2.59,1.07,2.25,2.25,0,0,1-.83-2c-9.52-1.51,3.45,8.85-1.73,12.92-2.23-4-6.64-5.61-6.86-4.17,2.12-1.65,5.78,5,6.14,9.2-5.5,0-1.85,4.95-3.81,6.05l3-.35c2.24,4,.26,4.89-1.07,7.86a3,3,0,0,1-1-1.89c-.29,1.7-2.44,1.38-4.79,1-3.05-.52-6.45-1.15-6.44,2.37-3.58-.95-5.66-6.32-8.42-6.68,0,3.6-1.79,3.64-3.78,3.36l3.55-2.3L379.1,177c1.61-1.45,5.23-.42,4.58,2.25,8.72-4.63-3-3.7-1.79-9,3.48-4.17,8.07-1.94,7.21,2.06a123.21,123.21,0,0,1,7.35-13.62,143.94,143.94,0,0,1,10.23-14.67,87.31,87.31,0,0,1,12.38-12.68,43.21,43.21,0,0,1,13.51-7.87l-1,4a12.79,12.79,0,0,0,3.54-3,12.07,12.07,0,0,0,2-3.41,30.69,30.69,0,0,0,1.42-7.48c.57-5,1.41-9.52,8.47-11.16l-.95,2.63c3.07-2.17,6-4.52,9-6.89s5.91-4.79,8.81-7.27,5.74-5,8.6-7.47l4.25-3.71c1.42-1.21,2.88-2.37,4.31-3.53a155.36,155.36,0,0,1,17.32-12.39c1.47-.86,2.93-1.69,4.4-2.43s3-1.39,4.5-2a53.34,53.34,0,0,1,9.16-2.75c-1.62-5.55,4.93-9.1,10.88-12.88,6-3.62,11.53-7.47,7.85-14.09,9-2,12.93-1.75,17.35-2.24s9.46-1.55,20.56-6.28c5.52-3.07,2.5-13.06,8.19-18.79l4.53,6.4.77-2.24h0L587.32,4a10.54,10.54,0,0,1,2.49,2.17l-1,3.48c7,9.55,12.9,20.4,23.72,22.29l-.64-8.8,4.87,3.45-3.07,2.95c5.27,2.69,3.45-2,2.71-5.61,2.24,2.12,4.13,3.34,5.63,3.59l-3.27-11.9c3.37,3.23,4.05,8.54,8.24,8.45-1.5-5.55-8.26-6.68-7.45-11.78,5.26,2.67,7.47,6.53,6.78,1.18,2,1.91,2.83,3.64,2.93,5.24,0-4,4.11-5.11,1.28-10.59,6.13,3.58,5.52-6.7,12.38,2.18.29.69.56,1.12.8,1-.3-.41-.53-.64-.8-1-1.08-2.58-2.09-9.63-.59-11.44,5.17,13.08,7.23-4.83,15.42,7-5.16-11.34,5.4-11.28,5.49-20,.3.78.87,2.23.59,2.57,3-1,5.88,1.17,8.8,1.66-6-8-3.64-12.82-5.48-19.24,9,5.05,5.58,10.55,12.34,17-5.25-6.15.07-10.46-5.19-14.85,6,2.76,3.78.64,10.17,6.1-7.48-10,.77-3.36-2.19-10.83,7.16,2.09,8.23,8.36,9.44,2.49,4.13,1.55,3.71,7.59,3.71,7.59,3.81-2.84-4.09-8.53-6.72-13.35,2.7-5.63,6.41,3.71,10.94,6.22,1.16-4.16-2.2-12.56.07-13.94,1.13,1.06,1.88,1.18,2.65,3.06-1.84-8.15,8.34-7.31,5.76-17.32a9.57,9.57,0,0,1,1.51,1.07,70.17,70.17,0,0,1-5.06-5.22c1.46-1,2.91-2.12,4.38-3.19,2,2.76-2.29,2.72,1.07,6.8.75-2.45,1-5.82,1.46-8.66h0l4.85-3.6c2.76,4.69-4.68,5.76,2.77,8.55l-6.06.72c11.69,8-3,1.26,9,10.22,6.83-2.38,3.06-8.22,9.88-10.58-1.88-4.68-4.9-5.16-6.78-9.83,1.49-9.93,12.57,2.83,16.53,2.66-1.52,1.43-2.05,3.55,0,7.27,1.1,7.45,7.71,12.7,8.49,19.46-4.33-.47-7-5.93-7-5.93-4.65.64-5.22,2.88-4.22,6.72-1.55-1.6-3.42-2-6.25-2.75-.59,2.24,7,5.93,2.33,6.55-2.11-1.86-5.57-4.68-7.4-7a6.85,6.85,0,0,1-.11-1.53L726.5-46a5.2,5.2,0,0,0,1.2,2.28c.61,3.42,3.24,8,3.76,11.51-4.08-1.61-4.77-4.78-6.7-7.06.1,3.62-.72,8.79,4.66,13.13l2.29-.31c-1.51-.5-4.66-2.95-5.17-4-3.25-5,4-2,6.19-.85l.36,2.48c13.49,5.8,2-7.86,4.74-10.75l8.23,6.84-5.47-7.95c2.79.7,8.17,3.25,8.53,5.7,5.91.31-2-4,4.27-3.1a2.18,2.18,0,0,1,1.53,1l.27.87a5.1,5.1,0,0,0-.27-.87h0l-1.29-4c1.62,1.6,6.63,3.46,4.46,4.11,7.75-1.05-2.73-10.85,5.08-8.3l.35.69c.44-7.66-6.32-4.57-11.5-13.63l18.18,6.94-6.31-4.57c.6-.46,1.82-1.35,4.34.48-3.21-5-3.12-1.37-6.64-5.26,7.8.77,2-9.66,12.95-3.94-4.43-4.07-5.56.42-7.23-4.78,11.94,6,.2-4.74,7-4.23,5.4,4.36.78,5,7.61,5.5-9-7.58,5.26-3.83,4.71-7.2a42.53,42.53,0,0,0,4.5,2.34c.63-.45-5.37-4.34-7.91-6.18,2.32,1.85,3.25,3,3.41,3.84-7.85-4.87-.39-6.83-.78-12.15,2.51,1.84,8.58-4.41,13.54-6.15l1.26.9c-7.6-5.49-3.93-8.17-4-11.78,4.72,3,6.34,4.6,7.63,7.3l1.44-2.48c-2.21-2.12-3.11-3.7-3.06-5.84l5.6,4.22c1.63-3.46-3.08-10.81,3.43-12.61-2.88-1.91-7.66-3.48-11.65-5.55L799.1-123a9.67,9.67,0,0,1,2.74,2.54c-.29-.63-.8-1.62-.52-2.13a4,4,0,0,1,1.19,2,2.64,2.64,0,0,0,1.28-.28l2.29,2.75c3.37-.56-3.64-3.55-2.25-4.79,4.28,2.61,3.75.71,7,3,.19.65-2.58.27-1.24,1.87,1.81-1.26,5.61-1.81,9.28-.54-2.53-1.32-5.79-3.48-5.58-5.08,1.64-3.46,5.84,2,9.2,1.43-2.51-2.6,1.84-2.81-4.57-6.74.62-.93,3.72.69,5.69,1.36-1.82-3.39,3.93-8.37-4-10.58l-.72.16c-.08-.16,0-.26-.11-.44a8.23,8.23,0,0,1-.41-2,6.45,6.45,0,0,1,0-1h-88.7a2.77,2.77,0,0,0-3.52,0H674.65C667-139,659.4-133.24,651.82-127c-5.84,4.83-11.72,9.9-17.65,14a58.88,58.88,0,0,1-7.6,4.57c-.32.17-.65.32-1,.47-.79.37-1.57.7-2.35,1l-1.09.39c-.27.1-.53.19-.81.27l-.49.16c-.21.06-.42.13-.63.17l-.48.14-.68.17-.4.09c-.32.07-.64.14-1,.19a10.45,10.45,0,0,1-1.12.18c-4.23-3-9.84-2.21-12-5.87,5.63.43,9.5,2.55,6-1a11.06,11.06,0,0,1,5.28,3c-2.31-2.84.36-4.7-4.9-7.87,6.82,1,.77-6.19,11-1.61-2.25-1.56-6.88-6.34-6.65-8,11.08,8.1,3.22-5.24,16,1.34-5.07-3.45-5.48-5.81-5.2-8.09.29-2.12,1.22-4.16-.51-7a6.54,6.54,0,0,0-.36-.57,5.09,5.09,0,0,1,.4.32l.3.24h0l.2.17.24.2a.93.93,0,0,1,.14.14c.32.28.53.53.51.67a1.67,1.67,0,0,0-.16.12c.12,0,.15-.06.16-.12h0c1.88-1.39,5.31-.49,7.9-.77-.28-.13-.55-.28-.81-.42-.61-.32-1.19-.65-1.72-1h-78.4l-.78,1q-1.39,1.74-2.88,3.51l0-3.51v-1c-.73.28-1.47.6-2.22,1-8.3,4-17.6,13.1-25.3,17.64,0,4.48-4.55,7.58,1.25,9.29-17.69,2-26.86,13.06-35.37,24.25S472.31-66.87,457-64.6c2.38-2.06,3.76-7.17,1.84-5.55l-15,17c5.16,3.32,4.55.8,11.11,1.23.08,4.48-3,10.64-7.17,14.25,5.11-9.51-6.2-7.11-11.64-6.76,1.72.9,1.88,3.37,3.35,4.52-15.69-.31,6.21,10.26-10.5,15.31l-1.37-2.88c-3.51,5.08-5,11.8-10.43,15.35-6.48-3.38,2.73-6.57-.63-11.07C409.91-17,411.45-1.79,400.82-1.53c1.64-3.95,5.81-7.6,7.48-11.54-12-.16-11.46,2-17.27,5.46l.6-.29-1.17.62L391-7.6l-7.86,3.53a47.64,47.64,0,0,0,6.35-2.7L377.7-.45l4.38-1c1.58,10.41-2.21,14.83-6.89,19s-10.16,8.19-12,17.6c3.74-18.09-2.41-6.38-6.7-12.87-4.34,1-10.38,3.19-10.57.45-1.25,9.43-12.29,4.45-13.76,18.08-2-1.53-5.9,5-8.88-.67-5.67,7.79,4.55,1.68,6.06,4.52-2.52,8-10.56,11.84-18.87,16.61a64,64,0,0,0-12.07,8.36,33.08,33.08,0,0,0-5,5.82A30.24,30.24,0,0,0,289.88,83c-9.78,15.88-6.51,24.13-15.53,38.72-6.79,1.06-3-9.7-3-9.7-9.06,3.69-13.52,8.94-17.68,16.92-.26-2.73-2.84-2.82-6.64-3-4.44,5.31,3.07,9.67-5.94,13.46-.85-3.06-2.54-7.61-2.12-11.93-4.18,7.35-6.59,16.28-10.95,23.77-4.65-1.48-1.06-8.2-1-12.29l-4.49,6.63c-1.55,2.39-3.09,4.88-4.39,7.34-2.58,4.9-4.15,9.65-2.73,13.08l4.44-1.93c-1.87-.32-3.69-4.13-3-6.22,1.85-9.55,9.85-6.67,11.95-5.23l-3.06,5.38c3.66,1.46,6.43,1,8.67-.57s4-4.32,5.58-7.5c3.14-6.35,5.61-14.46,10.18-18.39l3.88,11c.85-5,1.69-10,2.61-14.89,3.8.14,9.2,3.14,6.07,8.37,9.8-2.22,2.83-8,12.18-8.92,1.21.09,1.31.72,1.06,1.54l3.82-8.09c.36,2.74,6.18,4.41,1.43,6.89a20.51,20.51,0,0,0,8.34-6,36.44,36.44,0,0,0,4.49-7.21c2.35-4.62,4-8.27,8.82-7.3l-.46,1.33c12.69-16.91-3.9-7,1.28-24.43l20.8,6.85-3.79-7.08c1.77-1.26,5.29-3.72,6.82-.91,2.27-9.34-3.3-1.54-3.29-8.39a17.59,17.59,0,0,0,8.32-4.08c2.5-2,4.8-4.41,7-6.54,4.43-4.26,8.57-7.35,13.59-3.55-1.2-6.87-10.39,3.3-5-7.19,5.63,3.87,7.61,1.31,9.58-2.47s4-8.7,9.52-9.59c2.42,7.06-6.68,10.31,4.46,8.57-3.48-12.44,15.4-10.38,19.88-17.3a14.63,14.63,0,0,0,4.09,3.15c1.82-1.19-2.35-7.05-3.79-9.93,1,3,.76,5.11-.3,6.78-5.84-7.16,10.46-14.35,18.49-25.5,1.42,2.9,22.34-12.71,34-18.29l.74,1.41c-4.27-8.64,6.64-15.68,12.48-23.24,3.36,4.49,3.51,7.27,1.29,12.46l6.64-5.75c-.37-3.63.71-6.6,4.36-11.11L472.5-31c8.68-7.85,12.62-21.55,27.17-27.69-3.55-5.52-20.88-6.12-11.48-19.73,2.59,2.19,6.64,6.13,5.08,9.76.76-1.61,1.92-4.89,4.63-5.44l-1,8.63c6.93-2.43-.45-6.09,4.11-9.21,3.15,3.91,5.41.12,7.38,3.68-.76,1.27-5,1.49-5.33,4.36,5.31-3.3,12.93-5.85,17.28-4.52C518-73,515.94-76.38,519-79.8c8.73-7.8,7,2.06,13.84-.36-.06-4.49,8-6.53,3.32-12.4,2.65-2.18,5.38.1,7.7.81,2.53-6.43,21.14-18.88,10.78-20.63l-1.54.59c.13-.31.38-.53.55-.89,4.94-8.69,12.85-14.34,21.23-19.46v0l5.1,1.23c-1.84,1.75,0,7.95-5.33,5.34.78.58,4.7,2.73,1.86,2.55l-3.76-1.44L577-116.6c-4.29,3.07-14.59-6.5-17.68-.64a6.3,6.3,0,0,0,1,2c-.73.53-1.51,1.08-2.29,1.55l2.67-1c2.51,3.43,7.75,8.09,10,8.15.53-.83,3.23-1.42,7-.07l1.19,2.76c10.94,4.53,21.76,10.17,31.3,8.39l-5.5-5.87,5.76,1-.32,1.3-.39,0a2.5,2.5,0,0,0-.38.06l-.36.09a2.4,2.4,0,0,0-.38.12,2.06,2.06,0,0,0,.31.28l.27.19.32.19.33.14h0l-.12.46a8.94,8.94,0,0,0,2,0h0l.57,0,.64,0,.43,0h0a3.16,3.16,0,0,1,.55.13.47.47,0,0,1,.15.06,1,1,0,0,1,.53.46.31.31,0,0,1,.06.13.87.87,0,0,1,0,.19,1.94,1.94,0,0,1,0,.24,3.88,3.88,0,0,1-.27,1.22,245.06,245.06,0,0,1-28.9,22.2c-10.24,6.8-21,13.08-31.82,19.33-21.72,12.43-44.31,24-65.33,36.89-15.11,9.81,5.82,24.9-18.74,29.81l.1-10.59c-11.48,14.91-26.35,26-41.27,36.78s-29.67,21.7-41.17,35.85c.51-2.83-1-4.86,1.79-7C379.51,68.1,367,85,369.92,89c-4.74,2.91-3.77-2.78-8-2.73-4.08.87-6.66,5.26-9,9.17s-4.59,7.33-8,6.14c-.73-.23-.36-1.31.21-2.37-4.1,5.22-16.62,12-9.42,14.4-12.56,5.5-18.17,18.08-29.1,21.31-.61,10.45-20.31,11-15.18,21.11-6.35-9.66-24,7.14-27.29,16.6.06-4.47-8,1.7-8.35-4.12-7.44,6.08-13,13.2-8,16.8-22.41.19-21,30.66-39.74,23.1a751.16,751.16,0,0,1-54.66,60.49c-6.5-9.53,21.38-18.6,13-27.3C150.22,260.46,145.53,277,125.07,290c-5.84,2.7-.38-6.1,0-9-8,9.48-17.24,16.66-26.15,23.78S81.52,319,75.14,328.22h0a0,0,0,0,0,0,0v0c7.35,2.93-3,20.8-2.49,25.54C68.54,339,53.89,364.69,50.87,343.11c-1.55,2.54-2.7,6.68,0,9-3.85,1.85-6.17,1.1-5.42-4.64-10,11.85-2.3,12.71-13.07,21.36-1.56-2,0-4.5-.79-7.7-2.3,8.23-4.63,16.47-15,22.22-.38-1.45-2.28-2.15-.65-3.87C1.51,392.72-1.75,410.84-21.45,421c-2-12.58-8.06,2-15-4.61l-7.32,9.7,6.6.54c-8.11,6.45-10.75,17.61-19.58,20.89l3.43-7.92-13.79,13.76,10.75-4.22c-5,10.45,8.52,8.54-3.78,15.29,1.54-2.54-8,6.51-15.77,5.64,0,0,0,0,0-.05-2,5.6-4,11.41-11.43,14.48-3.48-1.07-5.47-9.11-7.76-9.84,1.14,9.08-16.28,16.73-16.78,26.9-.21-2.75-2.84-6-3.92-6.28l.86,7.67c-5,1.48-6.18,1.16-8.12-2.4-11.62,8.15,10.32,6.42-4.35,12.9-.2-.7-.38-1.4-.54-2.11a6.54,6.54,0,0,1,.74-1.63c-.32.2-.62.41-1,.61-1.1-6.05-.06-12,6.8-11.93l1.36,2c4.61-1.62-10.63-11.8-2.83-11.1l.75,1.28c7.18-5.3,6.35-16.77,19.21-16-8.39-6.85,8.54-4.25-3.75-12.87,8.85.08,10.34,2.68,18.19-.16,1.56-1.1-6.37-7.35-6.46-10.06l6.58,4.26-5.23-7,8.71,3.83-.55-2.83c-.83.43-3.89-.48-5.7-1.83-1.18-4.67,8.88-3.57,12.26-1.41l-1.31-10.07A9.34,9.34,0,0,1-77,440.42c-2-4.69,7.67,4.88,4-1.74-1.76-.58-3.72-2.83-5-3.79,5,1.11,7.4-2.35,7.52-6.06l4.14,3.52c4.32-3.88,4.59-11.29,8.26-16.48-3.36.46-10.79-5.28-10.47-7.34l7.24,4.08c-3.53-3.9-3.67-.16-7.44-5.76,2.14-1.43,8.66,4,10.12,6.68l-.75-4c2.14,1.26,2.82,2.56,5.33,4.5-3.58-3.9,9.63.64,3.25-5.87l2.12,1.28a22.5,22.5,0,0,0,3.2-7.07A25.42,25.42,0,0,1-43,395.83c-5.8-4.2-3.33-4.94-7.15-9.52,4.08-1.8,11.11-2,13.26-6.08-1-4.69-4.38-4.29-7-7.94,5.43,3.59,7.59-.5,10,4.17,2.34-5.1,3-6.51,2.79-15.25-2.6-1-4.05-.95-5.59-2.62-.11-1.64,3.93-.71,6.36,1.28l.34.66c-1.62-6,4.9-6.88,10.91-7.82,5.78-.91,11.05-1.91,8.19-7.84l-1.83-9.41c2.67-1.72,2.86,4.35,7.4,5-2.29-6-.33-8,1.88-9.62s4.77-2.71,3.63-7.17c9,4,11.12.71,12.67-3.29s2.53-8.7,9.2-7.32l-3.79-2.5c-2.58-3.93,3.18.1,4.69-.16-2.88-2-4.23-1.16-5.59-3.43,3.58-13.83,21.89-17.24,33.35-25.18,4-3.06-16.54-16.8-4.25-14.9l5.46,6.64A14.92,14.92,0,0,1,53.19,265a25.29,25.29,0,0,1,4.53-6.08c3.42-3.71,7-7.27,6.75-13.74,1.13,1.68,3.06,3.3,2.44,4,6,2.3,5-5.64,1.22-8.85,1.4-.81,3.7,2.59,6.25,3.49,4.07.72-2.72-9,2.64-5.92a2.53,2.53,0,0,1,1,1.46c-.1-2.39,4.14-3.84-1.45-7,2.45-.33,2.95-2.18,3.49-3.88s1.11-3.26,3.66-3c-4.79-6.52,6.94-2.29-1.17-10,8.61,7.63,11.22,1.15,8.61-4.12,2.14,2.85,4,.82,7.11,4.64a2.34,2.34,0,0,1-.25.3l.35-.22-.09-.09c1.58-2.1,1.52-5.32-3.26-8.82,13.57,5.31-2.06-14.65,13.05-5.19.11-2.48.27-4.89.53-7.16s.6-4.44,1-6.53a71.25,71.25,0,0,1,3.21-11.5c8.44,7.78-4.31,6.58,4.95,14.3.85-8.09-4-17.51,2.51-20.64,2.31-.24,3.07,4,4.15,5.77.9-8.14,9.31-8.95,8.61-17.57-5.84-3.82-7.65-12.6-10.1-15.83,9.21,10.59,6.51-2.11,18.19,12.69-.22-1.23-1.39-3.6-4.09-5.82,1.53-.15,3.28,1,5.43,4.47.73-5-4.37-7.64-1.71-10.36,1.86,1.72,2.05,2.94,4,5.23-2.33-4.73-4.66-9.49-.9-10.42.89,1.06,2.37,2,2.15,2.71,2.84-4.7-3.29-15.64,4.21-16.86,6.82,8.78,4,.92,11.2,7.16l.13-4.33-4.25-2.18c2-2-1.25-8.53,2.7-8.2l1.4,4.22L163.8,116l-4.72-.26c-1.56-5.45-9-8-4.41-9,.17,1.23,2.06-2,7.17.76-1.22-3.09-2.5-6.33.65-6.25,2.59,1.69,7.32,7.55,9,8.69-4.66-6.3,2.6-6.37-1.51-12.92a31.89,31.89,0,0,0,5.11,5.26L171.27,97c2.41.47,3.26,1,6,3.92,3.6-2.07-9.58-7.42-2.57-7.26.12.64.94,1.17,1.11,2.41,5.23-1.56,3.37-9.51,8.69-10.45,7.76,5.72-1,4.37,5.85,8.92,3.13-5.7.92-17.26,6.81-20l-1.55.08c-8.88-9.89,7.38,1.06,5.67-4.91.69,1.57,4.46,5.56,3.61,4.45,4.46-1.44,3.61-8.4,5.06-15.9l1.9,3c3.92.44,5.79-3.36,8.81-4.09-1.88-3-.39-3.66-4.6-6.59,9.88,4.13,10.79-.46,11.36-5.29s.78-9.9,9.12-6.56c-.6.64.63,3.62,1.14,3.14l2.19-6.61-.33-.28,1.32-.15.9,1.31c4.89-2.72,6.18-8.39,7.36-14.36,3.18,1.44,2.85.39,4.57.13h-.26l.43,0H254l-.3,0,3.41.29a12.22,12.22,0,0,0-2.64-.34h0l4.52-.24-2.28-.84c-3.9-5.87-4.37-8.16-3.8-9.48a11.36,11.36,0,0,0,8.74.78,17.67,17.67,0,0,1,1.49,1.55l0,0,2,2.41c-.74-1-1.36-1.73-1.92-2.39,2.25.82,5.08,1.43,6.23,3.33-2.82-5.89,5.77,1.29,1.58-7.26,1.79,1.72,1.71-1.28,5.64,3.56.55-3.19-3.39-2.73-5.37-5.14A8.26,8.26,0,0,1,271,7a16.56,16.56,0,0,1,8.84-2.63,3.59,3.59,0,0,1-1.18-.86c2.43-.46,4.16-1.86,2.68-6.78,0-.31,0-.62,0-.92,6.2,5.39,7.69,1.2,10.22-.32l-.45-.66c1.76.44,3.86,1,3.93-.52l-1.28-1.62c1.33,2.19-2,.62-3.89.37L284-15.34h.26c6.06,3.37,9.46,2.33,11.87-.1.4.7.76,1.39,1,2a18,18,0,0,0-.22-3,28.79,28.79,0,0,0,2-3c.1-.18.2-.35.31-.52a39.11,39.11,0,0,0,1.38,3.67c.36-1.93,1.12-4.25.8-7a5.25,5.25,0,0,1,3.27-2.15,34.8,34.8,0,0,0,3.35,3.29c-.86-1.39-1.45-2.42-1.88-3.24A11.27,11.27,0,0,1,311-22.84c-.39-3.71,1.43-5.19,1.2-8.73L314-29v-.4l2.36,3.29c5.51-1.8,8.24-2.7,12.67-8.13l1.93,5c3.34-1.9-8.38-19.64-5.78-22.09l7.19,8c5.25-4.18,16.34-.36,16-12.11.83,1.34,2.48,4,1.86,5,2.64-1.54,13.34-1.15,5.55-11.32,4.79,5.37,5.27-4.69,5.75-9.93l3.64,6.11c-2.75-9.16-4.1-11.23-2.06-15.75,1.25.14,3.56,3.48,2.29,3.48,4.05.51-2-7,3.35-6.37l1.36,4.59c3.14-1.56,1.52-3.39.05-8.81.15-3.6,6.4-2.36,10.49,2.6-1.86-3.48-3.3-8.86-.57-8.53a7.76,7.76,0,0,1,2,4.31c3.72.29,4.34-2.6,4.92-5.16s1.11-4.78,4.74-3a11.22,11.22,0,0,0,3,3.1c-3.59,2.25-6.66,3.93-7.13,3.7,3.7,5.25,7.39,4.18,10.07,13.2-.35-5.71-2.21-17.39,2.52-16.9a16.43,16.43,0,0,1,1.69,1.6l.1.81c1.06.07,1.34-.85,1.3-2.15,1.56.23,2.62.48,3.59-.07,3.4,4.22,5.16,0,6.84-.8-4.11-5.75-1.57-6.23-6.55-9.73.27.32-.08.91-.82,1.74a1.86,1.86,0,0,0-.24,1c-.08-.16-.15-.37-.25-.59a45.09,45.09,0,0,1-3.54,3c-.84-3.83-1.29-7.21,2.64-5.09-1.81-4.32-3.6-8.82-4.35-11,7.72,6.81,14.8,8.52,18.81,13.22,2.42-6.5,9.52-9.67,5-22.83.38-2.35,3.67,2.15,5.35,3.57,0,1.65-1,2.1-.39,4,.75-4.67,7.15-6.47,2.58-14.72,5.72,1.25,2.88,8.45,6.68,4.08l1,2.81c8.74,3.25,9.15-4.15,10-11.23.17-1.32.35-2.63.59-3.86h-72a33.81,33.81,0,0,1-5.07,8.57c-1.17-2.33-1.76-5.19-4.54-6.5-2.21,4.12-6,6.39-10.48,7.67a60.27,60.27,0,0,1-14.22,1.93l1.79,7.89c-.63.34-3-2-3.22-3.63-4.17-.51,2.59,4,3.05,7.24-1.14,1.45-4.37-2.15-4.74-4.64-.87,8.37-4.9,20.2-14.27,17.05l-.37-2.46c-5.45.15,4.75,15.39-2.71,12.16l-.11-1.54c-4.93,1.52-8.61,5.23-12.63,8a24.48,24.48,0,0,1-3.11,1.82,14.48,14.48,0,0,1-3.36,1.21,14.4,14.4,0,0,1-8.19-.77c5.22,9.52-10.63,1.92-2.26,14.38-8.89-2.66-9.19-5.77-18.5-5.07-2.12.7,3,9.39,1.9,12.18l-4.73-6.25,2.07,8.71-7.12-6.39-.75,3.06c1-.2,3.76,1.59,5,3.49-.93,5.1-10.73,1.16-13.24-2L255.1-54.67a8.11,8.11,0,0,1-1.34-5c-.13,5.24-5.7-7.13-4.9.69,1.55,1.05,2.57,3.91,3.45,5.23-4.62-2.44-8.61.61-10.33,4.46L239.26-54c-6.14,3-9.6,10.72-15.61,15.25,3.67.34,8.91,8.14,7.72,10.19l-5.76-6c2,4.93,3.73,1.07,5.26,7.81-2.8,1-7.27-6.28-7.64-9.41l-.94,4.36c-1.67-1.83-1.84-3.34-3.61-6,2.06,4.92-9.78-2.95-5.88,5.35l-1.67-1.83c-6,4.56-6.94,8.89-11.53,13,4.34,5.69,1.47,5.91,3.61,11.56-4.9,1-12.29-.23-16.12,3.65C186.34-.9,190-.64,191.32,3.74c-4.28-4.9-8.11-1-8.85-6.44-4.39,4.92-5.65,6.24-8.72,15.52,2.38,1.51,3.89,1.78,4.89,3.83-.49,1.78-4.36,0-6.17-2.55l-.11-.77c-.51,6.68-7.63,6.34-14.31,6.24-6.4-.09-12.41,0-11.49,6.84l-1.31,10.35c-3.4,1.4-1.52-5.12-6.08-6.56.67,13.66-10.95,7.18-11.48,17.1C111.28,36,114.35,60.32,101,55.55l3.25,3.18c1.49,4.55-3.37-.54-5.08-.46,2.43,2.54,4.16,1.81,4.9,4.41-4.2,7-11.22,11.08-19.15,14.24s-16.66,5.5-24,9.24c-5.2,2.94,13,19.71.37,16.46l-4-7.66c-1.06,7.65-5.63,11.53-10.28,15.28s-9.28,7.5-10.64,14.55c-.8-1.9-2.47-3.78-1.63-4.51-5.89-2.89-6.82,5.85-3.49,9.55-1.7.79-3.34-3.05-5.86-4.17-4.23-1,.76,9.87-4.3,6.27a2.26,2.26,0,0,1-.79-1.64,2.26,2.26,0,0,0,0-.93,6.21,6.21,0,0,0,0,.93h0c-.46,2.59-5.4,3.94-.11,7.66-5.46.45-3.95,7.88-9.31,7.15,3.71,7.27-8,2.21-1,10.83C2.29,147.31-2,154.23-.26,160.1c-1.71-3.17-4.18-1-6.7-5.24h0a3.55,3.55,0,0,1,.34-.33l-.42.23,0,0,.06.07c-2.15,2.27-2.74,5.8,1.71,9.72-13.61-6-.7,16-15.17,5.42a106,106,0,0,1-9.82,27.44C-38,189-24.4,190.29-33,181.86c-2.44,8.86,1.14,19.06-6.42,22.46-2.56.27-2.65-4.36-3.52-6.23-1.22,4.39-4.08,6.89-6.74,9.46s-5.13,5.17-5.41,9.86c5.74,4,6.43,13.63,8.66,17.06-8.46-11.37-7.3,2.46-17.83-13.34a9.8,9.8,0,0,0,3.59,6.22c-1.67.24-3.41-.91-5.24-4.68-1.5,5.5,3.66,8.19.41,11.26-1.77-1.8-1.82-3.13-3.59-5.56,1.87,5.08,3.75,10.17-.43,11.32-.83-1.12-2.3-2.1-2-2.86-3.72,5.25,1.53,16.83-6.76,18.46-6.33-9.17-4.28-.83-11.31-7.22-.24,1.56-.45,3.13-.67,4.72l4.35,2.12c-2.43,2.31.46,9.27-3.76,9.17l-1.07-4.52-3.06,5.77,5,0c1.15,5.86,8.84,8.13,3.87,9.49-.07-1.33-2.39,2.32-7.62-.33,1,3.28,2.11,6.71-1.28,6.84-2.62-1.64-7.18-7.67-8.93-8.77,4.45,6.51-3.41,7.15.47,14a26.4,26.4,0,0,0-5.08-5.33l3.71,5.46c-2.57-.32-3.45-.85-6.14-3.78-4.08,2.54,9.73,7.28,2.15,7.66-.08-.68-.92-1.19-1-2.51-5.81,2.13-4.47,10.54-10.31,12-8-5.49,1.4-4.83-5.65-9.14-1.92,3.26-2.5,8-3.4,12.33s-2,8.42-5.26,10.26l1.66-.25c9,9.78-7.88-.32-6.36,6-.65-1.62-4.52-5.53-3.65-4.42-4.9,2.11-4.35,9.6-6.24,17.9l-1.93-3c-4.22,0-6.44,4.35-9.71,5.56,1.93,3,.3,3.95,4.75,6.56-10.52-3.15-11.68,2-12.42,7.31-.36,2.66-.65,5.33-1.92,7.1s-3.56,2.55-8,1.4c.65-.79-.64-3.85-1.19-3.25l-2.43,7.55c4.76,3.5,3.28,1.67,7.69,3.59,2,3,2.65,6.34,1.47,7.67-.75-5-7.05-6.27-10.43-7.41,1.5,1,2.66,2.71,4.11,3.85-10.3-4.15,8.39,8.34-.26,7.5l-2.13-2.25c-.09,2.49,1.77,6.53-.26,7.49-5.66-3.87-1-3.63-5.11-7.45-1.64,2.45,5.82,12.85-1,10.33-.59-2.18.56-3.53,0-5.71-7.89-3.14-6.59-1.54-9-.78l-3.67.31c.46,0,.88,0,1.25,0a10,10,0,0,0,1-.05l.42-.05.33-.06-.11,0-4.94,1.1,2.46.48c10.62,14.12-1.91,8,2.61,18.3-4.71-9.77-4.05-4.15-9.46-9.37h.05l-2.17-2.24c.82,1,1.49,1.62,2.11,2.23-2.44-.46-5.52-.61-6.79-2.44,3.14,5.83-6.27-.3-1.6,8.14-2-1.52-1.84,1.71-6.2-2.77-.53,3.55,3.74,2.29,5.92,4.52.82,2.27.29,3.48-.89,4.26s-3,1.09-4.78,1.53c-3.59.86-7.05,2.19-4.82,8.55-.12,7.53,5.54,13.79,5.25,20.56-4.19-1.19-5.92-7-5.92-7-4.66-.15-5.58,2-5.19,5.91-1.29-1.83-3.06-2.57-5.73-3.74-.93,2.11,5.93,7,1.26,6.83-1.79-2.17-4.76-5.52-6.18-8.13.05,3.47,1.92,8.42,1.89,11.93-3.77-2.25-4-5.47-5.51-8-.47,3.58-2.09,8.53,2.55,13.64l2.32.07c-1.42-.74-4.16-3.64-4.49-4.75-2.42-5.43,4.23-1.34,6.24.16l0,2.49c12.4,7.87,3.2-7.37,6.35-9.79l7,8.07-4.14-8.69c2.65,1.14,7.52,4.53,7.5,7,5.77,1.28-1.29-4.3,4.69-2.33a2.19,2.19,0,0,1,1.33,1.26l-.65-4.09c1.35,1.85,6,4.51,3.74,4.78,7.76.28-1-11.1,6.27-7.28l.24.74c1.62-7.44-5.48-5.55-9.13-15.34l16.71,9.93-5.45-5.58c.66-.35,2-1,4.17,1.21-2.36-5.44-2.84-1.87-5.67-6.3,7.47,2.07,3.53-9.1,13.37-1.55-3.66-4.77-5.55-.6-6.28-6,10.7,8,1-4.58,7.63-2.85,4.54,5.22-.1,5,6.52,6.73-7.51-9,5.84-2.74,5.86-6.12-6.86-6.19.8-6.72,1.34-12,2.15,2.26,9.18-2.7,14.32-3.47l1.08,1.13c-6.47-6.8-2.41-8.72-1.86-12.26,4.09,3.83,5.37,5.69,6.16,8.58l1.83-2.13c-1.79-2.5-2.38-4.21-2-6.3l4.73,5.19c2.2-3-1.13-11.18,5.59-11.62-4.64-4.58-16.07-9.33-15.8-16,2.56,2.08,6.76,5.64,7.4,7.69-.21-.92-.77-2.68.7-2.37l3,5.48c3.42.13-2.89-4.17-1.27-5.1,3.69,3.41,3.53,1.46,6.31,4.32.06.66-2.57-.27-1.58,1.55,2-.85,5.84-.62,9.2,1.37-2.23-1.8-5-4.55-4.5-6.06,2.28-3,5.34,3.13,8.72,3.26-1.95-3,2.34-2.34-3.16-7.45.78-.78,3.5,1.44,5.29,2.49-1.13-3.66,5.45-7.29-1.91-11.09h-.73c-.05-.18,0-.26,0-.46-1.16-9.75,12.11-6.85,14-13.69l1.84,1.73c.46-4.73,4.46-7.33,2.35-13,.76-.82,5.14,1.2,7,3.6.59-3.4-1.28-5.61,4.62-5.79,1.19,5.11,3.5,1.94.3,4.37,4.13-1.25,7.66.94,5.45-6.68,3.73,5.4,7.84,3.54,7.67.93L-97.33,320c.71-2.08,2.34-2.95,4-3.85l5.46,6.52c12.73,1.62-3.08-22.06,13.39-14.32-2.86-5.56-5.89.11-9.62-6,3.27-1.75,14.55,4,15.33,3.26,6.7-.19-5.76-11.83,0-13.24-2.6-1.64-8.8-6.81-8.22-11.54,3.26-1.77,12.08,5.73,12.26,9-.4.79-1.37.41-2.07-.33,0,1.59-.12,3.56,3.2,4.84l-1.85-2.43c3.41.89,6.54-2.82,9.29,1.46a5.2,5.2,0,0,0-.73-2.61c2.66,2.32,2.69,4.42.18,4.89l7.68,1.69c2.63,7.7-7.74.41-10.12,2.38a1.1,1.1,0,0,0-.21.22c-.38.52-.41,1.46.11,3l-2.83-4.35c.56,4.09-6.55,8.7,1.8,18.43-1.76-.65-5.58-2.61-5.72-4.33-5.7,4.57,1.45,20.43-8,20.29l-2.77-2.66c.12,1.7,4.47,6.05.41,5.14-1.22-1-2.77-2.65-3.31-2.29.67,1.34,3.4,6.73.59,6.85l-2.61-3.71c-8,2.7,2.38,14.65,1.19,20.81-9.11-6.5-15.21-4.2-18.25-3.05l-1.24-1c-5.77,5.73-.31,16.38-.81,25-12.58-3.13-12.95,9.92-22.75,12.17,2.32.21,7.11,5.06,7.3,6.77-2.85.15,3.75,8.28-4.61,2.32l.51-.4c-9.08-4.57-8.87-.12-10.67,2l10.9,7.87c-10.13-2.43-11.24,2.56-11.93,7.31s-.91,9.31-9.3,6.16c1.84,3.3.61,5.09,2.46,8.38l-6-4c-4.22,3.05-6.31,4.6-8.17,10.54l-3.65-3.82c-2.26,2.59,15.06,14.84,13.77,17.7l-9.54-5c-3,5.06-14.17,5.05-9.06,15.22-1.29-.93-3.82-2.74-3.67-3.78-1.67,2.11-11.2,5-.17,11.5-6.42-3.22-2.66,5.66-.87,10.3l-5.75-4.17c6.25,7.06,8.3,8.43,8.44,12.92-1.14.25-4.59-1.92-3.46-2.31-3.76.81,4.73,5.46-.2,6.5l-3.15-3.52c-2.06,2.31.13,3.37,3.75,7.56,1.41,3.11-4.54,4-10.24,1,3.12,2.39,6.71,6.53,4.2,7.1a8.65,8.65,0,0,1-3.6-3c-6.78,1.85,3.13,10.74-4.63,10.15a12.38,12.38,0,0,0-3.94-1.66c2.05-3.1,3.9-5.53,4.43-5.53-5.51-3.3-8.2-1.13-14.53-8,.27.47.59,1,.92,1.51l.79,1.27.28.44c.37.58.75,1.2,1.12,1.82a4.48,4.48,0,0,1,.28.47c.29.47.56.93.83,1.39s.35.62.51.93c.35.62.65,1.23.92,1.8h0c.15.3.27.58.39.85,1,2.45,1.18,4.4-.62,4.89a19.55,19.55,0,0,1-2.16-.8l-.45-.66c-.94.3-.77,1.18-.14,2.29-1.45.33-2.46.49-3,1.29-4.84-2.43-4.44,1.78-5.51,3.07,6.17,3.46,4.22,4.74,10.09,6-.39-.17-.36-.81-.1-1.75a1.65,1.65,0,0,0-.29-1c.14.11.32.26.49.42-.06.19-.15.37-.2.56s.17.33.22.49a.43.43,0,0,1,0,.16l.92.16.8.09-1.74-1.46a36.41,36.41,0,0,1,1.66-3.76c2.46,3,4.42,5.68.07,5.23,3.55,3.05,7.15,6.23,8.8,7.79-9.73-3.14-16.56-2.08-22.19-4.63.48,3.17-.43,6.07-.19,9.35s1.65,7,6.73,11.61c.81,2.08-4.16-.47-6.26-1-.78-1.38-.11-2.13-1.58-3.46,1.6,4.16-3,8,4.93,13.18-5.44,1.08-6.59-6-7.63-.88l-2.19-2c-8.94.64-5.58,7.06-2.69,13.21,2.73,5.9,5.11,11.6-4.3,12.39a5.68,5.68,0,0,1,2.12.47,14.12,14.12,0,0,0-6.51,7.14,29.93,29.93,0,0,0-1.15,3.13c-3.47,1.17-6.62,3-8.13,6.44.86-2.66-2.22-7.46-1.85-5.93a48.73,48.73,0,0,0-4.42,3.09l-1,.8c-.35.29-.7.58-1,.87l-1,.86c-.42.39-.84.77-1.25,1.17l-.81.77c-.39.37-.78.75-1.16,1.15s-.55.56-.82.85c-.78.81-1.55,1.64-2.31,2.5l-.64.71-.45.51c-.51.58-1,1.17-1.51,1.76-.72.86-1.44,1.74-2.17,2.64-.36.43-.72.87-1.07,1.32-2.24,2.78-4.54,5.76-7,8.9l-1.09,1.41-2.48,3.17q-.81,1-1.68,2.1c-.55.69-1.11,1.4-1.68,2.1l-1.59,2h74.79a7,7,0,0,0-.82-2l-.36-.57.4.32.29.24h0l.21.17.23.2.15.14c.31.28.52.53.51.67l-.16.12c.11,0,.15-.06.16-.11h0c1.87-1.39,5.31-.49,7.89-.77l-.81-.42c-.78-.42-1.51-.84-2.16-1.25-.44-.28-.85-.56-1.25-.83l-.56-.41a30.67,30.67,0,0,1-6.23-6.52l-.32-.39-.63-.77-.47-.54-.54-.6c-.26-.26-.51-.53-.79-.8L-197,613c9.85,1.74,9.82,6.56,18.51,9.79-7.34-3.36-5.22-7.69-11.67-9.82,6.25.75,3.38-.33,11.25,2.36-11-5.83-1.06-2.65-7.15-7.58,6.85.07,10.79,4.53,8.88-.09,4.1.33,6.74,4.9,6.74,4.9,1.67-2.86-7.51-5.53-12-8.59-.59-4.77,7,1.49,11.89,2.47-1.13-3.34-7.88-9-6.69-10.47,1.43.59,2.1.53,3.63,1.8a7.89,7.89,0,0,1-1.36-1.86c2.23-2.58,1.23-2.76-.38-3.17.59-2.48,2.54-4.65-1.8-9.2a12.48,12.48,0,0,1,1.75.53c-.7-.29-1.38-.58-2.07-.89q.38-.45.78-.9c.25.16.52.32.84.49a9.69,9.69,0,0,0-.32-1,17.33,17.33,0,0,1,2-1.67c6.52,2,5.47,2.27,5.13,2.78-.48.34-1,.75-1.62,1.2.54-.31,1.07-.59,1.58-.86.19.46,1.47,1.22,6.48,2.88,3-2,1.39-4.37,1.36-6.6,4.43-2.2,7.5-4.74,10.83-13.16.83,7.68,12,.61,15-4.43l-9.25,1.7c4.21-4.72,8.78-7.78,13.4-10.91l3.1,8.43c25-7.38,22-41.09,47-39.46,1.09-8.59-12.67,5.09-12.73-3.85,9.2-6.15,25.8-4.12,28.47-6.3,8.9-3.66,8-9.72,9.24-15.62.06-.31.13-.61.2-.91s.15-.6.24-.9.19-.6.29-.89a13.9,13.9,0,0,1,.56-1.33c.08-.15.15-.3.23-.43a7.16,7.16,0,0,1,.37-.65,11.66,11.66,0,0,1,.89-1.27,7.69,7.69,0,0,1,.53-.63l.39-.41a17.74,17.74,0,0,1,4.2-3.05,9.41,9.41,0,0,1-4.13-2.66,5.4,5.4,0,0,1-.43-.52,6.36,6.36,0,0,1-.4-.57l-.34-.6c-.1-.22-.2-.43-.29-.66-1-2.57-.66-6.11,2.8-10.73,9.19-6.17,18.5,1.12,14.68,7.42-1.87,1.87-3.46,1.95-4,1.09-2,3.11-4.81,7.09.63,6.84l-.83-3.24c6.18-1.11,17.65-11,18.06-4.95,3.92-6.43.84-6.31-3.72-4.44,11.68-5.59,15.49-13.29,27.77-19.85-2.85.19-6.75-1.19-4.95-2.63,18.85-10.68,3.61-10.39,13.93-20.6,9.26-1.67,4.7,10.35,13.49-1.88,8.84-3.24,6.54,5,5.38,9.14,6.53-12.91,21.54-12.8,28.06-16.76l-3.84,6.31c2.3-3.78,5-5.9,7.68-8.09l-6.92-2.15c3.84-1.78,6.54-3.95,8.07-2,.76-5.73-8.86-5.72-5.8-15.21,6.17-1.09,10.8-13.08,17.33-8.07-13.51,7.88,2.6,5.65-1.64,12.56a22.44,22.44,0,0,1,5.86-3.77c1.05.31.6,1.66,0,2.72,17.26-4.85.11-11.79,13.42-22.43,1.18,4.87,8.47,4.13,10,1.63-5.37,4.27-7.31-3.76-4.61-10.42,10.68-4.2,7.54-9.55,12.23-12.85l-6.11,2.85c-1.12-4.89,3.47-7.91,8.5-13.81a1.87,1.87,0,0,1,.46,2.34c4.52-7,19.49-3.63,24.61-13.84,6.16-1.06,5.75,6.26,10.78,4.86,6.58-12.87,15-4.2,22.75-16.69-6.91-2.2-6.53-.61-2.64-11.36L152.59,330.1,158.43,314c-5.41,4.27-8.92,12.12-12.77,13.91,2.32-8.24,2.71-6.62-3-8.46,13.05,1.15,11.21-15.89,23.54-18l9.18,11.91c16.86-5.11,17.85-24.12,36.68-34.51-3.82,7.13-6.25,14.35-5.14,21.64-2.07,4.92-6.73,1.77-9.56,1.78.93-3.09,3.38-5.53,3-8-4.14,9.85-18.9,23.25-13.45,31.28-11.59,6.72-1.73-11.08-12.16,3l-.58-3.67c-17,7.89-21.71,22.4-27.12,36.87-5.18,13.83-11,27.65-28.74,35.81a3.68,3.68,0,0,1,2.9-.1c-34.95,27.08-52.89,72.6-91.22,96-10,7.39-6.4,12.33-7.86,20.91l-7.53-3.06-1.69,15.39c-.13.35-.28.7-.44,1,0,.1-.08.18-.13.28s-.24.47-.36.7-.16.3-.24.44l-.47.78c-.16.25-.33.5-.51.73a4.73,4.73,0,0,1-.31.43c-.22.29-.44.56-.68.82a9.07,9.07,0,0,1-.72.81c-.23.24-.47.48-.71.69a2.39,2.39,0,0,1-.23.22l-.67.58a26.57,26.57,0,0,1-4,2.7c-.32.2-.64.37-1,.55l-.18.1-.88.45-.61.3c-.5.25-1,.48-1.51.72l-.78.34c-.51.23-1,.47-1.56.68l-1.59.68-1.59.67-2.53,1.1c-.39.16-.77.34-1.15.52s-.76.35-1.14.54l-1.05.51c-.47.24-.95.48-1.41.75l-.9.5-1.08.65c-.3.18-.58.36-.87.56l-.36.23-.88.63-.9.68-.1.09c-2.67.9-5.34,1.78-8,2.65-3.87,1.29-7.72,2.55-11.34,4a83.37,83.37,0,0,0-10.2,4.71c-5.82,3.24-10.55,7.22-13.45,12.57l-15.52,19.1c-9.61,5.16,2.63-7.71-6.29-6.53-7.46,11.64-16,16.95-24.31,21.6S-124,615.07-130.53,624c-6.59-1.76-13,0-19.39,3.42H.94a8.59,8.59,0,0,1-.39-2,6.08,6.08,0,0,1,.07-1.61,5.35,5.35,0,0,1,.35-1.2,6.23,6.23,0,0,1,.66-1.15l.51.06.44,2.55c2.15-.42,2.07-2.51,1.46-4.93,3.29-2.41,7.73-4.15,8-8.17l2.15,1.3c-.27-2.65.67-4.88,1-7.21,1.78-1.65,3.54-3.29,5.39-4.72a6.76,6.76,0,0,1,.95.68,10.35,10.35,0,0,0-.14-1.3,21.24,21.24,0,0,1,5.29-2.88c1,.7,1.22-.35-.6,1.75,2.34-1.28,4.69-1.25,5.28-2.66a18.68,18.68,0,0,1,4.2.3,7,7,0,0,1-1.19-2.89c2.33.3,3.71-1.36,3.25-3l-1.28-.08a.91.91,0,0,0,.16-.11c.53-.3,1.09-.57,1.64-.87l.43-.24c.23-.13.44-.26.65-.4L42.07,591c5.82-.28,4.64-4.58,3.49-8.76,3.71,1.12,6.19,2,13,.36,1.8-.89-1.27-6.1-2.16-9.89.4.07.66.06.74,0a2.45,2.45,0,0,0,1.31-.42l3.17,3.46-1.65-6.2,1.23-1.34,6,4.13.8-3.42a1.44,1.44,0,0,1-.49.08l-.27,0a7.66,7.66,0,0,1-3.35-1.49,3.24,3.24,0,0,1-.31-.24c-.12-.09-.23-.2-.35-.3l-.37-.37-.06-.06c1.16-1.28,2.27-2.48,3.3-3.63h0l.42-.07.18,0c.22,0,.46,0,.7-.06,3.56-.19,8,1.34,9.61,3l3.44-12.1A7.58,7.58,0,0,1,82,558.71c.1-5.63,6.36,6.56,5.38-1.66-1.72-.85-2.87-3.71-3.85-5a7.86,7.86,0,0,0,7.79-1.67c0,.76-.06,1.51,0,2.26a3,3,0,0,1,1.59-2.87l-.44-.42a14.22,14.22,0,0,0,2.53-3.95l3,4.56c6.76-4.38,10.52-13.27,17.11-19.25-4.06.33-9.91-7-8.62-9.44l6.42,5.34c-2.24-4.83-4.09-.54-5.82-7.15,1.44.66,2.87,1.22,3.82.94,2.27,1.93,4.36,5.42,4.64,7.48l.77-3.87a6.86,6.86,0,0,0,2.48,2.81,5.21,5.21,0,0,1,.08-.62,19.46,19.46,0,0,0,1.69,2.54c-2.32-4.9,10.78,1.25,6.4-6.9l1.86,1.63c6.51-6.08,7.52-10.89,12.46-16.22-2.75-3-2.93-4.54-3-6.35,1.11-.32,2.38-.55,2.71-2,2.29,4.47,4.42,5.37,6.78,7.62-1.92-3.19,4.58-2.2.2-11.24l5.94,4.24c6.2-.4-1.49-15.6,4-16.76,1.28,5.55,5.15,7.44,3.94,12.62,1.58-.84,3.44-.83,1.75-3.89,2.47,2.22,1-8.33,4.78-5-.42-2.29-2.79-7-.84-7.62a6.64,6.64,0,0,1,1,1.64c-.6-1.84.68-3.89-2-7l.06-.14c11.56,9.07,12.18-9.16,22.71-.06a47.07,47.07,0,0,1,8.8-9.2c.54,1.43,1.23,2.19.39,2.07,6.56,1.65-4.49-14,2.94-12.24,6.48,5.65-.42,5.27,2.64,7.07,8.81,14,4.75-5.27,12.78,1.28l-.32,1.29c5.26,3.48,3-8.9,7.67-10.18a9.11,9.11,0,0,0,1.21,2.19c-1.36-8.92,2.55-14.33,5.33-18.58,2,6.31-.1,4,3.88,9.28,1.3-1.81-5.71-8.89-3.11-12.48,2.89,2.43,6.95,3.7,10.73,9.6l-3.12,2.2c6.16,6.94,4.13-2.7,6.65-2.3l1.73,3.57c4.45-4-.4-12.73,5.41-15.2l-2-2.29c-1.89-10.3,5.24,3.43,4.59-4.66l5.85,8.24c.77-3.22,2.11-12.35,4.71-16,1.66,7.61-.59,13.27-1,18.55,2-1,6.26-4.39,4.85-9.28-.32,1.29-.09,4-1.63,3.09-1.49-8.23-.26-13.39,3.72-15.44,8.89,17.33,12.54-1.46,22.8,10.1,3.34-10.16,15.16-5,22.61-10.58-10.3-11.57,2.12-1.7-6-15,1.36-1.9,2.2-2.09,2.86-1.33l-.49-.23.55.29,0,0,10.21,4.88c3.57,3.18-.09,4,1.8,6.93,4.68-1.27,5,4.76,9.7,6.84-3.29-4.53-2.5-7.74.88-7.21L330,404.29c1.63-10.44,11.35,8.57,13.08-1.83l.58,5.29c1.54-4.19,10.95-6.08,7.69-18.59,1.41,1.26,4.19,4.58,3.44,6.29,8-2.35,9.17-20.46,18.44-16.86l1.34,3.61c.78-1.7-1.23-7.52,2.31-5.12.69,1.42,1.33,3.6,2.06,3.46.05-1.54.21-7.78,3.05-6.84l.62,4.57c9.34.43,5.43-15.06,9.92-20.6,5.51,9.76,12.72,9.85,16.32,9.89l.69,1.44c8.71-3.35,9.06-15.81,14.32-23.85,10.62,7.93,18.13-4.49,28.93-2.8-2.14-1.12-4.14-7.68-3.39-9.42,2.87,1,.94-9.49,5.77-.44l-.71.19c6.32,8,8.57,3.6,11.49,2.24L459.69,323c17.07,12.74,15.49-17.25,28.25-4.43.07-3.92,2.27-5.15,2.32-9.06l3.53,6.28c5.81-1.25,8.69-1.92,13.84-6.94L509,314c3.64-1.61-6.25-20.42-3.34-22.62l6.4,8.7c5.82-3.6,16.62.9,17.46-10.94.72,1.41,2.14,4.19,1.4,5.12,2.82-1.36,13.69-.27,6.72-11,4.37,5.72,5.79-4.41,6.7-9.64l3.17,6.36c-2-9.37-3.21-11.53-.79-15.94,1.25.23,3.34,3.71,2,3.64,4.1.76-1.45-7.19,3.91-6.18l1,4.68c3.32-1.38,1.81-3.31.72-8.81.4-3.59,6.64-2,10.46,3.16-1.65-3.58-2.74-9,0-8.58a7.59,7.59,0,0,1,1.71,4.41c7.6,1,3.15-11.64,10.29-7.89a11.2,11.2,0,0,0,2.83,3.23c-3.77,2.14-7,3.74-7.44,3.49,3.43,5.43,7.25,4.46,9.42,13.67,0-5.81-1.19-17.62,3.57-17a15,15,0,0,1,1.63,1.65l.06.83c1.07.09,1.4-.84,1.42-2.16,1.58.28,2.65.54,3.66,0,3.26,4.33,5.28.11,7-.68-3.93-5.89-1.32-6.32-6.23-9.94.27.32-.11.92-.91,1.72.07-.23,0-.53.16-.71a13.94,13.94,0,0,0-1.5-1c-1.63-4.41-3.26-9-4-11.16,7.54,7,14.69,8.89,18.59,13.69,2.76-6.49,10.11-9.7,5.85-22.93.44-2.35,3.69,2.19,5.36,3.62-.06,1.65-1.12,2.09-.51,4,.89-4.69,7.49-6.46,3-14.73,5.81,1.26,2.79,8.5,6.73,4.08l.92,2.83c8.83,3.12,9.36-4.44,10.25-11.59.86-6.86,2.08-13.28,11.38-10,.38.17.81.32,1.33.51-.46-.2-.9-.36-1.33-.51a5.15,5.15,0,0,1-1.74-1.38c8.25-.52,13.18-6.32,18.4-11.58s10.66-10.13,20.31-8.71c4.83-.11,1.71-5.22,1-10.34l5.19,5.71-1.84-9.63c.47-4.37,5.3-2.06,9.88-.46s8.92,2.45,8.29-4.69l-3.86-3.58c2.76-.78,5-7.52,8.18-2.5-.35-.91-2.53-4.83-.08-3.3l2.49,3.16,1.09-9.48c5.84-.77,9,13.2,15.46,9.28,1.3-2.92-.81-14.06-3.29-15.56-1,.52-3.8-.27-6.33-3.41l.74-3.17c-5.6-7.88-10.57-16.46-17.56-20.93,3.82-.37-7.06-11-2.49-11.31-2.46-1.78-8.53-7.11-8.64-11,2.57-1,11.2,6.66,11.8,9.5-.24.6-1.13.14-1.83-.59.2,1.35.38,3,3.41,4.6l-1.93-2.35c3.07,1.27,5.27-1.43,8.23,2.63A4.61,4.61,0,0,0,709,96.27c4.26.17,3-3.64,7.14-3.88-1.55-.8-4.41-3-4-3.31,6.11-.81-2.53-5.55-1.11-8.83,4.58,1.92,7.28,8.24,6.92,3.16,3.64.77,6,5.37,7.12,7.68-2-6.26,6.7-1.27,8.67-1.72l.59,2.84a2.43,2.43,0,0,1,.8-2.76l-4.89-3.64c1.4.07,2-.46,3.74,1.34-2.11-3.5-7.6-6.62-10-11.82,3,1.3.39-5,6.32.38-4.24.72,4,4.54,4.6,7.66.23-.42.79-.61,1.68-.54a3.42,3.42,0,0,1,1.2,1.78c7.69,2.52-5.11-7.65-2.2-10.23,2.81,3.57,6.63,5.5,6.41,4.37-1.19,1-5.8-4.86-7.18-8.34,4.23.77.12-3.77,1.34-4.38l-2.22-.15c-2.79-3.59-1.48-4-1.22-6.28a5,5,0,0,1,1.3,1.7c-.52-3.13,9.43,4,7.84-1,3,1.33,6,6,8.19,6.76-1.89-6.32,6.63,2.23,5.57-3.44-4.85-3.77-3.95-2.57-6.4-8.38l-.83,6.66-3.67-8.68c-1.21,1,.21,5-1.18,4.94-2.27-4.66-1.34-3.47-5.38-6.58,7.87,5.09-.53-6.79,5.53-4.06l10.29,10.94c7.31,2.3-.48-10.15,5.65-10.75l-2.93-.83c-3.61-4.8,1.61-2.67,1.11-5.51,3.32,3.76,5.27,4.42,7.9,6.25a14.39,14.39,0,0,0,2.47,2,21.82,21.82,0,0,0-2.47-2c-2.6-2.68,2.83-2.15-3.66-9.81l6.09,3.4c4.71-.65-6.39-13.55-2.44-14.86,2.84,4.79,6.51,6.27,7.28,10.85,1-.81,2.41-.89.08-3.47,2.66,1.82-2-7.37,2.08-4.62-1.1-2-4.5-6-3.17-6.66a8.81,8.81,0,0,1,1.3,1.39C772,22,772.54,20,768.26,17c6.71,4.52,8.54,2.51,10.16.32s3-4.53,8.72-.61c.94-3.09,2.35-6.5,4-8.44.86,1.24,1.64,1.89.94,1.81,5.67,1.27-7.86-12.26-1.45-10.89,6.84,4.84,1.29,4.68,4.26,6.19,11.21,12.15,2.11-4.78,10.4.83l.14,1.14c5.17,3-.35-7.93,2.92-9.18A12.42,12.42,0,0,0,809.92,0c-3.75-7.91-2.24-12.77-1.27-16.59,3.37,5.6,1.08,3.54,5.74,8.21.5-1.61-7.07-7.83-6-11.06,3,2.13,6.53,3.21,11.2,8.45l-1.82,2c6.84,6.13,2.46-2.42,4.55-2.1l2.38,3.17c2.31-3.57-4-11.36-.1-13.61l-2.24-2c-4.36-9.24,5.07,3.06,2.33-4.17l6.85,7.38c-.28-2.86-1.7-11-.61-14.28,3.33,6.84,3.11,11.89,4.26,16.61,1.27-.91,3.69-3.87,1.26-8.27.11,1.15,1,3.58-.44,2.75-3.4-7.37-3.79-12-1.21-13.82,11.55,15.68,9.44-1.24,20.48,9.45,0-9,10.51-4.08,14.86-8.82-10.81-10.82,1.23-1.46-8.3-13.75.63-1.66,1.24-1.8,1.94-1.09l-.64-.34.69.4,0,0,9.13,4.86c3.52,3,.87,3.6,3,6.34,3.33-.91,5,4.55,9.12,6.66-3.61-4.25-3.75-7.11-1-6.45l-6.29-4.32c-1.12-9.37,10.77,8.35,9.7-1l1.66,4.83c.11-1.86,1.86-3.08,2.93-5.29s1.48-5.33-1.13-11.12c1.37,1.25,4.24,4.44,4,5.94,2.84-.79,3.51-5.27,4.5-9.09s2.29-6.95,6.21-5l1.75,3.41c.26-1.5-2.44-7,.78-4.49.8,1.35,1.73,3.39,2.26,3.32-.27-1.38-1.33-7.06,1-6l1.35,4.21c7.26,1.27,1.35-13.24,3.87-18,6,9.48,11.49,10.22,14.26,10.66l.77,1.39c6.08-2.06,4.27-13.43,7.09-20.27,4.67,4.28,7.92,3.74,11.15,2.66s6.33-3,10.52-1.42c-1.77-1.34-4.16-7.67-3.8-9.17,2.3,1.3-.46-8.66,4.33.41l-.52.08c5.8,8.31,6.9,4.55,8.95,3.77l-6.11-12c7.24,7.23,9.65,3.93,11.75.5s3.81-6.93,9.19.12c-.31-3.63,1.22-4.41.94-8l3.19,6.46c4.26,0,6.34,0,9.81-3.65l1.4,5c2.56-.73-6.06-20.15-4-21.63l5.3,9.37c2.08-1.1,5.15-.08,7.75,0s4.65-1,4.73-6.33l.31.77.12.29c.08.23.17.46.26.71l.18.53c.07.22.14.44.2.65v-19.83ZM787.27-112c.75,1.55,1,3,.42,3.9a5.86,5.86,0,0,0-2.41-3.06C785.94-111.43,786.59-111.72,787.27-112ZM780-108.14c2.83,2.1,6.47,4.77,1.86,5.2l-2.51-1.83c.36,2.47,2.93,6.11,1.09,7.45-5.77-2.54-2.32-3.29-5.42-5.73A20.24,20.24,0,0,1,780-108.14ZM767.63-99.7a4.74,4.74,0,0,0,.51-.24,11.41,11.41,0,0,0,1.1-.58l.42-.24.25-.18a8.79,8.79,0,0,0,.79-.57,8.71,8.71,0,0,0,.83-.78,5.1,5.1,0,0,0,2.29,1.35c.14-.3.32-.58.49-.87,1.36,3.62,6.58,9.49.66,8.48-1-2-.08-3.6-1.05-5.64-3.59-.71-5.34-.85-6.34-.71Zm-4.11,2.19c.3-.09.57-.19.81-.28a6.23,6.23,0,0,0,.62-.28l-1.36.37.3-.68c.43-.12.86-.26,1.28-.4s.67-.22,1-.34l.24-.09A7.85,7.85,0,0,1,765-98.07l.27-.09-.89.37-.85.36A.3.3,0,0,1,763.52-97.51Zm-12.24,5.79,6.07,6.19c2.13-2.57,3.66-6.1,5.21-9.73,12.22,11.52-1.06,7.87,5.49,17.4-6.55-9.17-4.82-3.58-11.13-7.8a37.11,37.11,0,0,1-4.35-.07C751.57-87.92,750-90.67,751.28-91.72Zm-1.13,2.41a5,5,0,0,1,.3,2.94,3.74,3.74,0,0,1-.63-.48c.23.28.4.55.55.77-.31,1.15-.92,2-1,2.4-.68.24-1.39.5-1.59,1.13C746.54-86.15,744.29-89.72,750.15-89.31Zm-1.83,8.88a19.09,19.09,0,0,0,1.36,1.92,1.54,1.54,0,0,0-1.42-.16A4.5,4.5,0,0,0,748.32-80.43Zm-6.48-4.95,3.86,6.76a13.52,13.52,0,0,1-2.57-1.53c.06,2.12,1.45,2.31,3.11,2.46l.52.91a3.66,3.66,0,0,0,.89-.73,4.7,4.7,0,0,1,2.07.79c3,5.15-3.15,5.55-6.82,7.8a6.76,6.76,0,0,0,.07-3.23C740.71-77.75,734.29-86.62,741.84-85.38ZM614.35-98.51c-.63-.09-1.27-.23-1.92-.33l-.24,0a34.45,34.45,0,0,0-3.55-3.2c3,.85,5.11,1.17,6.42.94-3.11-2.45-6.15-4.9-9.22-7.38,4.21,1.26,7.57,4.46,10.67,3.81l3.14,2.53c-.89,3-2.36,3.77-4.07,3.77l-.61,0C614.77-98.45,614.55-98.48,614.35-98.51ZM597-6.77v0ZM408.51-97.28c-.13-.24-.24-.54-.37-.8a27,27,0,0,1,1.62,3.23c-.45,1.53-1.58.6-2.55-.51A7.77,7.77,0,0,0,408.51-97.28Zm-32.78-35.15c-.28.32-.66.75-1.29,1.55l-.08-.12ZM371-128c1.63,1.87,2.83,4.13,2.1,4.48-.58-1.61-2.93-1.74-5.09-2.78A11.33,11.33,0,0,0,371-128ZM301.19-22.88c0,.5-.2.73-.52.76C300.84-22.39,301-22.63,301.19-22.88ZM223.34,38.17l-1-1c0-.92-.07-1.84-.08-2.74A7.1,7.1,0,0,1,223.34,38.17Zm-71.79,42.4q.19.27.39.57l-.13,0c-.12-.14-.23-.27-.37-.41Zm-4.78,20.09a.22.22,0,0,0,0,.08,2.07,2.07,0,0,1-.5.15Zm-19.64,7.84a2.66,2.66,0,0,1-.14,1.71,8.15,8.15,0,0,1-2.25-1A6.06,6.06,0,0,0,127.13,108.5Zm-11-5.47a28.86,28.86,0,0,0,3.46,3.75q0,.41,0,1a7,7,0,0,1-4.89-3.1A6.67,6.67,0,0,1,116.11,103Zm-6.33,10.86a14.69,14.69,0,0,1,2.62,3.86c-1.93-.54-1.85,1.49-2.71,2.26C109.67,118.16,109.66,116,109.78,113.89ZM100.9,130c2.93,3.49,1.48,4.24,1.12,6.79a4.14,4.14,0,0,1-1.35-1.64.84.84,0,0,1-.31.86,17.49,17.49,0,0,0-.28-2.35,5.43,5.43,0,0,1,.47,1c-.07-.69.22-1.09-.52-1.35-.2-1.07-.45-2.13-.59-3.15Zm-1-11.15a2,2,0,0,1-.47,2,14.77,14.77,0,0,0-1.57-1.59C97.77,117.87,98.79,118.3,99.94,118.86Zm-19,11.6c3,1.61,6.68,2.1,11,5.78a2.21,2.21,0,0,0,0,1.6c-3.29-.88-6.42-5.54-8.86-5.9.67,2.34,0,2.9-1.18,2.91C80.94,133.35,80.38,131.82,81,130.46Zm4.83,9.27c-.33-.43-.72-.9-1.15-1.4l.13-.94Zm-4.91-6c.25.41.44.78.62,1.11a8.89,8.89,0,0,1-1-.12Zm-1.68,4.69c2.64,1.59,2.39,1.77,4.51,6.61l.7-5.08c.51.49,1.22,1.12,2.25,2l0-.12,2,4.5c1.35-1.39-.15-5.59,1.39-5.77,2.4,4.75,1.41,3.6,5.78,6.26-8.55-4.07.5,7.43-6.12,5.63l-11.19-10h-.15A24.51,24.51,0,0,1,79.22,138.41Zm-3,18.76c.71,1.16.49,1.79,0,2.27C76.25,158.72,76.24,158,76.25,157.17ZM-196.06,378.85h-.06l.23-.05Zm.25-.06-.05,0,.29-.09.28,0ZM73.1,161.2v.24l-.67-.55C72.64,161,72.87,161.08,73.1,161.2Zm-5.52,4.06a24.81,24.81,0,0,0,1.81,1.94L67,166.39A2.92,2.92,0,0,0,67.58,165.26Zm-98.36,95.11c-5.23,1.76,3.88,4.63,4,8.24h0a2,2,0,0,0-.31,1.23,2.44,2.44,0,0,0,.25-.62,2.14,2.14,0,0,0,.06-.61,2.71,2.71,0,0,1,2.12-1,2.55,2.55,0,0,1,1.11,1.88c8.76,1.38-4.68-8.12-.69-11.84,2.69,3.7,6.92,5.19,6.87,3.89-1.62,1.48-6.05-4.61-7.06-8.5,4.95,0,.86-4.54,2.45-5.53l-2.65.29c-2.66-3.71-1-4.53-.27-7.26a3.71,3.71,0,0,1,1.22,1.75c0-3.62,10.57,2.8,9.62-2.91,3.38,1,6.05,5.94,8.58,6.35-1.08-7.17,7.6,1.26,7.42-5.28-5.15-3.47-4.28-2.25-6.14-8.64l-2.3,8.1-2.76-9.57c-1.67,1.47-.71,6-2.39,6.12-1.84-5.09-1-3.84-5.22-6.72,8.53,4.43.63-7.94,7.45-6L1,234.65c8.44,1.21,1.37-12,8.92-14l-3.39-.37C3,215.39,9,216.82,8.9,213.55c3.32,3.76,5.57,4.14,8.41,5.73a2.28,2.28,0,0,1-.42-.52,1.75,1.75,0,0,1-.21-.47s0,0,0,0a1.59,1.59,0,0,1,0-.43,2.1,2.1,0,0,1,.09-.42,6.52,6.52,0,0,1,.31-.77h0c.09-.2.19-.41.28-.63a0,0,0,0,0,0,0,4.58,4.58,0,0,0,0-3.37,9.48,9.48,0,0,0-.47-1.07c-.07-.13-.14-.27-.22-.4s-.32-.54-.52-.84-.41-.59-.65-.92-.5-.65-.8-1l6.75,2.69c5.83-1.82-5.3-14.72-.29-17.14,2.59,5.06,6.77,6,6.9,11.29,1.3-1.19,3.08-1.62.71-4.17,2.9,1.58-1.09-8.31,3.34-6-1-2.12-4.39-6.13-2.67-7.2a6.83,6.83,0,0,1,1.34,1.35c-1.12-1.81-.1-4.35-4.76-7,14.71,7.76,10.47-11.14,23.11-4.47-.09.27-.24.56-.35.84l1.69-.12c-.48-.31-.89-.48-1.33-.72,1.69-3.85,4-8.18,6.36-10.81.85,1.25,1.68,1.85.84,1.91,6.71.18-7.55-12.64,0-12.52,7.53,4.1.8,5.22,4.16,6.3A33.36,33.36,0,0,0,63,165l-.38-.14c-5.2,1.92,7.26,13.54,3,15.94-3.24-4.62-7.31-5.33-8.25-10.24-1,1.14-2.65,1.61,0,3.89-3-1.35,2.35,7.66-2.2,5.65,1.26,1.92,5.12,5.5,3.68,6.55a7.65,7.65,0,0,1-1.48-1.2c1.34,1.62.82,4,5.62,6.29-15-6.53-7.75,10.82-20.74,5.3-.85,3.7-2.19,7.86-3.85,10.46-1-1.11-1.92-1.61-1.16-1.73-6.28.29,9.44,11.22,2.38,11.59-7.81-3.28-1.76-4.77-5.1-5.54-13.15-10-2,5.91-11.45,2.27l-.26-1.22c-5.91-1.65,1,8.64-2.48,11a10.44,10.44,0,0,0-1.92-1.59c4.78,7.47,3.59,13.22,3,17.72-4.29-5-1.57-3.53-7.15-7.08-.35,1.95,8.52,6.23,7.81,10.1-3.46-1.34-7.42-1.32-13.1-5.44l1.75-2.82c-8.12-4.37-2.4,3.53-4.71,3.89L3,236c-2.13,4.76,5.64,11.05,1.72,14.82l2.7,1.44c5.91,8.46-5.9-1.53-2,5.35l-8.43-5.54c.68,3,3.37,11.36,2.7,15.24-4.64-6.13-5.09-11.7-7-16.42-1.26,1.47-3.52,5.61-.24,9.46-.29-1.2-1.61-3.49.09-3.14C-2.63,264-1.5,268.81-4,271.71c-15-12.54-10,4.92-23.64-2.12a7.35,7.35,0,0,1-1,5.54l-4.12-2.68c1.67-.18,2.47-.95,4.23.85-1.84-3.74-7.83-6.37-9.76-12.09C-34.91,262.15-36.87,255.13-30.78,260.37Zm-28.36,28.76.62.4a5.07,5.07,0,0,0-1.77-.21c5-.69,4.2-5,9.27-6.15-1.71-.64-4.72-2.65-4.18-3.15,7.49-2.19-1.95-6.13.4-10.34,5.13,1.38,7.13,8.4,7.69,2.4,4.23.18,6.11,5.21,7.06,7.75-1.11-7,8-3,10.65-3.79-3.32,3.53-10.13,4.57-12.89,9.5,13.79,6.92-1.06,2.1,11.62,11.11-.32,2.05-.94,2.46-1.83,2l.51.06-.59-.09,0,0-10.81-1.15c-4.43-1.66-1.67-3.46-4.56-5.43C-51.33,294.59-54.22,289.45-59.14,289.13ZM-197.85,514.65c-.32-1.46,1.08-1.06,2.41-.44a6.69,6.69,0,0,0-.23,2.08l.69.56A27,27,0,0,1-197.85,514.65Zm24.91,64.61c.59-.37,1.23-.75,2-1.13.27,0,.56.08.89.11Zm23.38-49.43-.14.15c-1.88-.91-3.62-2.13-3.82-2.79l.17-.21c1.23,1,3.2.46,5.43.66A7.79,7.79,0,0,0-149.56,529.83ZM190.1,390.65l.82.09-.89-.13,0,0-4.78-.48.47-.57a20.81,20.81,0,0,1-7.31-1.4,3.16,3.16,0,0,1,1.38,1.43l-1.68-.16a3.85,3.85,0,0,1-2.17-1.72,5.6,5.6,0,0,1,1.9.24c-.72-.28-1.42-.6-2.09-.93-.16-1.27.56-2.61-1-4-2.21,1.43-3.73.84-5.29-.21a26.54,26.54,0,0,1-1.92-1.88c3.54-4.3,2.36-11.71,8.34-9.23-2.38,2.46-.71,4.31-.33,6.78l1.85-6.15c10.07,1.88-3,8,1.94,12.33.7-1.38,1.37-2.83,2-4.33,4.15,2.8.89,9.11,8.68,10.25-2-1.43-4-9-8.46-10.74.64-1.51,1.25-3,1.87-4.6,13.16,7.85-2,2.49,9.43,13C191.81,390.68,191,391.18,190.1,390.65Zm4.37-26.34c-1.18,1.85-2.13,3.4-1.53,4.08-3.37,1.65-6.77,3.44-9.31,6.4,3.31-8.36,6.51-16.82,12-20.26C199.41,356.71,196.59,361,194.47,364.31ZM367.34,122.94c-.31.15-.61.28-.89.44A4.92,4.92,0,0,1,367.34,122.94Zm-48.73,95.37c.27,2.09,5.26-1.05,9.27-2.21a100,100,0,0,0-7.47,7.38C318,222.4,316.82,220,318.61,218.31Zm-7.34,15.42.1.1c-1.38,1.68-2.57,3.16-3.43,4.21C308.67,237.09,309.69,235.81,311.27,233.73Zm-3.95-53.55-.09-.07C307.31,180.09,307.36,180.1,307.32,180.18Zm-3.8,10.75a18.84,18.84,0,0,1-5.37,5.91c.78-2.23.94-4.45-3.22-5A24.71,24.71,0,0,0,303.52,190.93Zm-6.43,10.58a1,1,0,0,1-.22-.6A4.65,4.65,0,0,1,297.09,201.51Zm-34.59,25c2-2.33,4.29-5,6.87-7.85-.52,5.84-1.5,11.46-8.78,13.51A34.9,34.9,0,0,1,262.5,226.51Zm-1.92,5.7c1.34,5.31,2.58,10.9,3,13.76a39.65,39.65,0,0,0-9.2.57C258.38,242.27,259.28,237.19,260.58,232.21Zm-48.51,46.64L205.21,281c-1.5-6.44,9.74-8.85,13.6-15.06a7.15,7.15,0,0,0,.69.94c-1.8,2.64-3.56,5.29-5.18,8Q213.14,276.87,212.07,278.85Zm69,8.84.08-1.45c-6.34-1.66-1.55,10.24-6.3,13.26a7.7,7.7,0,0,0-1.72-1.81c3.21,8.67.09,15.64-2,21-3.37-5.75-.69-4.12-6-8.09-1,2.33,7.91,7,5.82,11.65-3.58-1.44-8.18-1.22-13.43-5.89l2.91-3.41c-8-4.83-3.89,4.29-6.67,4.83l-2.58-3c-4,5.75,3,12.9-2.71,17.58l2.66,1.59c4.14,9.83-6.32-1.56-3.95,6.48l-8-6.25c-.17,3.59.29,13.43-1.72,18.12-3.38-7.16-2.14-13.79-2.82-19.36-1.92,1.81-5.8,6.85-3.26,11.32.06-1.44-.73-4.12,1.1-3.76q4.95,11.79-.76,17.18c-5.33-5.84-8.49-5.92-11.25-4.49-1.54-4.2-5.88-2.77-6.74-8.35,8.86-21.17,24.3-6,30.73-15.31.79-.14,1.36-.38,1.38-1-.2-.12-.41-.23-.62-.34a18.91,18.91,0,0,0,1.55-5.15c-1.11-7.38-8-16.06,5.08-22l4.26,9.86c12.15-12.09-3.89-16.67,13-25.55.71,4.94-6.64,12.13-4,11,13.51-3.42,1.41-9.8,7.42-16.42l7.64,4.46c11.24-14.33,20.21-33.3,32.88-49,1.11,2.57.73,6.93,5.87,5.32,1.77-2.68,3.7-5.3,5.75-7.85s4.25-5,6.53-7.39a178.42,178.42,0,0,1,14.69-13.7c5.18-4.3,10.6-8.3,16-12.14q3.82-2.72,7.64-5.3c4.46,3,3.8,2.15,4.77,8.78l3.9-9,1.48,10.37c2.07-1.66,1.75-6.54,3.63-6.8,1.19,5.51.42,4.18,4.67,7.17-8.7-4.52-2,8.69-9.16,6.77L369,200.26c-9.22-.87-3.34,13.24-12,15.84l3.71.2c3.15,5.19-3.22,4-3.6,7.54-3.17-3.9-5.62-4.15-8.57-5.72,2.59,2.66-4.67,3.8,1.51,11.73l-7.15-2.44c-6.72,2.47,4.08,15.65-1.74,18.65-2.29-5.3-6.84-6-6.33-11.72-1.6,1.4-3.64,2-1.3,4.59-3.06-1.48.29,9-4.37,6.8.84,2.22,4.21,6.27,2.2,7.59A6,6,0,0,1,330,252c1,1.87-.33,4.74,4.56,7.19-7.72-3.51-10.86-.2-13.72,3.24s-5.38,7.06-12.08,4.13a62.06,62.06,0,0,1-7.86,12.55c-.84-1.26-1.72-1.81-.79-2-7.39.64,7.46,12.85-.87,13.64-8-3.5-.55-5.57-4.19-6.33C282.89,273.16,290.92,291.54,281,287.69Zm278.36-65.24c-.51-1.63-2.85-1.85-4.95-3a10.85,10.85,0,0,0,3-1.55C559,219.82,560.13,222.14,559.39,222.45Zm1.68-7.25a.76.76,0,0,1-.08-.13l1.18-1.13C561.9,214.23,561.56,214.61,561.07,215.2ZM576,202.25l-5.15-7a15.22,15.22,0,0,0-1.31,1.53,13.51,13.51,0,0,1-2.08-2.64c-2.72-5,3.56-.39,5.48,1.21l.24,2.09a31.1,31.1,0,0,0,3,2C576.56,200.76,576.67,201.83,576,202.25Zm1.11-2c0-.1-.05-.19-.08-.28,5.28,2.36-1.49-8.33.63-9.59L579,191.9C579.21,195.9,583.53,202.05,577.11,200.21ZM593.87,250c-.11-.24-.21-.55-.34-.82a25.43,25.43,0,0,1,1.5,3.3c-.54,1.53-1.65.57-2.58-.57A8.38,8.38,0,0,0,593.87,250Zm-3.28-8.33c.29.73.57,1.47.82,2.13.17-.16.36-.3.52-.46a1.81,1.81,0,0,0-.29,1.06c-.07-.17-.14-.39-.22-.6-.95.84-2.24,1.85-3.74,2.93C587,242.83,586.69,239.42,590.59,241.65Zm-5.93-43.57-3.11-6.87c2.48,1.72,5.71,4.53,5.92,6.25l.35.13C587.54,198.53,586.63,198.82,584.66,198.08ZM599,189.71c-2-2.24-5.49-4.08-8.3-9.84l8.82,6.2c.16.38.32.79.47,1.23A4.91,4.91,0,0,1,599,189.71Zm10.09.12a9.15,9.15,0,0,1-1.47-2.57,20.23,20.23,0,0,1,3,2.1A1.84,1.84,0,0,1,609.09,189.83Zm2-1c-1.24-1.19-2-2.46-.71-3.35l-3,.91c-.44-3.31,4-3.53-1.81-6.95l2.23.15a25.93,25.93,0,0,1,2.89,2.16,10.63,10.63,0,0,0-2.2-2.12l2.51.16c-.6-.55-1.11-1-1.56-1.48,0-1.35-2.33-5.35,1.35-3.81a11,11,0,0,1,2.66,4.12C612.66,182,612.52,186.75,611.12,188.82Zm4.25-12.06c0,.17.06.33.1.51l-.42-.38A1,1,0,0,1,615.37,176.76Zm2.6,11.3c1-.47-.29-2.58-.92-4.46l-.09,3.26c-4.89-5-1.92-4.61-2.05-6.74.54.28,1.31.63,2.42,1.1-2.26-2.6-2.77-3.78-2.38-4.24a83.31,83.31,0,0,1,6.47,9C620,187.13,621.94,192.78,618,188.06Zm12.58-27.3c0-1.43.79-2.39.87-3.76a23.35,23.35,0,0,1,1.57,2.67C632.26,161.16,631.45,161.32,630.55,160.76ZM644,153.14c-1.68-1.49-3.85-3.09-6-4.76l-1.22-1.28.42.66c-3.95-3.09-7.66-6.41-8-9.69,2.49,2.15,6.59,5.78,7.44,7.63-.31-.83-1-2.37.3-1.9l3.32,5.11c3,.62-3-4-1.78-4.52,3.17,3,3.3,2.11,5.1,3.69,0,.35,0,.69,0,1-.46,0-.81.09-.25,1l.35,0a7.53,7.53,0,0,0,2.26,4.27C645.1,153.8,644.49,153.44,644,153.14Zm2.55-2.84a15.77,15.77,0,0,1,4.92,2.3c-2.17-1.85-5-4.61-4.7-5.82.94-1.33,2.58.18,4.38,1.74.19,1.42.28,2.77.41,4.15l-.09-.07.09.08a27.39,27.39,0,0,0,.79,4.6A16.31,16.31,0,0,1,646.52,150.3Zm9.66-9.81c-.42-1-1.4-2-3.4-3.28l.2,0a6.61,6.61,0,0,1-.59-.3l.39.27-.62-.1c-.07-.15,0-.21-.09-.39-1.93-7,6-5.15,9.17-7.48C662.6,135.48,657.86,136.39,656.18,140.49Zm21.93-13c-.33-1-2-1.45-4.12-3.5l3.46,3.49c-1-.19-2.3-1.21-4.3-4,1.06,2.55,2.21,9.29.92,10.82-4.59-11.72-6.07.82-12-5.83a3.17,3.17,0,0,0,.44-1.21l1.82,1.74c-.22-4,2.92-5.55.34-10.68.56-.58,4.61,1.78,6.55,4.1.06-2.81-1.83-4.93,3.24-4.23,1.73,4.53,3.31,2.16.85,3.76,3.42-.46,6.75,1.9,3.8-4.93,2,2.56,3.76,3.6,5,3.73-.74,1.5-1.37,3,.28,6.27C680.87,124.43,679.89,127.18,678.11,127.47Zm16-3.23c-4.85-3.07-7-6.95-6.14-1.83a13.07,13.07,0,0,1-2.1-2.89,2.08,2.08,0,0,0,0-.65l-.34-.14a7.27,7.27,0,0,1-.41-1.53,5.55,5.55,0,0,1-.11,1.33L681.2,117c.31-1.68,1.6-2.19,2.87-2.73l5.63,6.37c1.66.48,2.7.37,3.32-.1A5.19,5.19,0,0,1,694.09,124.24Zm-.53-4.38a3.71,3.71,0,0,0,.25-1.44l.85,2.77A13.86,13.86,0,0,1,693.56,119.86Zm-1.1-9.57c0-1.61.6-2.52,2.86-1.82-.14,1.16.6,3.31,1,5.17A19.73,19.73,0,0,0,692.46,110.29Zm7-3.25,1,7.81-1.28-1.06v-.63l-.05.58-3.23-2.64,1.75-1.62c.49.25,1,.54,1.59.88a9.42,9.42,0,0,0-1-1.4l.31-.29a7.16,7.16,0,0,0-2-1c-1.87-.77-3.6.08-6.4-3.88C691.68,103.22,696.1,105.36,699.51,107ZM719.63,16l1.26,3.87C719.54,18,719.37,16.83,719.63,16Z"/></g></g><rect class="cls-5" y="495.15" width="421.96" height="23.1"/><path class="cls-4" d="M27.38,0V495h367.2V0Zm364.2,492H30.38V3h361.2Z"/><path class="cls-4" d="M384,10.59H38V484.36H384ZM205.54,475.36H47V249.51H205.54Zm0-233.32H47V19.59H205.54ZM375,475.36H213V249.51H375ZM375,242H213V19.59H375Z"/></g></svg>